<ttFont>
    <TTGlyph name=".notdef" xMin="37" yMin="28" xMax="352" yMax="445">
      <contour>
        <pt x="37" y="74" on="1"/>
        <pt x="37" y="91" on="0"/>
        <pt x="45" y="101" on="1"/>
        <pt x="136" y="236" on="1"/>
        <pt x="45" y="371" on="1"/>
        <pt x="37" y="382" on="0"/>
        <pt x="37" y="398" on="1"/>
        <pt x="37" y="418" on="0"/>
        <pt x="69" y="445" on="0"/>
        <pt x="89" y="445" on="1"/>
        <pt x="112" y="445" on="0"/>
        <pt x="127" y="425" on="1"/>
        <pt x="194" y="313" on="1"/>
        <pt x="262" y="425" on="1"/>
        <pt x="276" y="445" on="0"/>
        <pt x="299" y="445" on="1"/>
        <pt x="320" y="445" on="0"/>
        <pt x="352" y="418" on="0"/>
        <pt x="352" y="398" on="1"/>
        <pt x="352" y="384" on="0"/>
        <pt x="343" y="371" on="1"/>
        <pt x="252" y="236" on="1"/>
        <pt x="343" y="101" on="1"/>
        <pt x="352" y="89" on="0"/>
        <pt x="352" y="74" on="1"/>
        <pt x="352" y="54" on="0"/>
        <pt x="320" y="28" on="0"/>
        <pt x="299" y="28" on="1"/>
        <pt x="275" y="28" on="0"/>
        <pt x="262" y="47" on="1"/>
        <pt x="194" y="159" on="1"/>
        <pt x="127" y="47" on="1"/>
        <pt x="112" y="28" on="0"/>
        <pt x="89" y="28" on="1"/>
        <pt x="69" y="28" on="0"/>
        <pt x="37" y="54" on="0"/>
      </contour>
    </TTGlyph>
    <TTGlyph name="A" xMin="9" yMin="0" xMax="566" yMax="737">
      <contour>
        <pt x="9" y="54" on="1"/>
        <pt x="9" y="56" on="0"/>
        <pt x="11" y="64" on="1"/>
        <pt x="204" y="693" on="1"/>
        <pt x="210" y="714" on="0"/>
        <pt x="257" y="737" on="0"/>
        <pt x="317" y="737" on="0"/>
        <pt x="365" y="714" on="0"/>
        <pt x="371" y="693" on="1"/>
        <pt x="564" y="64" on="1"/>
        <pt x="566" y="56" on="0"/>
        <pt x="566" y="54" on="1"/>
        <pt x="566" y="32" on="0"/>
        <pt x="512" y="0" on="0"/>
        <pt x="484" y="0" on="1"/>
        <pt x="447" y="0" on="0"/>
        <pt x="440" y="26" on="1"/>
        <pt x="402" y="159" on="1"/>
        <pt x="173" y="159" on="1"/>
        <pt x="135" y="26" on="1"/>
        <pt x="128" y="0" on="0"/>
        <pt x="91" y="0" on="1"/>
        <pt x="62" y="0" on="0"/>
        <pt x="9" y="31" on="0"/>
      </contour>
      <contour>
        <pt x="200" y="261" on="1"/>
        <pt x="374" y="261" on="1"/>
        <pt x="287" y="568" on="1"/>
      </contour>
    </TTGlyph>
    <TTGlyph name="AE" xMin="57" yMin="0" xMax="771" yMax="731">
      <contour>
        <pt x="57" y="46" on="1"/>
        <pt x="57" y="502" on="1"/>
        <pt x="57" y="620" on="0"/>
        <pt x="182" y="731" on="0"/>
        <pt x="285" y="731" on="1"/>
        <pt x="730" y="731" on="1"/>
        <pt x="750" y="731" on="0"/>
        <pt x="771" y="698" on="0"/>
        <pt x="771" y="675" on="1"/>
        <pt x="771" y="651" on="0"/>
        <pt x="749" y="617" on="0"/>
        <pt x="730" y="617" on="1"/>
        <pt x="502" y="617" on="1"/>
        <pt x="502" y="417" on="1"/>
        <pt x="621" y="417" on="1"/>
        <pt x="640" y="417" on="0"/>
        <pt x="662" y="386" on="0"/>
        <pt x="662" y="365" on="1"/>
        <pt x="662" y="346" on="0"/>
        <pt x="641" y="315" on="0"/>
        <pt x="621" y="315" on="1"/>
        <pt x="502" y="315" on="1"/>
        <pt x="502" y="114" on="1"/>
        <pt x="730" y="114" on="1"/>
        <pt x="749" y="114" on="0"/>
        <pt x="771" y="80" on="0"/>
        <pt x="771" y="56" on="1"/>
        <pt x="771" y="33" on="0"/>
        <pt x="750" y="0" on="0"/>
        <pt x="730" y="0" on="1"/>
        <pt x="429" y="0" on="1"/>
        <pt x="406" y="0" on="0"/>
        <pt x="372" y="22" on="0"/>
        <pt x="372" y="41" on="1"/>
        <pt x="372" y="315" on="1"/>
        <pt x="180" y="315" on="1"/>
        <pt x="180" y="46" on="1"/>
        <pt x="180" y="23" on="0"/>
        <pt x="154" y="0" on="0"/>
        <pt x="115" y="0" on="1"/>
        <pt x="57" y="0" on="0"/>
      </contour>
      <contour>
        <pt x="180" y="417" on="1"/>
        <pt x="372" y="417" on="1"/>
        <pt x="372" y="617" on="1"/>
        <pt x="285" y="617" on="1"/>
        <pt x="180" y="617" on="0"/>
        <pt x="180" y="502" on="1"/>
      </contour>
    </TTGlyph>
    <TTGlyph name="AEacute" xMin="57" yMin="0" xMax="771" yMax="954">
      <contour>
        <pt x="57" y="46" on="1"/>
        <pt x="57" y="502" on="1"/>
        <pt x="57" y="620" on="0"/>
        <pt x="182" y="731" on="0"/>
        <pt x="285" y="731" on="1"/>
        <pt x="730" y="731" on="1"/>
        <pt x="750" y="731" on="0"/>
        <pt x="771" y="698" on="0"/>
        <pt x="771" y="675" on="1"/>
        <pt x="771" y="651" on="0"/>
        <pt x="749" y="617" on="0"/>
        <pt x="730" y="617" on="1"/>
        <pt x="502" y="617" on="1"/>
        <pt x="502" y="417" on="1"/>
        <pt x="621" y="417" on="1"/>
        <pt x="640" y="417" on="0"/>
        <pt x="662" y="386" on="0"/>
        <pt x="662" y="365" on="1"/>
        <pt x="662" y="346" on="0"/>
        <pt x="641" y="315" on="0"/>
        <pt x="621" y="315" on="1"/>
        <pt x="502" y="315" on="1"/>
        <pt x="502" y="114" on="1"/>
        <pt x="730" y="114" on="1"/>
        <pt x="749" y="114" on="0"/>
        <pt x="771" y="80" on="0"/>
        <pt x="771" y="56" on="1"/>
        <pt x="771" y="33" on="0"/>
        <pt x="750" y="0" on="0"/>
        <pt x="730" y="0" on="1"/>
        <pt x="429" y="0" on="1"/>
        <pt x="406" y="0" on="0"/>
        <pt x="372" y="22" on="0"/>
        <pt x="372" y="41" on="1"/>
        <pt x="372" y="315" on="1"/>
        <pt x="180" y="315" on="1"/>
        <pt x="180" y="46" on="1"/>
        <pt x="180" y="23" on="0"/>
        <pt x="154" y="0" on="0"/>
        <pt x="115" y="0" on="1"/>
        <pt x="57" y="0" on="0"/>
      </contour>
      <contour>
        <pt x="180" y="417" on="1"/>
        <pt x="372" y="417" on="1"/>
        <pt x="372" y="617" on="1"/>
        <pt x="285" y="617" on="1"/>
        <pt x="180" y="617" on="0"/>
        <pt x="180" y="502" on="1"/>
      </contour>
      <contour>
        <pt x="364" y="857" on="1"/>
        <pt x="364" y="880" on="0"/>
        <pt x="381" y="888" on="1"/>
        <pt x="513" y="952" on="1"/>
        <pt x="523" y="954" on="0"/>
        <pt x="526" y="954" on="1"/>
        <pt x="542" y="954" on="0"/>
        <pt x="566" y="923" on="0"/>
        <pt x="566" y="905" on="1"/>
        <pt x="566" y="883" on="0"/>
        <pt x="548" y="875" on="1"/>
        <pt x="418" y="812" on="1"/>
        <pt x="408" y="808" on="0"/>
        <pt x="404" y="808" on="1"/>
        <pt x="388" y="808" on="0"/>
        <pt x="364" y="840" on="0"/>
      </contour>
    </TTGlyph>
    <TTGlyph name="Aacute" xMin="9" yMin="0" xMax="566" yMax="957">
      <contour>
        <pt x="9" y="54" on="1"/>
        <pt x="9" y="56" on="0"/>
        <pt x="11" y="64" on="1"/>
        <pt x="204" y="693" on="1"/>
        <pt x="210" y="714" on="0"/>
        <pt x="257" y="737" on="0"/>
        <pt x="317" y="737" on="0"/>
        <pt x="365" y="714" on="0"/>
        <pt x="371" y="693" on="1"/>
        <pt x="564" y="64" on="1"/>
        <pt x="566" y="56" on="0"/>
        <pt x="566" y="54" on="1"/>
        <pt x="566" y="32" on="0"/>
        <pt x="512" y="0" on="0"/>
        <pt x="484" y="0" on="1"/>
        <pt x="447" y="0" on="0"/>
        <pt x="440" y="26" on="1"/>
        <pt x="402" y="159" on="1"/>
        <pt x="173" y="159" on="1"/>
        <pt x="135" y="26" on="1"/>
        <pt x="128" y="0" on="0"/>
        <pt x="91" y="0" on="1"/>
        <pt x="62" y="0" on="0"/>
        <pt x="9" y="31" on="0"/>
      </contour>
      <contour>
        <pt x="200" y="261" on="1"/>
        <pt x="374" y="261" on="1"/>
        <pt x="287" y="568" on="1"/>
      </contour>
      <contour>
        <pt x="215" y="860" on="1"/>
        <pt x="215" y="882" on="0"/>
        <pt x="232" y="891" on="1"/>
        <pt x="364" y="955" on="1"/>
        <pt x="374" y="957" on="0"/>
        <pt x="377" y="957" on="1"/>
        <pt x="393" y="957" on="0"/>
        <pt x="417" y="926" on="0"/>
        <pt x="417" y="908" on="1"/>
        <pt x="417" y="886" on="0"/>
        <pt x="399" y="878" on="1"/>
        <pt x="269" y="815" on="1"/>
        <pt x="259" y="811" on="0"/>
        <pt x="255" y="811" on="1"/>
        <pt x="239" y="811" on="0"/>
        <pt x="215" y="843" on="0"/>
      </contour>
    </TTGlyph>
    <TTGlyph name="Abreve" xMin="9" yMin="0" xMax="566" yMax="964">
      <contour>
        <pt x="9" y="54" on="1"/>
        <pt x="9" y="56" on="0"/>
        <pt x="11" y="64" on="1"/>
        <pt x="204" y="693" on="1"/>
        <pt x="210" y="714" on="0"/>
        <pt x="257" y="737" on="0"/>
        <pt x="317" y="737" on="0"/>
        <pt x="365" y="714" on="0"/>
        <pt x="371" y="693" on="1"/>
        <pt x="564" y="64" on="1"/>
        <pt x="566" y="56" on="0"/>
        <pt x="566" y="54" on="1"/>
        <pt x="566" y="32" on="0"/>
        <pt x="512" y="0" on="0"/>
        <pt x="484" y="0" on="1"/>
        <pt x="447" y="0" on="0"/>
        <pt x="440" y="26" on="1"/>
        <pt x="402" y="159" on="1"/>
        <pt x="173" y="159" on="1"/>
        <pt x="135" y="26" on="1"/>
        <pt x="128" y="0" on="0"/>
        <pt x="91" y="0" on="1"/>
        <pt x="62" y="0" on="0"/>
        <pt x="9" y="31" on="0"/>
      </contour>
      <contour>
        <pt x="154" y="964" on="1"/>
        <pt x="224" y="964" on="1"/>
        <pt x="224" y="932" on="0"/>
        <pt x="262" y="889" on="0"/>
        <pt x="287" y="889" on="1"/>
        <pt x="311" y="889" on="0"/>
        <pt x="350" y="932" on="0"/>
        <pt x="350" y="964" on="1"/>
        <pt x="420" y="964" on="1"/>
        <pt x="420" y="911" on="0"/>
        <pt x="339" y="831" on="0"/>
        <pt x="235" y="831" on="0"/>
        <pt x="154" y="911" on="0"/>
      </contour>
      <contour>
        <pt x="200" y="261" on="1"/>
        <pt x="374" y="261" on="1"/>
        <pt x="287" y="568" on="1"/>
      </contour>
    </TTGlyph>
    <TTGlyph name="Acircumflex" xMin="9" yMin="0" xMax="566" yMax="957">
      <contour>
        <pt x="9" y="54" on="1"/>
        <pt x="9" y="56" on="0"/>
        <pt x="11" y="64" on="1"/>
        <pt x="204" y="693" on="1"/>
        <pt x="210" y="714" on="0"/>
        <pt x="257" y="737" on="0"/>
        <pt x="317" y="737" on="0"/>
        <pt x="365" y="714" on="0"/>
        <pt x="371" y="693" on="1"/>
        <pt x="564" y="64" on="1"/>
        <pt x="566" y="56" on="0"/>
        <pt x="566" y="54" on="1"/>
        <pt x="566" y="32" on="0"/>
        <pt x="512" y="0" on="0"/>
        <pt x="484" y="0" on="1"/>
        <pt x="447" y="0" on="0"/>
        <pt x="440" y="26" on="1"/>
        <pt x="402" y="159" on="1"/>
        <pt x="173" y="159" on="1"/>
        <pt x="135" y="26" on="1"/>
        <pt x="128" y="0" on="0"/>
        <pt x="91" y="0" on="1"/>
        <pt x="62" y="0" on="0"/>
        <pt x="9" y="31" on="0"/>
      </contour>
      <contour>
        <pt x="144" y="859" on="1"/>
        <pt x="144" y="885" on="0"/>
        <pt x="166" y="896" on="1"/>
        <pt x="270" y="952" on="1"/>
        <pt x="278" y="957" on="0"/>
        <pt x="287" y="957" on="1"/>
        <pt x="294" y="957" on="0"/>
        <pt x="304" y="952" on="1"/>
        <pt x="408" y="897" on="1"/>
        <pt x="429" y="884" on="0"/>
        <pt x="429" y="858" on="1"/>
        <pt x="429" y="843" on="0"/>
        <pt x="413" y="819" on="0"/>
        <pt x="401" y="819" on="1"/>
        <pt x="396" y="819" on="0"/>
        <pt x="391" y="822" on="1"/>
        <pt x="287" y="878" on="1"/>
        <pt x="183" y="822" on="1"/>
        <pt x="177" y="819" on="0"/>
        <pt x="172" y="819" on="1"/>
        <pt x="160" y="819" on="0"/>
        <pt x="144" y="843" on="0"/>
      </contour>
      <contour>
        <pt x="200" y="261" on="1"/>
        <pt x="374" y="261" on="1"/>
        <pt x="287" y="568" on="1"/>
      </contour>
    </TTGlyph>
    <TTGlyph name="Adieresis" xMin="9" yMin="0" xMax="566" yMax="925">
      <contour>
        <pt x="9" y="54" on="1"/>
        <pt x="9" y="56" on="0"/>
        <pt x="11" y="64" on="1"/>
        <pt x="204" y="693" on="1"/>
        <pt x="210" y="714" on="0"/>
        <pt x="257" y="737" on="0"/>
        <pt x="317" y="737" on="0"/>
        <pt x="365" y="714" on="0"/>
        <pt x="371" y="693" on="1"/>
        <pt x="564" y="64" on="1"/>
        <pt x="566" y="56" on="0"/>
        <pt x="566" y="54" on="1"/>
        <pt x="566" y="32" on="0"/>
        <pt x="512" y="0" on="0"/>
        <pt x="484" y="0" on="1"/>
        <pt x="447" y="0" on="0"/>
        <pt x="440" y="26" on="1"/>
        <pt x="402" y="159" on="1"/>
        <pt x="173" y="159" on="1"/>
        <pt x="135" y="26" on="1"/>
        <pt x="128" y="0" on="0"/>
        <pt x="91" y="0" on="1"/>
        <pt x="62" y="0" on="0"/>
        <pt x="9" y="31" on="0"/>
      </contour>
      <contour>
        <pt x="163" y="852" on="0"/>
        <pt x="163" y="894" on="0"/>
        <pt x="193" y="925" on="0"/>
        <pt x="235" y="925" on="0"/>
        <pt x="264" y="894" on="0"/>
        <pt x="264" y="852" on="0"/>
        <pt x="235" y="820" on="0"/>
        <pt x="193" y="820" on="0"/>
      </contour>
      <contour>
        <pt x="200" y="261" on="1"/>
        <pt x="374" y="261" on="1"/>
        <pt x="287" y="568" on="1"/>
      </contour>
      <contour>
        <pt x="312" y="852" on="0"/>
        <pt x="312" y="894" on="0"/>
        <pt x="342" y="925" on="0"/>
        <pt x="364" y="925" on="1"/>
        <pt x="384" y="925" on="0"/>
        <pt x="414" y="894" on="0"/>
        <pt x="414" y="852" on="0"/>
        <pt x="384" y="820" on="0"/>
        <pt x="364" y="820" on="1"/>
        <pt x="343" y="820" on="0"/>
      </contour>
    </TTGlyph>
    <TTGlyph name="Agrave" xMin="9" yMin="0" xMax="566" yMax="957">
      <contour>
        <pt x="9" y="54" on="1"/>
        <pt x="9" y="56" on="0"/>
        <pt x="11" y="64" on="1"/>
        <pt x="204" y="693" on="1"/>
        <pt x="210" y="714" on="0"/>
        <pt x="257" y="737" on="0"/>
        <pt x="317" y="737" on="0"/>
        <pt x="365" y="714" on="0"/>
        <pt x="371" y="693" on="1"/>
        <pt x="564" y="64" on="1"/>
        <pt x="566" y="56" on="0"/>
        <pt x="566" y="54" on="1"/>
        <pt x="566" y="32" on="0"/>
        <pt x="512" y="0" on="0"/>
        <pt x="484" y="0" on="1"/>
        <pt x="447" y="0" on="0"/>
        <pt x="440" y="26" on="1"/>
        <pt x="402" y="159" on="1"/>
        <pt x="173" y="159" on="1"/>
        <pt x="135" y="26" on="1"/>
        <pt x="128" y="0" on="0"/>
        <pt x="91" y="0" on="1"/>
        <pt x="62" y="0" on="0"/>
        <pt x="9" y="31" on="0"/>
      </contour>
      <contour>
        <pt x="172" y="908" on="1"/>
        <pt x="172" y="926" on="0"/>
        <pt x="196" y="957" on="0"/>
        <pt x="212" y="957" on="1"/>
        <pt x="215" y="957" on="0"/>
        <pt x="225" y="955" on="1"/>
        <pt x="357" y="891" on="1"/>
        <pt x="374" y="882" on="0"/>
        <pt x="374" y="860" on="1"/>
        <pt x="374" y="843" on="0"/>
        <pt x="350" y="811" on="0"/>
        <pt x="334" y="811" on="1"/>
        <pt x="330" y="811" on="0"/>
        <pt x="320" y="815" on="1"/>
        <pt x="190" y="878" on="1"/>
        <pt x="172" y="886" on="0"/>
      </contour>
      <contour>
        <pt x="200" y="261" on="1"/>
        <pt x="374" y="261" on="1"/>
        <pt x="287" y="568" on="1"/>
      </contour>
    </TTGlyph>
    <TTGlyph name="Amacron" xMin="9" yMin="0" xMax="566" yMax="938">
      <contour>
        <pt x="9" y="54" on="1"/>
        <pt x="9" y="56" on="0"/>
        <pt x="11" y="64" on="1"/>
        <pt x="204" y="693" on="1"/>
        <pt x="210" y="714" on="0"/>
        <pt x="257" y="737" on="0"/>
        <pt x="317" y="737" on="0"/>
        <pt x="365" y="714" on="0"/>
        <pt x="371" y="693" on="1"/>
        <pt x="564" y="64" on="1"/>
        <pt x="566" y="56" on="0"/>
        <pt x="566" y="54" on="1"/>
        <pt x="566" y="32" on="0"/>
        <pt x="512" y="0" on="0"/>
        <pt x="484" y="0" on="1"/>
        <pt x="447" y="0" on="0"/>
        <pt x="440" y="26" on="1"/>
        <pt x="402" y="159" on="1"/>
        <pt x="173" y="159" on="1"/>
        <pt x="135" y="26" on="1"/>
        <pt x="128" y="0" on="0"/>
        <pt x="91" y="0" on="1"/>
        <pt x="62" y="0" on="0"/>
        <pt x="9" y="31" on="0"/>
      </contour>
      <contour>
        <pt x="144" y="895" on="1"/>
        <pt x="144" y="913" on="0"/>
        <pt x="166" y="938" on="0"/>
        <pt x="184" y="938" on="1"/>
        <pt x="389" y="938" on="1"/>
        <pt x="405" y="938" on="0"/>
        <pt x="430" y="913" on="0"/>
        <pt x="430" y="877" on="0"/>
        <pt x="405" y="853" on="0"/>
        <pt x="389" y="853" on="1"/>
        <pt x="184" y="853" on="1"/>
        <pt x="166" y="853" on="0"/>
        <pt x="144" y="876" on="0"/>
      </contour>
      <contour>
        <pt x="200" y="261" on="1"/>
        <pt x="374" y="261" on="1"/>
        <pt x="287" y="568" on="1"/>
      </contour>
    </TTGlyph>
    <TTGlyph name="Aogonek" xMin="9" yMin="-213" xMax="566" yMax="737">
      <contour>
        <pt x="9" y="54" on="1"/>
        <pt x="9" y="56" on="0"/>
        <pt x="11" y="64" on="1"/>
        <pt x="204" y="693" on="1"/>
        <pt x="210" y="714" on="0"/>
        <pt x="257" y="737" on="0"/>
        <pt x="317" y="737" on="0"/>
        <pt x="365" y="714" on="0"/>
        <pt x="371" y="693" on="1"/>
        <pt x="564" y="64" on="1"/>
        <pt x="566" y="56" on="0"/>
        <pt x="566" y="54" on="1"/>
        <pt x="566" y="24" on="0"/>
        <pt x="520" y="7" on="1"/>
        <pt x="486" y="-14" on="0"/>
        <pt x="442" y="-80" on="0"/>
        <pt x="442" y="-111" on="1"/>
        <pt x="442" y="-158" on="0"/>
        <pt x="502" y="-158" on="1"/>
        <pt x="525" y="-158" on="0"/>
        <pt x="525" y="-187" on="1"/>
        <pt x="525" y="-213" on="0"/>
        <pt x="496" y="-213" on="1"/>
        <pt x="440" y="-213" on="0"/>
        <pt x="379" y="-164" on="0"/>
        <pt x="379" y="-123" on="1"/>
        <pt x="379" y="-46" on="0"/>
        <pt x="450" y="9" on="1"/>
        <pt x="443" y="14" on="0"/>
        <pt x="440" y="26" on="1"/>
        <pt x="402" y="159" on="1"/>
        <pt x="173" y="159" on="1"/>
        <pt x="135" y="26" on="1"/>
        <pt x="128" y="0" on="0"/>
        <pt x="91" y="0" on="1"/>
        <pt x="62" y="0" on="0"/>
        <pt x="9" y="31" on="0"/>
      </contour>
      <contour>
        <pt x="200" y="261" on="1"/>
        <pt x="374" y="261" on="1"/>
        <pt x="287" y="568" on="1"/>
      </contour>
    </TTGlyph>
    <TTGlyph name="Aring" xMin="9" yMin="0" xMax="566" yMax="1012">
      <contour>
        <pt x="9" y="54" on="1"/>
        <pt x="9" y="56" on="0"/>
        <pt x="11" y="64" on="1"/>
        <pt x="204" y="693" on="1"/>
        <pt x="210" y="714" on="0"/>
        <pt x="257" y="737" on="0"/>
        <pt x="317" y="737" on="0"/>
        <pt x="365" y="714" on="0"/>
        <pt x="371" y="693" on="1"/>
        <pt x="564" y="64" on="1"/>
        <pt x="566" y="56" on="0"/>
        <pt x="566" y="54" on="1"/>
        <pt x="566" y="32" on="0"/>
        <pt x="512" y="0" on="0"/>
        <pt x="484" y="0" on="1"/>
        <pt x="447" y="0" on="0"/>
        <pt x="440" y="26" on="1"/>
        <pt x="402" y="159" on="1"/>
        <pt x="173" y="159" on="1"/>
        <pt x="135" y="26" on="1"/>
        <pt x="128" y="0" on="0"/>
        <pt x="91" y="0" on="1"/>
        <pt x="62" y="0" on="0"/>
        <pt x="9" y="31" on="0"/>
      </contour>
      <contour>
        <pt x="189" y="913" on="1"/>
        <pt x="189" y="952" on="0"/>
        <pt x="246" y="1012" on="0"/>
        <pt x="326" y="1012" on="0"/>
        <pt x="385" y="952" on="0"/>
        <pt x="385" y="913" on="1"/>
        <pt x="385" y="873" on="0"/>
        <pt x="325" y="812" on="0"/>
        <pt x="247" y="812" on="0"/>
        <pt x="189" y="873" on="0"/>
      </contour>
      <contour>
        <pt x="200" y="261" on="1"/>
        <pt x="374" y="261" on="1"/>
        <pt x="287" y="568" on="1"/>
      </contour>
      <contour>
        <pt x="240" y="912" on="1"/>
        <pt x="240" y="894" on="0"/>
        <pt x="268" y="864" on="0"/>
        <pt x="287" y="864" on="1"/>
        <pt x="305" y="864" on="0"/>
        <pt x="331" y="893" on="0"/>
        <pt x="331" y="912" on="1"/>
        <pt x="331" y="930" on="0"/>
        <pt x="305" y="957" on="0"/>
        <pt x="287" y="957" on="1"/>
        <pt x="268" y="957" on="0"/>
        <pt x="240" y="929" on="0"/>
      </contour>
    </TTGlyph>
    <TTGlyph name="Atilde" xMin="9" yMin="0" xMax="566" yMax="946">
      <contour>
        <pt x="9" y="54" on="1"/>
        <pt x="9" y="56" on="0"/>
        <pt x="11" y="64" on="1"/>
        <pt x="204" y="693" on="1"/>
        <pt x="210" y="714" on="0"/>
        <pt x="257" y="737" on="0"/>
        <pt x="317" y="737" on="0"/>
        <pt x="365" y="714" on="0"/>
        <pt x="371" y="693" on="1"/>
        <pt x="564" y="64" on="1"/>
        <pt x="566" y="56" on="0"/>
        <pt x="566" y="54" on="1"/>
        <pt x="566" y="32" on="0"/>
        <pt x="512" y="0" on="0"/>
        <pt x="484" y="0" on="1"/>
        <pt x="447" y="0" on="0"/>
        <pt x="440" y="26" on="1"/>
        <pt x="402" y="159" on="1"/>
        <pt x="173" y="159" on="1"/>
        <pt x="135" y="26" on="1"/>
        <pt x="128" y="0" on="0"/>
        <pt x="91" y="0" on="1"/>
        <pt x="62" y="0" on="0"/>
        <pt x="9" y="31" on="0"/>
      </contour>
      <contour>
        <pt x="116" y="878" on="1"/>
        <pt x="116" y="906" on="0"/>
        <pt x="152" y="939" on="0"/>
        <pt x="185" y="946" on="0"/>
        <pt x="202" y="946" on="1"/>
        <pt x="232" y="946" on="0"/>
        <pt x="318" y="917" on="0"/>
        <pt x="344" y="917" on="1"/>
        <pt x="368" y="917" on="0"/>
        <pt x="417" y="941" on="0"/>
        <pt x="425" y="941" on="1"/>
        <pt x="442" y="941" on="0"/>
        <pt x="458" y="911" on="0"/>
        <pt x="458" y="899" on="1"/>
        <pt x="458" y="877" on="0"/>
        <pt x="439" y="848" on="0"/>
        <pt x="408" y="835" on="0"/>
        <pt x="384" y="831" on="0"/>
        <pt x="373" y="831" on="1"/>
        <pt x="338" y="831" on="0"/>
        <pt x="254" y="860" on="0"/>
        <pt x="231" y="860" on="1"/>
        <pt x="207" y="860" on="0"/>
        <pt x="157" y="836" on="0"/>
        <pt x="149" y="836" on="1"/>
        <pt x="132" y="836" on="0"/>
        <pt x="116" y="866" on="0"/>
      </contour>
      <contour>
        <pt x="200" y="261" on="1"/>
        <pt x="374" y="261" on="1"/>
        <pt x="287" y="568" on="1"/>
      </contour>
    </TTGlyph>
    <TTGlyph name="B" xMin="60" yMin="0" xMax="529" yMax="731">
      <contour>
        <pt x="60" y="40" on="1"/>
        <pt x="60" y="690" on="1"/>
        <pt x="60" y="709" on="0"/>
        <pt x="94" y="731" on="0"/>
        <pt x="117" y="731" on="1"/>
        <pt x="310" y="731" on="1"/>
        <pt x="511" y="731" on="0"/>
        <pt x="511" y="555" on="1"/>
        <pt x="511" y="433" on="0"/>
        <pt x="426" y="396" on="1"/>
        <pt x="477" y="376" on="0"/>
        <pt x="529" y="303" on="0"/>
        <pt x="529" y="233" on="1"/>
        <pt x="529" y="212" on="1"/>
        <pt x="529" y="101" on="0"/>
        <pt x="421" y="0" on="0"/>
        <pt x="329" y="0" on="1"/>
        <pt x="117" y="0" on="1"/>
        <pt x="92" y="0" on="0"/>
        <pt x="60" y="24" on="0"/>
      </contour>
      <contour>
        <pt x="189" y="114" on="1"/>
        <pt x="302" y="114" on="1"/>
        <pt x="399" y="114" on="0"/>
        <pt x="399" y="223" on="1"/>
        <pt x="399" y="239" on="1"/>
        <pt x="399" y="295" on="0"/>
        <pt x="350" y="345" on="0"/>
        <pt x="302" y="345" on="1"/>
        <pt x="189" y="345" on="1"/>
      </contour>
      <contour>
        <pt x="189" y="447" on="1"/>
        <pt x="301" y="447" on="1"/>
        <pt x="340" y="447" on="0"/>
        <pt x="381" y="493" on="0"/>
        <pt x="381" y="533" on="1"/>
        <pt x="381" y="572" on="0"/>
        <pt x="338" y="617" on="0"/>
        <pt x="300" y="617" on="1"/>
        <pt x="189" y="617" on="1"/>
      </contour>
    </TTGlyph>
    <TTGlyph name="C" xMin="53" yMin="-6" xMax="522" yMax="731">
      <contour>
        <pt x="53" y="223" on="1"/>
        <pt x="53" y="502" on="1"/>
        <pt x="53" y="620" on="0"/>
        <pt x="181" y="731" on="0"/>
        <pt x="284" y="731" on="1"/>
        <pt x="389" y="731" on="0"/>
        <pt x="522" y="627" on="0"/>
        <pt x="522" y="541" on="1"/>
        <pt x="522" y="504" on="0"/>
        <pt x="492" y="477" on="0"/>
        <pt x="457" y="477" on="1"/>
        <pt x="393" y="477" on="0"/>
        <pt x="392" y="518" on="1"/>
        <pt x="391" y="531" on="0"/>
        <pt x="388" y="550" on="0"/>
        <pt x="375" y="581" on="0"/>
        <pt x="355" y="602" on="0"/>
        <pt x="315" y="617" on="0"/>
        <pt x="288" y="617" on="1"/>
        <pt x="183" y="617" on="0"/>
        <pt x="183" y="502" on="1"/>
        <pt x="183" y="223" on="1"/>
        <pt x="183" y="108" on="0"/>
        <pt x="290" y="108" on="1"/>
        <pt x="322" y="108" on="0"/>
        <pt x="365" y="128" on="0"/>
        <pt x="384" y="165" on="0"/>
        <pt x="391" y="194" on="0"/>
        <pt x="392" y="215" on="1"/>
        <pt x="395" y="256" on="0"/>
        <pt x="456" y="256" on="1"/>
        <pt x="491" y="256" on="0"/>
        <pt x="522" y="229" on="0"/>
        <pt x="522" y="192" on="1"/>
        <pt x="522" y="102" on="0"/>
        <pt x="389" y="-6" on="0"/>
        <pt x="283" y="-6" on="1"/>
        <pt x="180" y="-6" on="0"/>
        <pt x="53" y="105" on="0"/>
      </contour>
    </TTGlyph>
    <TTGlyph name="Cacute" xMin="53" yMin="-6" xMax="522" yMax="957">
      <contour>
        <pt x="53" y="223" on="1"/>
        <pt x="53" y="502" on="1"/>
        <pt x="53" y="620" on="0"/>
        <pt x="181" y="731" on="0"/>
        <pt x="284" y="731" on="1"/>
        <pt x="389" y="731" on="0"/>
        <pt x="522" y="627" on="0"/>
        <pt x="522" y="541" on="1"/>
        <pt x="522" y="504" on="0"/>
        <pt x="492" y="477" on="0"/>
        <pt x="457" y="477" on="1"/>
        <pt x="393" y="477" on="0"/>
        <pt x="392" y="518" on="1"/>
        <pt x="391" y="531" on="0"/>
        <pt x="388" y="550" on="0"/>
        <pt x="375" y="581" on="0"/>
        <pt x="355" y="602" on="0"/>
        <pt x="315" y="617" on="0"/>
        <pt x="288" y="617" on="1"/>
        <pt x="183" y="617" on="0"/>
        <pt x="183" y="502" on="1"/>
        <pt x="183" y="223" on="1"/>
        <pt x="183" y="108" on="0"/>
        <pt x="290" y="108" on="1"/>
        <pt x="322" y="108" on="0"/>
        <pt x="365" y="128" on="0"/>
        <pt x="384" y="165" on="0"/>
        <pt x="391" y="194" on="0"/>
        <pt x="392" y="215" on="1"/>
        <pt x="395" y="256" on="0"/>
        <pt x="456" y="256" on="1"/>
        <pt x="491" y="256" on="0"/>
        <pt x="522" y="229" on="0"/>
        <pt x="522" y="192" on="1"/>
        <pt x="522" y="102" on="0"/>
        <pt x="389" y="-6" on="0"/>
        <pt x="283" y="-6" on="1"/>
        <pt x="180" y="-6" on="0"/>
        <pt x="53" y="105" on="0"/>
      </contour>
      <contour>
        <pt x="205" y="860" on="1"/>
        <pt x="205" y="882" on="0"/>
        <pt x="222" y="891" on="1"/>
        <pt x="354" y="955" on="1"/>
        <pt x="364" y="957" on="0"/>
        <pt x="367" y="957" on="1"/>
        <pt x="383" y="957" on="0"/>
        <pt x="407" y="926" on="0"/>
        <pt x="407" y="908" on="1"/>
        <pt x="407" y="886" on="0"/>
        <pt x="389" y="878" on="1"/>
        <pt x="259" y="815" on="1"/>
        <pt x="249" y="811" on="0"/>
        <pt x="245" y="811" on="1"/>
        <pt x="229" y="811" on="0"/>
        <pt x="205" y="843" on="0"/>
      </contour>
    </TTGlyph>
    <TTGlyph name="Ccaron" xMin="53" yMin="-6" xMax="522" yMax="975">
      <contour>
        <pt x="53" y="223" on="1"/>
        <pt x="53" y="502" on="1"/>
        <pt x="53" y="620" on="0"/>
        <pt x="181" y="731" on="0"/>
        <pt x="284" y="731" on="1"/>
        <pt x="389" y="731" on="0"/>
        <pt x="522" y="627" on="0"/>
        <pt x="522" y="541" on="1"/>
        <pt x="522" y="504" on="0"/>
        <pt x="492" y="477" on="0"/>
        <pt x="457" y="477" on="1"/>
        <pt x="393" y="477" on="0"/>
        <pt x="392" y="518" on="1"/>
        <pt x="391" y="531" on="0"/>
        <pt x="388" y="550" on="0"/>
        <pt x="375" y="581" on="0"/>
        <pt x="355" y="602" on="0"/>
        <pt x="315" y="617" on="0"/>
        <pt x="288" y="617" on="1"/>
        <pt x="183" y="617" on="0"/>
        <pt x="183" y="502" on="1"/>
        <pt x="183" y="223" on="1"/>
        <pt x="183" y="108" on="0"/>
        <pt x="290" y="108" on="1"/>
        <pt x="322" y="108" on="0"/>
        <pt x="365" y="128" on="0"/>
        <pt x="384" y="165" on="0"/>
        <pt x="391" y="194" on="0"/>
        <pt x="392" y="215" on="1"/>
        <pt x="395" y="256" on="0"/>
        <pt x="456" y="256" on="1"/>
        <pt x="491" y="256" on="0"/>
        <pt x="522" y="229" on="0"/>
        <pt x="522" y="192" on="1"/>
        <pt x="522" y="102" on="0"/>
        <pt x="389" y="-6" on="0"/>
        <pt x="283" y="-6" on="1"/>
        <pt x="180" y="-6" on="0"/>
        <pt x="53" y="105" on="0"/>
      </contour>
      <contour>
        <pt x="143" y="936" on="1"/>
        <pt x="143" y="951" on="0"/>
        <pt x="159" y="975" on="0"/>
        <pt x="171" y="975" on="1"/>
        <pt x="178" y="975" on="0"/>
        <pt x="183" y="971" on="1"/>
        <pt x="286" y="905" on="1"/>
        <pt x="388" y="971" on="1"/>
        <pt x="395" y="975" on="0"/>
        <pt x="400" y="975" on="1"/>
        <pt x="412" y="975" on="0"/>
        <pt x="428" y="951" on="0"/>
        <pt x="428" y="936" on="1"/>
        <pt x="428" y="911" on="0"/>
        <pt x="407" y="898" on="1"/>
        <pt x="304" y="832" on="1"/>
        <pt x="294" y="826" on="0"/>
        <pt x="286" y="826" on="1"/>
        <pt x="277" y="826" on="0"/>
        <pt x="268" y="832" on="1"/>
        <pt x="165" y="898" on="1"/>
        <pt x="143" y="911" on="0"/>
      </contour>
    </TTGlyph>
    <TTGlyph name="Ccedilla" xMin="53" yMin="-216" xMax="522" yMax="731">
      <contour>
        <pt x="53" y="223" on="1"/>
        <pt x="53" y="502" on="1"/>
        <pt x="53" y="620" on="0"/>
        <pt x="181" y="731" on="0"/>
        <pt x="284" y="731" on="1"/>
        <pt x="389" y="731" on="0"/>
        <pt x="522" y="627" on="0"/>
        <pt x="522" y="541" on="1"/>
        <pt x="522" y="504" on="0"/>
        <pt x="492" y="477" on="0"/>
        <pt x="457" y="477" on="1"/>
        <pt x="393" y="477" on="0"/>
        <pt x="392" y="518" on="1"/>
        <pt x="391" y="531" on="0"/>
        <pt x="388" y="550" on="0"/>
        <pt x="375" y="581" on="0"/>
        <pt x="355" y="602" on="0"/>
        <pt x="315" y="617" on="0"/>
        <pt x="288" y="617" on="1"/>
        <pt x="183" y="617" on="0"/>
        <pt x="183" y="502" on="1"/>
        <pt x="183" y="223" on="1"/>
        <pt x="183" y="108" on="0"/>
        <pt x="290" y="108" on="1"/>
        <pt x="322" y="108" on="0"/>
        <pt x="365" y="128" on="0"/>
        <pt x="384" y="165" on="0"/>
        <pt x="391" y="194" on="0"/>
        <pt x="392" y="215" on="1"/>
        <pt x="395" y="256" on="0"/>
        <pt x="456" y="256" on="1"/>
        <pt x="491" y="256" on="0"/>
        <pt x="522" y="229" on="0"/>
        <pt x="522" y="192" on="1"/>
        <pt x="522" y="110" on="0"/>
        <pt x="411" y="5" on="0"/>
        <pt x="320" y="-4" on="1"/>
        <pt x="305" y="-51" on="1"/>
        <pt x="354" y="-53" on="0"/>
        <pt x="404" y="-96" on="0"/>
        <pt x="404" y="-128" on="1"/>
        <pt x="404" y="-161" on="0"/>
        <pt x="353" y="-216" on="0"/>
        <pt x="299" y="-216" on="1"/>
        <pt x="269" y="-216" on="0"/>
        <pt x="214" y="-201" on="0"/>
        <pt x="214" y="-187" on="1"/>
        <pt x="214" y="-178" on="0"/>
        <pt x="227" y="-150" on="0"/>
        <pt x="237" y="-150" on="1"/>
        <pt x="240" y="-150" on="0"/>
        <pt x="276" y="-164" on="0"/>
        <pt x="295" y="-164" on="1"/>
        <pt x="342" y="-164" on="0"/>
        <pt x="342" y="-98" on="0"/>
        <pt x="294" y="-94" on="1"/>
        <pt x="239" y="-89" on="1"/>
        <pt x="263" y="-5" on="1"/>
        <pt x="168" y="0" on="0"/>
        <pt x="53" y="111" on="0"/>
      </contour>
    </TTGlyph>
    <TTGlyph name="Ccircumflex" xMin="53" yMin="-6" xMax="522" yMax="957">
      <contour>
        <pt x="53" y="223" on="1"/>
        <pt x="53" y="502" on="1"/>
        <pt x="53" y="620" on="0"/>
        <pt x="181" y="731" on="0"/>
        <pt x="284" y="731" on="1"/>
        <pt x="389" y="731" on="0"/>
        <pt x="522" y="627" on="0"/>
        <pt x="522" y="541" on="1"/>
        <pt x="522" y="504" on="0"/>
        <pt x="492" y="477" on="0"/>
        <pt x="457" y="477" on="1"/>
        <pt x="393" y="477" on="0"/>
        <pt x="392" y="518" on="1"/>
        <pt x="391" y="531" on="0"/>
        <pt x="388" y="550" on="0"/>
        <pt x="375" y="581" on="0"/>
        <pt x="355" y="602" on="0"/>
        <pt x="315" y="617" on="0"/>
        <pt x="288" y="617" on="1"/>
        <pt x="183" y="617" on="0"/>
        <pt x="183" y="502" on="1"/>
        <pt x="183" y="223" on="1"/>
        <pt x="183" y="108" on="0"/>
        <pt x="290" y="108" on="1"/>
        <pt x="322" y="108" on="0"/>
        <pt x="365" y="128" on="0"/>
        <pt x="384" y="165" on="0"/>
        <pt x="391" y="194" on="0"/>
        <pt x="392" y="215" on="1"/>
        <pt x="395" y="256" on="0"/>
        <pt x="456" y="256" on="1"/>
        <pt x="491" y="256" on="0"/>
        <pt x="522" y="229" on="0"/>
        <pt x="522" y="192" on="1"/>
        <pt x="522" y="102" on="0"/>
        <pt x="389" y="-6" on="0"/>
        <pt x="283" y="-6" on="1"/>
        <pt x="180" y="-6" on="0"/>
        <pt x="53" y="105" on="0"/>
      </contour>
      <contour>
        <pt x="144" y="859" on="1"/>
        <pt x="144" y="885" on="0"/>
        <pt x="166" y="896" on="1"/>
        <pt x="270" y="952" on="1"/>
        <pt x="278" y="957" on="0"/>
        <pt x="287" y="957" on="1"/>
        <pt x="294" y="957" on="0"/>
        <pt x="304" y="952" on="1"/>
        <pt x="408" y="897" on="1"/>
        <pt x="429" y="884" on="0"/>
        <pt x="429" y="858" on="1"/>
        <pt x="429" y="843" on="0"/>
        <pt x="413" y="819" on="0"/>
        <pt x="401" y="819" on="1"/>
        <pt x="396" y="819" on="0"/>
        <pt x="391" y="822" on="1"/>
        <pt x="287" y="878" on="1"/>
        <pt x="183" y="822" on="1"/>
        <pt x="177" y="819" on="0"/>
        <pt x="172" y="819" on="1"/>
        <pt x="160" y="819" on="0"/>
        <pt x="144" y="843" on="0"/>
      </contour>
    </TTGlyph>
    <TTGlyph name="Cdotaccent" xMin="53" yMin="-6" xMax="522" yMax="925">
      <contour>
        <pt x="53" y="223" on="1"/>
        <pt x="53" y="502" on="1"/>
        <pt x="53" y="620" on="0"/>
        <pt x="181" y="731" on="0"/>
        <pt x="284" y="731" on="1"/>
        <pt x="389" y="731" on="0"/>
        <pt x="522" y="627" on="0"/>
        <pt x="522" y="541" on="1"/>
        <pt x="522" y="504" on="0"/>
        <pt x="492" y="477" on="0"/>
        <pt x="457" y="477" on="1"/>
        <pt x="393" y="477" on="0"/>
        <pt x="392" y="518" on="1"/>
        <pt x="391" y="531" on="0"/>
        <pt x="388" y="550" on="0"/>
        <pt x="375" y="581" on="0"/>
        <pt x="355" y="602" on="0"/>
        <pt x="315" y="617" on="0"/>
        <pt x="288" y="617" on="1"/>
        <pt x="183" y="617" on="0"/>
        <pt x="183" y="502" on="1"/>
        <pt x="183" y="223" on="1"/>
        <pt x="183" y="108" on="0"/>
        <pt x="290" y="108" on="1"/>
        <pt x="322" y="108" on="0"/>
        <pt x="365" y="128" on="0"/>
        <pt x="384" y="165" on="0"/>
        <pt x="391" y="194" on="0"/>
        <pt x="392" y="215" on="1"/>
        <pt x="395" y="256" on="0"/>
        <pt x="456" y="256" on="1"/>
        <pt x="491" y="256" on="0"/>
        <pt x="522" y="229" on="0"/>
        <pt x="522" y="192" on="1"/>
        <pt x="522" y="102" on="0"/>
        <pt x="389" y="-6" on="0"/>
        <pt x="283" y="-6" on="1"/>
        <pt x="180" y="-6" on="0"/>
        <pt x="53" y="105" on="0"/>
      </contour>
      <contour>
        <pt x="238" y="852" on="0"/>
        <pt x="238" y="894" on="0"/>
        <pt x="268" y="925" on="0"/>
        <pt x="310" y="925" on="0"/>
        <pt x="339" y="894" on="0"/>
        <pt x="339" y="852" on="0"/>
        <pt x="310" y="820" on="0"/>
        <pt x="268" y="820" on="0"/>
      </contour>
    </TTGlyph>
    <TTGlyph name="D" xMin="60" yMin="0" xMax="529" yMax="731">
      <contour>
        <pt x="60" y="40" on="1"/>
        <pt x="60" y="691" on="1"/>
        <pt x="60" y="707" on="0"/>
        <pt x="92" y="731" on="0"/>
        <pt x="117" y="731" on="1"/>
        <pt x="294" y="731" on="1"/>
        <pt x="401" y="731" on="0"/>
        <pt x="529" y="621" on="0"/>
        <pt x="529" y="502" on="1"/>
        <pt x="529" y="229" on="1"/>
        <pt x="529" y="110" on="0"/>
        <pt x="401" y="0" on="0"/>
        <pt x="294" y="0" on="1"/>
        <pt x="117" y="0" on="1"/>
        <pt x="92" y="0" on="0"/>
        <pt x="60" y="24" on="0"/>
      </contour>
      <contour>
        <pt x="190" y="114" on="1"/>
        <pt x="294" y="114" on="1"/>
        <pt x="399" y="114" on="0"/>
        <pt x="399" y="229" on="1"/>
        <pt x="399" y="502" on="1"/>
        <pt x="399" y="617" on="0"/>
        <pt x="294" y="617" on="1"/>
        <pt x="190" y="617" on="1"/>
      </contour>
    </TTGlyph>
    <TTGlyph name="Dcaron" xMin="60" yMin="0" xMax="529" yMax="975">
      <contour>
        <pt x="60" y="40" on="1"/>
        <pt x="60" y="691" on="1"/>
        <pt x="60" y="707" on="0"/>
        <pt x="92" y="731" on="0"/>
        <pt x="117" y="731" on="1"/>
        <pt x="294" y="731" on="1"/>
        <pt x="401" y="731" on="0"/>
        <pt x="529" y="621" on="0"/>
        <pt x="529" y="502" on="1"/>
        <pt x="529" y="229" on="1"/>
        <pt x="529" y="110" on="0"/>
        <pt x="401" y="0" on="0"/>
        <pt x="294" y="0" on="1"/>
        <pt x="117" y="0" on="1"/>
        <pt x="92" y="0" on="0"/>
        <pt x="60" y="24" on="0"/>
      </contour>
      <contour>
        <pt x="132" y="936" on="1"/>
        <pt x="132" y="951" on="0"/>
        <pt x="148" y="975" on="0"/>
        <pt x="160" y="975" on="1"/>
        <pt x="167" y="975" on="0"/>
        <pt x="172" y="971" on="1"/>
        <pt x="275" y="905" on="1"/>
        <pt x="377" y="971" on="1"/>
        <pt x="384" y="975" on="0"/>
        <pt x="389" y="975" on="1"/>
        <pt x="401" y="975" on="0"/>
        <pt x="417" y="951" on="0"/>
        <pt x="417" y="936" on="1"/>
        <pt x="417" y="911" on="0"/>
        <pt x="396" y="898" on="1"/>
        <pt x="293" y="832" on="1"/>
        <pt x="282" y="826" on="0"/>
        <pt x="275" y="826" on="1"/>
        <pt x="266" y="826" on="0"/>
        <pt x="257" y="832" on="1"/>
        <pt x="154" y="898" on="1"/>
        <pt x="132" y="911" on="0"/>
      </contour>
      <contour>
        <pt x="190" y="114" on="1"/>
        <pt x="294" y="114" on="1"/>
        <pt x="399" y="114" on="0"/>
        <pt x="399" y="229" on="1"/>
        <pt x="399" y="502" on="1"/>
        <pt x="399" y="617" on="0"/>
        <pt x="294" y="617" on="1"/>
        <pt x="190" y="617" on="1"/>
      </contour>
    </TTGlyph>
    <TTGlyph name="Dcroat" xMin="-7" yMin="0" xMax="536" yMax="731">
      <contour>
        <pt x="-7" y="363" on="0"/>
        <pt x="-7" y="401" on="0"/>
        <pt x="11" y="429" on="0"/>
        <pt x="26" y="429" on="1"/>
        <pt x="67" y="429" on="1"/>
        <pt x="67" y="691" on="1"/>
        <pt x="67" y="707" on="0"/>
        <pt x="99" y="731" on="0"/>
        <pt x="124" y="731" on="1"/>
        <pt x="301" y="731" on="1"/>
        <pt x="408" y="731" on="0"/>
        <pt x="536" y="621" on="0"/>
        <pt x="536" y="502" on="1"/>
        <pt x="536" y="229" on="1"/>
        <pt x="536" y="110" on="0"/>
        <pt x="408" y="0" on="0"/>
        <pt x="301" y="0" on="1"/>
        <pt x="124" y="0" on="1"/>
        <pt x="99" y="0" on="0"/>
        <pt x="67" y="24" on="0"/>
        <pt x="67" y="40" on="1"/>
        <pt x="67" y="336" on="1"/>
        <pt x="26" y="336" on="1"/>
        <pt x="11" y="336" on="0"/>
      </contour>
      <contour>
        <pt x="197" y="114" on="1"/>
        <pt x="301" y="114" on="1"/>
        <pt x="406" y="114" on="0"/>
        <pt x="406" y="229" on="1"/>
        <pt x="406" y="502" on="1"/>
        <pt x="406" y="617" on="0"/>
        <pt x="301" y="617" on="1"/>
        <pt x="197" y="617" on="1"/>
        <pt x="197" y="429" on="1"/>
        <pt x="274" y="429" on="1"/>
        <pt x="290" y="429" on="0"/>
        <pt x="308" y="401" on="0"/>
        <pt x="308" y="363" on="0"/>
        <pt x="290" y="336" on="0"/>
        <pt x="274" y="336" on="1"/>
        <pt x="197" y="336" on="1"/>
      </contour>
    </TTGlyph>
    <TTGlyph name="E" xMin="60" yMin="0" xMax="514" yMax="731">
      <contour>
        <pt x="60" y="41" on="1"/>
        <pt x="60" y="690" on="1"/>
        <pt x="60" y="709" on="0"/>
        <pt x="94" y="731" on="0"/>
        <pt x="117" y="731" on="1"/>
        <pt x="473" y="731" on="1"/>
        <pt x="493" y="731" on="0"/>
        <pt x="514" y="697" on="0"/>
        <pt x="514" y="675" on="1"/>
        <pt x="514" y="651" on="0"/>
        <pt x="492" y="617" on="0"/>
        <pt x="473" y="617" on="1"/>
        <pt x="190" y="617" on="1"/>
        <pt x="190" y="417" on="1"/>
        <pt x="342" y="417" on="1"/>
        <pt x="361" y="417" on="0"/>
        <pt x="383" y="386" on="0"/>
        <pt x="383" y="365" on="1"/>
        <pt x="383" y="346" on="0"/>
        <pt x="362" y="315" on="0"/>
        <pt x="342" y="315" on="1"/>
        <pt x="190" y="315" on="1"/>
        <pt x="190" y="114" on="1"/>
        <pt x="473" y="114" on="1"/>
        <pt x="492" y="114" on="0"/>
        <pt x="514" y="80" on="0"/>
        <pt x="514" y="56" on="1"/>
        <pt x="514" y="34" on="0"/>
        <pt x="493" y="0" on="0"/>
        <pt x="473" y="0" on="1"/>
        <pt x="117" y="0" on="1"/>
        <pt x="94" y="0" on="0"/>
        <pt x="60" y="22" on="0"/>
      </contour>
    </TTGlyph>
    <TTGlyph name="Eacute" xMin="60" yMin="0" xMax="514" yMax="957">
      <contour>
        <pt x="60" y="41" on="1"/>
        <pt x="60" y="690" on="1"/>
        <pt x="60" y="709" on="0"/>
        <pt x="94" y="731" on="0"/>
        <pt x="117" y="731" on="1"/>
        <pt x="473" y="731" on="1"/>
        <pt x="493" y="731" on="0"/>
        <pt x="514" y="697" on="0"/>
        <pt x="514" y="675" on="1"/>
        <pt x="514" y="651" on="0"/>
        <pt x="492" y="617" on="0"/>
        <pt x="473" y="617" on="1"/>
        <pt x="190" y="617" on="1"/>
        <pt x="190" y="417" on="1"/>
        <pt x="342" y="417" on="1"/>
        <pt x="361" y="417" on="0"/>
        <pt x="383" y="386" on="0"/>
        <pt x="383" y="365" on="1"/>
        <pt x="383" y="346" on="0"/>
        <pt x="362" y="315" on="0"/>
        <pt x="342" y="315" on="1"/>
        <pt x="190" y="315" on="1"/>
        <pt x="190" y="114" on="1"/>
        <pt x="473" y="114" on="1"/>
        <pt x="492" y="114" on="0"/>
        <pt x="514" y="80" on="0"/>
        <pt x="514" y="56" on="1"/>
        <pt x="514" y="34" on="0"/>
        <pt x="493" y="0" on="0"/>
        <pt x="473" y="0" on="1"/>
        <pt x="117" y="0" on="1"/>
        <pt x="94" y="0" on="0"/>
        <pt x="60" y="22" on="0"/>
      </contour>
      <contour>
        <pt x="205" y="860" on="1"/>
        <pt x="205" y="882" on="0"/>
        <pt x="222" y="891" on="1"/>
        <pt x="354" y="955" on="1"/>
        <pt x="364" y="957" on="0"/>
        <pt x="367" y="957" on="1"/>
        <pt x="383" y="957" on="0"/>
        <pt x="407" y="926" on="0"/>
        <pt x="407" y="908" on="1"/>
        <pt x="407" y="886" on="0"/>
        <pt x="389" y="878" on="1"/>
        <pt x="259" y="815" on="1"/>
        <pt x="249" y="811" on="0"/>
        <pt x="245" y="811" on="1"/>
        <pt x="229" y="811" on="0"/>
        <pt x="205" y="843" on="0"/>
      </contour>
    </TTGlyph>
    <TTGlyph name="Ebreve" xMin="60" yMin="0" xMax="514" yMax="964">
      <contour>
        <pt x="60" y="41" on="1"/>
        <pt x="60" y="690" on="1"/>
        <pt x="60" y="709" on="0"/>
        <pt x="94" y="731" on="0"/>
        <pt x="117" y="731" on="1"/>
        <pt x="473" y="731" on="1"/>
        <pt x="493" y="731" on="0"/>
        <pt x="514" y="697" on="0"/>
        <pt x="514" y="675" on="1"/>
        <pt x="514" y="651" on="0"/>
        <pt x="492" y="617" on="0"/>
        <pt x="473" y="617" on="1"/>
        <pt x="190" y="617" on="1"/>
        <pt x="190" y="417" on="1"/>
        <pt x="342" y="417" on="1"/>
        <pt x="361" y="417" on="0"/>
        <pt x="383" y="386" on="0"/>
        <pt x="383" y="365" on="1"/>
        <pt x="383" y="346" on="0"/>
        <pt x="362" y="315" on="0"/>
        <pt x="342" y="315" on="1"/>
        <pt x="190" y="315" on="1"/>
        <pt x="190" y="114" on="1"/>
        <pt x="473" y="114" on="1"/>
        <pt x="492" y="114" on="0"/>
        <pt x="514" y="80" on="0"/>
        <pt x="514" y="56" on="1"/>
        <pt x="514" y="34" on="0"/>
        <pt x="493" y="0" on="0"/>
        <pt x="473" y="0" on="1"/>
        <pt x="117" y="0" on="1"/>
        <pt x="94" y="0" on="0"/>
        <pt x="60" y="22" on="0"/>
      </contour>
      <contour>
        <pt x="153" y="964" on="1"/>
        <pt x="223" y="964" on="1"/>
        <pt x="223" y="932" on="0"/>
        <pt x="261" y="889" on="0"/>
        <pt x="286" y="889" on="1"/>
        <pt x="310" y="889" on="0"/>
        <pt x="349" y="932" on="0"/>
        <pt x="349" y="964" on="1"/>
        <pt x="419" y="964" on="1"/>
        <pt x="419" y="911" on="0"/>
        <pt x="338" y="831" on="0"/>
        <pt x="234" y="831" on="0"/>
        <pt x="153" y="911" on="0"/>
      </contour>
    </TTGlyph>
    <TTGlyph name="Ecaron" xMin="60" yMin="0" xMax="514" yMax="975">
      <contour>
        <pt x="60" y="41" on="1"/>
        <pt x="60" y="690" on="1"/>
        <pt x="60" y="709" on="0"/>
        <pt x="94" y="731" on="0"/>
        <pt x="117" y="731" on="1"/>
        <pt x="473" y="731" on="1"/>
        <pt x="493" y="731" on="0"/>
        <pt x="514" y="697" on="0"/>
        <pt x="514" y="675" on="1"/>
        <pt x="514" y="651" on="0"/>
        <pt x="492" y="617" on="0"/>
        <pt x="473" y="617" on="1"/>
        <pt x="190" y="617" on="1"/>
        <pt x="190" y="417" on="1"/>
        <pt x="342" y="417" on="1"/>
        <pt x="361" y="417" on="0"/>
        <pt x="383" y="386" on="0"/>
        <pt x="383" y="365" on="1"/>
        <pt x="383" y="346" on="0"/>
        <pt x="362" y="315" on="0"/>
        <pt x="342" y="315" on="1"/>
        <pt x="190" y="315" on="1"/>
        <pt x="190" y="114" on="1"/>
        <pt x="473" y="114" on="1"/>
        <pt x="492" y="114" on="0"/>
        <pt x="514" y="80" on="0"/>
        <pt x="514" y="56" on="1"/>
        <pt x="514" y="34" on="0"/>
        <pt x="493" y="0" on="0"/>
        <pt x="473" y="0" on="1"/>
        <pt x="117" y="0" on="1"/>
        <pt x="94" y="0" on="0"/>
        <pt x="60" y="22" on="0"/>
      </contour>
      <contour>
        <pt x="143" y="936" on="1"/>
        <pt x="143" y="951" on="0"/>
        <pt x="159" y="975" on="0"/>
        <pt x="171" y="975" on="1"/>
        <pt x="178" y="975" on="0"/>
        <pt x="183" y="971" on="1"/>
        <pt x="286" y="905" on="1"/>
        <pt x="388" y="971" on="1"/>
        <pt x="395" y="975" on="0"/>
        <pt x="400" y="975" on="1"/>
        <pt x="412" y="975" on="0"/>
        <pt x="428" y="951" on="0"/>
        <pt x="428" y="936" on="1"/>
        <pt x="428" y="911" on="0"/>
        <pt x="407" y="898" on="1"/>
        <pt x="304" y="832" on="1"/>
        <pt x="294" y="826" on="0"/>
        <pt x="286" y="826" on="1"/>
        <pt x="277" y="826" on="0"/>
        <pt x="268" y="832" on="1"/>
        <pt x="165" y="898" on="1"/>
        <pt x="143" y="911" on="0"/>
      </contour>
    </TTGlyph>
    <TTGlyph name="Ecircumflex" xMin="60" yMin="0" xMax="514" yMax="957">
      <contour>
        <pt x="60" y="41" on="1"/>
        <pt x="60" y="690" on="1"/>
        <pt x="60" y="709" on="0"/>
        <pt x="94" y="731" on="0"/>
        <pt x="117" y="731" on="1"/>
        <pt x="473" y="731" on="1"/>
        <pt x="493" y="731" on="0"/>
        <pt x="514" y="697" on="0"/>
        <pt x="514" y="675" on="1"/>
        <pt x="514" y="651" on="0"/>
        <pt x="492" y="617" on="0"/>
        <pt x="473" y="617" on="1"/>
        <pt x="190" y="617" on="1"/>
        <pt x="190" y="417" on="1"/>
        <pt x="342" y="417" on="1"/>
        <pt x="361" y="417" on="0"/>
        <pt x="383" y="386" on="0"/>
        <pt x="383" y="365" on="1"/>
        <pt x="383" y="346" on="0"/>
        <pt x="362" y="315" on="0"/>
        <pt x="342" y="315" on="1"/>
        <pt x="190" y="315" on="1"/>
        <pt x="190" y="114" on="1"/>
        <pt x="473" y="114" on="1"/>
        <pt x="492" y="114" on="0"/>
        <pt x="514" y="80" on="0"/>
        <pt x="514" y="56" on="1"/>
        <pt x="514" y="34" on="0"/>
        <pt x="493" y="0" on="0"/>
        <pt x="473" y="0" on="1"/>
        <pt x="117" y="0" on="1"/>
        <pt x="94" y="0" on="0"/>
        <pt x="60" y="22" on="0"/>
      </contour>
      <contour>
        <pt x="152" y="859" on="1"/>
        <pt x="152" y="885" on="0"/>
        <pt x="174" y="896" on="1"/>
        <pt x="278" y="952" on="1"/>
        <pt x="286" y="957" on="0"/>
        <pt x="295" y="957" on="1"/>
        <pt x="302" y="957" on="0"/>
        <pt x="312" y="952" on="1"/>
        <pt x="416" y="897" on="1"/>
        <pt x="437" y="884" on="0"/>
        <pt x="437" y="858" on="1"/>
        <pt x="437" y="843" on="0"/>
        <pt x="421" y="819" on="0"/>
        <pt x="409" y="819" on="1"/>
        <pt x="404" y="819" on="0"/>
        <pt x="399" y="822" on="1"/>
        <pt x="295" y="878" on="1"/>
        <pt x="191" y="822" on="1"/>
        <pt x="185" y="819" on="0"/>
        <pt x="180" y="819" on="1"/>
        <pt x="168" y="819" on="0"/>
        <pt x="152" y="843" on="0"/>
      </contour>
    </TTGlyph>
    <TTGlyph name="Edieresis" xMin="60" yMin="0" xMax="514" yMax="925">
      <contour>
        <pt x="60" y="41" on="1"/>
        <pt x="60" y="690" on="1"/>
        <pt x="60" y="709" on="0"/>
        <pt x="94" y="731" on="0"/>
        <pt x="117" y="731" on="1"/>
        <pt x="473" y="731" on="1"/>
        <pt x="493" y="731" on="0"/>
        <pt x="514" y="697" on="0"/>
        <pt x="514" y="675" on="1"/>
        <pt x="514" y="651" on="0"/>
        <pt x="492" y="617" on="0"/>
        <pt x="473" y="617" on="1"/>
        <pt x="190" y="617" on="1"/>
        <pt x="190" y="417" on="1"/>
        <pt x="342" y="417" on="1"/>
        <pt x="361" y="417" on="0"/>
        <pt x="383" y="386" on="0"/>
        <pt x="383" y="365" on="1"/>
        <pt x="383" y="346" on="0"/>
        <pt x="362" y="315" on="0"/>
        <pt x="342" y="315" on="1"/>
        <pt x="190" y="315" on="1"/>
        <pt x="190" y="114" on="1"/>
        <pt x="473" y="114" on="1"/>
        <pt x="492" y="114" on="0"/>
        <pt x="514" y="80" on="0"/>
        <pt x="514" y="56" on="1"/>
        <pt x="514" y="34" on="0"/>
        <pt x="493" y="0" on="0"/>
        <pt x="473" y="0" on="1"/>
        <pt x="117" y="0" on="1"/>
        <pt x="94" y="0" on="0"/>
        <pt x="60" y="22" on="0"/>
      </contour>
      <contour>
        <pt x="164" y="852" on="0"/>
        <pt x="164" y="894" on="0"/>
        <pt x="194" y="925" on="0"/>
        <pt x="236" y="925" on="0"/>
        <pt x="265" y="894" on="0"/>
        <pt x="265" y="852" on="0"/>
        <pt x="236" y="820" on="0"/>
        <pt x="194" y="820" on="0"/>
      </contour>
      <contour>
        <pt x="313" y="852" on="0"/>
        <pt x="313" y="894" on="0"/>
        <pt x="343" y="925" on="0"/>
        <pt x="365" y="925" on="1"/>
        <pt x="385" y="925" on="0"/>
        <pt x="415" y="894" on="0"/>
        <pt x="415" y="852" on="0"/>
        <pt x="385" y="820" on="0"/>
        <pt x="365" y="820" on="1"/>
        <pt x="344" y="820" on="0"/>
      </contour>
    </TTGlyph>
    <TTGlyph name="Edotaccent" xMin="60" yMin="0" xMax="514" yMax="925">
      <contour>
        <pt x="60" y="41" on="1"/>
        <pt x="60" y="690" on="1"/>
        <pt x="60" y="709" on="0"/>
        <pt x="94" y="731" on="0"/>
        <pt x="117" y="731" on="1"/>
        <pt x="473" y="731" on="1"/>
        <pt x="493" y="731" on="0"/>
        <pt x="514" y="697" on="0"/>
        <pt x="514" y="675" on="1"/>
        <pt x="514" y="651" on="0"/>
        <pt x="492" y="617" on="0"/>
        <pt x="473" y="617" on="1"/>
        <pt x="190" y="617" on="1"/>
        <pt x="190" y="417" on="1"/>
        <pt x="342" y="417" on="1"/>
        <pt x="361" y="417" on="0"/>
        <pt x="383" y="386" on="0"/>
        <pt x="383" y="365" on="1"/>
        <pt x="383" y="346" on="0"/>
        <pt x="362" y="315" on="0"/>
        <pt x="342" y="315" on="1"/>
        <pt x="190" y="315" on="1"/>
        <pt x="190" y="114" on="1"/>
        <pt x="473" y="114" on="1"/>
        <pt x="492" y="114" on="0"/>
        <pt x="514" y="80" on="0"/>
        <pt x="514" y="56" on="1"/>
        <pt x="514" y="34" on="0"/>
        <pt x="493" y="0" on="0"/>
        <pt x="473" y="0" on="1"/>
        <pt x="117" y="0" on="1"/>
        <pt x="94" y="0" on="0"/>
        <pt x="60" y="22" on="0"/>
      </contour>
      <contour>
        <pt x="247" y="852" on="0"/>
        <pt x="247" y="894" on="0"/>
        <pt x="277" y="925" on="0"/>
        <pt x="319" y="925" on="0"/>
        <pt x="348" y="894" on="0"/>
        <pt x="348" y="852" on="0"/>
        <pt x="319" y="820" on="0"/>
        <pt x="277" y="820" on="0"/>
      </contour>
    </TTGlyph>
    <TTGlyph name="Egrave" xMin="60" yMin="0" xMax="514" yMax="957">
      <contour>
        <pt x="60" y="41" on="1"/>
        <pt x="60" y="690" on="1"/>
        <pt x="60" y="709" on="0"/>
        <pt x="94" y="731" on="0"/>
        <pt x="117" y="731" on="1"/>
        <pt x="473" y="731" on="1"/>
        <pt x="493" y="731" on="0"/>
        <pt x="514" y="697" on="0"/>
        <pt x="514" y="675" on="1"/>
        <pt x="514" y="651" on="0"/>
        <pt x="492" y="617" on="0"/>
        <pt x="473" y="617" on="1"/>
        <pt x="190" y="617" on="1"/>
        <pt x="190" y="417" on="1"/>
        <pt x="342" y="417" on="1"/>
        <pt x="361" y="417" on="0"/>
        <pt x="383" y="386" on="0"/>
        <pt x="383" y="365" on="1"/>
        <pt x="383" y="346" on="0"/>
        <pt x="362" y="315" on="0"/>
        <pt x="342" y="315" on="1"/>
        <pt x="190" y="315" on="1"/>
        <pt x="190" y="114" on="1"/>
        <pt x="473" y="114" on="1"/>
        <pt x="492" y="114" on="0"/>
        <pt x="514" y="80" on="0"/>
        <pt x="514" y="56" on="1"/>
        <pt x="514" y="34" on="0"/>
        <pt x="493" y="0" on="0"/>
        <pt x="473" y="0" on="1"/>
        <pt x="117" y="0" on="1"/>
        <pt x="94" y="0" on="0"/>
        <pt x="60" y="22" on="0"/>
      </contour>
      <contour>
        <pt x="181" y="908" on="1"/>
        <pt x="181" y="926" on="0"/>
        <pt x="205" y="957" on="0"/>
        <pt x="221" y="957" on="1"/>
        <pt x="224" y="957" on="0"/>
        <pt x="234" y="955" on="1"/>
        <pt x="366" y="891" on="1"/>
        <pt x="383" y="882" on="0"/>
        <pt x="383" y="860" on="1"/>
        <pt x="383" y="843" on="0"/>
        <pt x="359" y="811" on="0"/>
        <pt x="343" y="811" on="1"/>
        <pt x="339" y="811" on="0"/>
        <pt x="329" y="815" on="1"/>
        <pt x="199" y="878" on="1"/>
        <pt x="181" y="886" on="0"/>
      </contour>
    </TTGlyph>
    <TTGlyph name="Emacron" xMin="60" yMin="0" xMax="514" yMax="938">
      <contour>
        <pt x="60" y="41" on="1"/>
        <pt x="60" y="690" on="1"/>
        <pt x="60" y="709" on="0"/>
        <pt x="94" y="731" on="0"/>
        <pt x="117" y="731" on="1"/>
        <pt x="473" y="731" on="1"/>
        <pt x="493" y="731" on="0"/>
        <pt x="514" y="697" on="0"/>
        <pt x="514" y="675" on="1"/>
        <pt x="514" y="651" on="0"/>
        <pt x="492" y="617" on="0"/>
        <pt x="473" y="617" on="1"/>
        <pt x="190" y="617" on="1"/>
        <pt x="190" y="417" on="1"/>
        <pt x="342" y="417" on="1"/>
        <pt x="361" y="417" on="0"/>
        <pt x="383" y="386" on="0"/>
        <pt x="383" y="365" on="1"/>
        <pt x="383" y="346" on="0"/>
        <pt x="362" y="315" on="0"/>
        <pt x="342" y="315" on="1"/>
        <pt x="190" y="315" on="1"/>
        <pt x="190" y="114" on="1"/>
        <pt x="473" y="114" on="1"/>
        <pt x="492" y="114" on="0"/>
        <pt x="514" y="80" on="0"/>
        <pt x="514" y="56" on="1"/>
        <pt x="514" y="34" on="0"/>
        <pt x="493" y="0" on="0"/>
        <pt x="473" y="0" on="1"/>
        <pt x="117" y="0" on="1"/>
        <pt x="94" y="0" on="0"/>
        <pt x="60" y="22" on="0"/>
      </contour>
      <contour>
        <pt x="147" y="895" on="1"/>
        <pt x="147" y="913" on="0"/>
        <pt x="169" y="938" on="0"/>
        <pt x="187" y="938" on="1"/>
        <pt x="392" y="938" on="1"/>
        <pt x="408" y="938" on="0"/>
        <pt x="433" y="913" on="0"/>
        <pt x="433" y="877" on="0"/>
        <pt x="408" y="853" on="0"/>
        <pt x="392" y="853" on="1"/>
        <pt x="187" y="853" on="1"/>
        <pt x="169" y="853" on="0"/>
        <pt x="147" y="876" on="0"/>
      </contour>
    </TTGlyph>
    <TTGlyph name="Eng" xMin="60" yMin="-221" xMax="545" yMax="731">
      <contour>
        <pt x="60" y="41" on="1"/>
        <pt x="60" y="690" on="1"/>
        <pt x="60" y="710" on="0"/>
        <pt x="98" y="731" on="0"/>
        <pt x="125" y="731" on="1"/>
        <pt x="161" y="731" on="0"/>
        <pt x="199" y="705" on="0"/>
        <pt x="222" y="662" on="1"/>
        <pt x="415" y="289" on="1"/>
        <pt x="415" y="691" on="1"/>
        <pt x="415" y="711" on="0"/>
        <pt x="453" y="731" on="0"/>
        <pt x="507" y="731" on="0"/>
        <pt x="545" y="711" on="0"/>
        <pt x="545" y="691" on="1"/>
        <pt x="545" y="-32" on="1"/>
        <pt x="545" y="-118" on="0"/>
        <pt x="467" y="-221" on="0"/>
        <pt x="394" y="-221" on="1"/>
        <pt x="327" y="-221" on="0"/>
        <pt x="327" y="-168" on="1"/>
        <pt x="327" y="-143" on="0"/>
        <pt x="355" y="-112" on="0"/>
        <pt x="376" y="-112" on="1"/>
        <pt x="399" y="-112" on="0"/>
        <pt x="415" y="-72" on="0"/>
        <pt x="415" y="-32" on="1"/>
        <pt x="415" y="6" on="1"/>
        <pt x="415" y="22" on="0"/>
        <pt x="405" y="41" on="1"/>
        <pt x="190" y="443" on="1"/>
        <pt x="190" y="41" on="1"/>
        <pt x="190" y="22" on="0"/>
        <pt x="151" y="0" on="0"/>
        <pt x="125" y="0" on="1"/>
        <pt x="98" y="0" on="0"/>
        <pt x="60" y="22" on="0"/>
      </contour>
    </TTGlyph>
    <TTGlyph name="Eogonek" xMin="60" yMin="-213" xMax="514" yMax="731">
      <contour>
        <pt x="60" y="41" on="1"/>
        <pt x="60" y="690" on="1"/>
        <pt x="60" y="709" on="0"/>
        <pt x="94" y="731" on="0"/>
        <pt x="117" y="731" on="1"/>
        <pt x="473" y="731" on="1"/>
        <pt x="493" y="731" on="0"/>
        <pt x="514" y="697" on="0"/>
        <pt x="514" y="675" on="1"/>
        <pt x="514" y="651" on="0"/>
        <pt x="492" y="617" on="0"/>
        <pt x="473" y="617" on="1"/>
        <pt x="190" y="617" on="1"/>
        <pt x="190" y="417" on="1"/>
        <pt x="342" y="417" on="1"/>
        <pt x="361" y="417" on="0"/>
        <pt x="383" y="386" on="0"/>
        <pt x="383" y="365" on="1"/>
        <pt x="383" y="346" on="0"/>
        <pt x="362" y="315" on="0"/>
        <pt x="342" y="315" on="1"/>
        <pt x="190" y="315" on="1"/>
        <pt x="190" y="114" on="1"/>
        <pt x="473" y="114" on="1"/>
        <pt x="492" y="114" on="0"/>
        <pt x="514" y="80" on="0"/>
        <pt x="514" y="56" on="1"/>
        <pt x="514" y="15" on="0"/>
        <pt x="487" y="3" on="1"/>
        <pt x="456" y="-18" on="0"/>
        <pt x="416" y="-81" on="0"/>
        <pt x="416" y="-111" on="1"/>
        <pt x="416" y="-158" on="0"/>
        <pt x="476" y="-158" on="1"/>
        <pt x="499" y="-158" on="0"/>
        <pt x="499" y="-187" on="1"/>
        <pt x="499" y="-213" on="0"/>
        <pt x="470" y="-213" on="1"/>
        <pt x="414" y="-213" on="0"/>
        <pt x="353" y="-164" on="0"/>
        <pt x="353" y="-123" on="1"/>
        <pt x="353" y="-55" on="0"/>
        <pt x="413" y="0" on="1"/>
        <pt x="117" y="0" on="1"/>
        <pt x="94" y="0" on="0"/>
        <pt x="60" y="22" on="0"/>
      </contour>
    </TTGlyph>
    <TTGlyph name="Eth" xMin="-7" yMin="0" xMax="536" yMax="731">
      <contour>
        <pt x="-7" y="363" on="0"/>
        <pt x="-7" y="401" on="0"/>
        <pt x="11" y="429" on="0"/>
        <pt x="26" y="429" on="1"/>
        <pt x="67" y="429" on="1"/>
        <pt x="67" y="691" on="1"/>
        <pt x="67" y="707" on="0"/>
        <pt x="99" y="731" on="0"/>
        <pt x="124" y="731" on="1"/>
        <pt x="301" y="731" on="1"/>
        <pt x="408" y="731" on="0"/>
        <pt x="536" y="621" on="0"/>
        <pt x="536" y="502" on="1"/>
        <pt x="536" y="229" on="1"/>
        <pt x="536" y="110" on="0"/>
        <pt x="408" y="0" on="0"/>
        <pt x="301" y="0" on="1"/>
        <pt x="124" y="0" on="1"/>
        <pt x="99" y="0" on="0"/>
        <pt x="67" y="24" on="0"/>
        <pt x="67" y="40" on="1"/>
        <pt x="67" y="336" on="1"/>
        <pt x="26" y="336" on="1"/>
        <pt x="11" y="336" on="0"/>
      </contour>
      <contour>
        <pt x="197" y="114" on="1"/>
        <pt x="301" y="114" on="1"/>
        <pt x="406" y="114" on="0"/>
        <pt x="406" y="229" on="1"/>
        <pt x="406" y="502" on="1"/>
        <pt x="406" y="617" on="0"/>
        <pt x="301" y="617" on="1"/>
        <pt x="197" y="617" on="1"/>
        <pt x="197" y="429" on="1"/>
        <pt x="274" y="429" on="1"/>
        <pt x="290" y="429" on="0"/>
        <pt x="308" y="401" on="0"/>
        <pt x="308" y="363" on="0"/>
        <pt x="290" y="336" on="0"/>
        <pt x="274" y="336" on="1"/>
        <pt x="197" y="336" on="1"/>
      </contour>
    </TTGlyph>
    <TTGlyph name="Euro" xMin="24" yMin="-6" xMax="580" yMax="731">
      <contour>
        <pt x="24" y="251" on="0"/>
        <pt x="24" y="291" on="0"/>
        <pt x="47" y="318" on="0"/>
        <pt x="65" y="318" on="1"/>
        <pt x="111" y="318" on="1"/>
        <pt x="111" y="388" on="1"/>
        <pt x="65" y="388" on="1"/>
        <pt x="47" y="388" on="0"/>
        <pt x="24" y="413" on="0"/>
        <pt x="24" y="453" on="0"/>
        <pt x="47" y="480" on="0"/>
        <pt x="65" y="480" on="1"/>
        <pt x="111" y="480" on="1"/>
        <pt x="111" y="502" on="1"/>
        <pt x="111" y="620" on="0"/>
        <pt x="238" y="731" on="0"/>
        <pt x="342" y="731" on="1"/>
        <pt x="447" y="731" on="0"/>
        <pt x="580" y="627" on="0"/>
        <pt x="580" y="539" on="1"/>
        <pt x="580" y="504" on="0"/>
        <pt x="550" y="480" on="0"/>
        <pt x="515" y="480" on="1"/>
        <pt x="450" y="480" on="0"/>
        <pt x="450" y="556" on="0"/>
        <pt x="404" y="617" on="0"/>
        <pt x="347" y="617" on="1"/>
        <pt x="241" y="617" on="0"/>
        <pt x="241" y="502" on="1"/>
        <pt x="241" y="480" on="1"/>
        <pt x="335" y="480" on="1"/>
        <pt x="351" y="480" on="0"/>
        <pt x="377" y="452" on="0"/>
        <pt x="377" y="414" on="0"/>
        <pt x="351" y="388" on="0"/>
        <pt x="335" y="388" on="1"/>
        <pt x="241" y="388" on="1"/>
        <pt x="241" y="318" on="1"/>
        <pt x="335" y="318" on="1"/>
        <pt x="351" y="318" on="0"/>
        <pt x="377" y="290" on="0"/>
        <pt x="377" y="272" on="1"/>
        <pt x="377" y="252" on="0"/>
        <pt x="351" y="226" on="0"/>
        <pt x="335" y="226" on="1"/>
        <pt x="241" y="226" on="1"/>
        <pt x="241" y="209" on="1"/>
        <pt x="241" y="173" on="0"/>
        <pt x="289" y="108" on="0"/>
        <pt x="348" y="108" on="1"/>
        <pt x="403" y="108" on="0"/>
        <pt x="450" y="170" on="0"/>
        <pt x="450" y="215" on="1"/>
        <pt x="450" y="236" on="0"/>
        <pt x="481" y="253" on="0"/>
        <pt x="515" y="253" on="1"/>
        <pt x="551" y="253" on="0"/>
        <pt x="580" y="228" on="0"/>
        <pt x="580" y="193" on="1"/>
        <pt x="580" y="102" on="0"/>
        <pt x="447" y="-6" on="0"/>
        <pt x="342" y="-6" on="1"/>
        <pt x="233" y="-6" on="0"/>
        <pt x="111" y="111" on="0"/>
        <pt x="111" y="209" on="1"/>
        <pt x="111" y="226" on="1"/>
        <pt x="65" y="226" on="1"/>
        <pt x="47" y="226" on="0"/>
      </contour>
    </TTGlyph>
    <TTGlyph name="F" xMin="60" yMin="0" xMax="506" yMax="731">
      <contour>
        <pt x="60" y="41" on="1"/>
        <pt x="60" y="690" on="1"/>
        <pt x="60" y="709" on="0"/>
        <pt x="94" y="731" on="0"/>
        <pt x="117" y="731" on="1"/>
        <pt x="466" y="731" on="1"/>
        <pt x="486" y="731" on="0"/>
        <pt x="506" y="698" on="0"/>
        <pt x="506" y="675" on="1"/>
        <pt x="506" y="651" on="0"/>
        <pt x="485" y="617" on="0"/>
        <pt x="466" y="617" on="1"/>
        <pt x="190" y="617" on="1"/>
        <pt x="190" y="417" on="1"/>
        <pt x="343" y="417" on="1"/>
        <pt x="362" y="417" on="0"/>
        <pt x="383" y="387" on="0"/>
        <pt x="383" y="365" on="1"/>
        <pt x="383" y="345" on="0"/>
        <pt x="362" y="315" on="0"/>
        <pt x="343" y="315" on="1"/>
        <pt x="190" y="315" on="1"/>
        <pt x="190" y="41" on="1"/>
        <pt x="190" y="22" on="0"/>
        <pt x="151" y="0" on="0"/>
        <pt x="125" y="0" on="1"/>
        <pt x="98" y="0" on="0"/>
        <pt x="60" y="22" on="0"/>
      </contour>
    </TTGlyph>
    <TTGlyph name="G" xMin="52" yMin="-6" xMax="521" yMax="731">
      <contour>
        <pt x="52" y="223" on="1"/>
        <pt x="52" y="502" on="1"/>
        <pt x="52" y="620" on="0"/>
        <pt x="179" y="731" on="0"/>
        <pt x="282" y="731" on="1"/>
        <pt x="388" y="731" on="0"/>
        <pt x="521" y="627" on="0"/>
        <pt x="521" y="539" on="1"/>
        <pt x="521" y="503" on="0"/>
        <pt x="490" y="477" on="0"/>
        <pt x="456" y="477" on="1"/>
        <pt x="392" y="477" on="0"/>
        <pt x="391" y="518" on="1"/>
        <pt x="388" y="562" on="0"/>
        <pt x="344" y="617" on="0"/>
        <pt x="287" y="617" on="1"/>
        <pt x="182" y="617" on="0"/>
        <pt x="182" y="502" on="1"/>
        <pt x="182" y="223" on="1"/>
        <pt x="182" y="108" on="0"/>
        <pt x="286" y="108" on="1"/>
        <pt x="336" y="108" on="0"/>
        <pt x="391" y="166" on="0"/>
        <pt x="391" y="223" on="1"/>
        <pt x="391" y="282" on="1"/>
        <pt x="310" y="282" on="1"/>
        <pt x="291" y="282" on="0"/>
        <pt x="270" y="312" on="0"/>
        <pt x="270" y="333" on="1"/>
        <pt x="270" y="353" on="0"/>
        <pt x="292" y="384" on="0"/>
        <pt x="310" y="384" on="1"/>
        <pt x="480" y="384" on="1"/>
        <pt x="499" y="384" on="0"/>
        <pt x="521" y="359" on="0"/>
        <pt x="521" y="342" on="1"/>
        <pt x="521" y="223" on="1"/>
        <pt x="521" y="104" on="0"/>
        <pt x="393" y="-6" on="0"/>
        <pt x="179" y="-6" on="0"/>
        <pt x="52" y="104" on="0"/>
      </contour>
    </TTGlyph>
    <TTGlyph name="Gbreve" xMin="52" yMin="-6" xMax="521" yMax="964">
      <contour>
        <pt x="52" y="223" on="1"/>
        <pt x="52" y="502" on="1"/>
        <pt x="52" y="620" on="0"/>
        <pt x="179" y="731" on="0"/>
        <pt x="282" y="731" on="1"/>
        <pt x="388" y="731" on="0"/>
        <pt x="521" y="627" on="0"/>
        <pt x="521" y="539" on="1"/>
        <pt x="521" y="503" on="0"/>
        <pt x="490" y="477" on="0"/>
        <pt x="456" y="477" on="1"/>
        <pt x="392" y="477" on="0"/>
        <pt x="391" y="518" on="1"/>
        <pt x="388" y="562" on="0"/>
        <pt x="344" y="617" on="0"/>
        <pt x="287" y="617" on="1"/>
        <pt x="182" y="617" on="0"/>
        <pt x="182" y="502" on="1"/>
        <pt x="182" y="223" on="1"/>
        <pt x="182" y="108" on="0"/>
        <pt x="286" y="108" on="1"/>
        <pt x="336" y="108" on="0"/>
        <pt x="391" y="166" on="0"/>
        <pt x="391" y="223" on="1"/>
        <pt x="391" y="282" on="1"/>
        <pt x="310" y="282" on="1"/>
        <pt x="291" y="282" on="0"/>
        <pt x="270" y="312" on="0"/>
        <pt x="270" y="333" on="1"/>
        <pt x="270" y="353" on="0"/>
        <pt x="292" y="384" on="0"/>
        <pt x="310" y="384" on="1"/>
        <pt x="480" y="384" on="1"/>
        <pt x="499" y="384" on="0"/>
        <pt x="521" y="359" on="0"/>
        <pt x="521" y="342" on="1"/>
        <pt x="521" y="223" on="1"/>
        <pt x="521" y="104" on="0"/>
        <pt x="393" y="-6" on="0"/>
        <pt x="179" y="-6" on="0"/>
        <pt x="52" y="104" on="0"/>
      </contour>
      <contour>
        <pt x="152" y="964" on="1"/>
        <pt x="222" y="964" on="1"/>
        <pt x="222" y="932" on="0"/>
        <pt x="260" y="889" on="0"/>
        <pt x="285" y="889" on="1"/>
        <pt x="309" y="889" on="0"/>
        <pt x="348" y="932" on="0"/>
        <pt x="348" y="964" on="1"/>
        <pt x="418" y="964" on="1"/>
        <pt x="418" y="911" on="0"/>
        <pt x="337" y="831" on="0"/>
        <pt x="233" y="831" on="0"/>
        <pt x="152" y="911" on="0"/>
      </contour>
    </TTGlyph>
    <TTGlyph name="Gcircumflex" xMin="52" yMin="-6" xMax="521" yMax="957">
      <contour>
        <pt x="52" y="223" on="1"/>
        <pt x="52" y="502" on="1"/>
        <pt x="52" y="620" on="0"/>
        <pt x="179" y="731" on="0"/>
        <pt x="282" y="731" on="1"/>
        <pt x="388" y="731" on="0"/>
        <pt x="521" y="627" on="0"/>
        <pt x="521" y="539" on="1"/>
        <pt x="521" y="503" on="0"/>
        <pt x="490" y="477" on="0"/>
        <pt x="456" y="477" on="1"/>
        <pt x="392" y="477" on="0"/>
        <pt x="391" y="518" on="1"/>
        <pt x="388" y="562" on="0"/>
        <pt x="344" y="617" on="0"/>
        <pt x="287" y="617" on="1"/>
        <pt x="182" y="617" on="0"/>
        <pt x="182" y="502" on="1"/>
        <pt x="182" y="223" on="1"/>
        <pt x="182" y="108" on="0"/>
        <pt x="286" y="108" on="1"/>
        <pt x="336" y="108" on="0"/>
        <pt x="391" y="166" on="0"/>
        <pt x="391" y="223" on="1"/>
        <pt x="391" y="282" on="1"/>
        <pt x="310" y="282" on="1"/>
        <pt x="291" y="282" on="0"/>
        <pt x="270" y="312" on="0"/>
        <pt x="270" y="333" on="1"/>
        <pt x="270" y="353" on="0"/>
        <pt x="292" y="384" on="0"/>
        <pt x="310" y="384" on="1"/>
        <pt x="480" y="384" on="1"/>
        <pt x="499" y="384" on="0"/>
        <pt x="521" y="359" on="0"/>
        <pt x="521" y="342" on="1"/>
        <pt x="521" y="223" on="1"/>
        <pt x="521" y="104" on="0"/>
        <pt x="393" y="-6" on="0"/>
        <pt x="179" y="-6" on="0"/>
        <pt x="52" y="104" on="0"/>
      </contour>
      <contour>
        <pt x="131" y="859" on="1"/>
        <pt x="131" y="885" on="0"/>
        <pt x="153" y="896" on="1"/>
        <pt x="257" y="952" on="1"/>
        <pt x="265" y="957" on="0"/>
        <pt x="274" y="957" on="1"/>
        <pt x="281" y="957" on="0"/>
        <pt x="291" y="952" on="1"/>
        <pt x="395" y="897" on="1"/>
        <pt x="416" y="884" on="0"/>
        <pt x="416" y="858" on="1"/>
        <pt x="416" y="843" on="0"/>
        <pt x="400" y="819" on="0"/>
        <pt x="388" y="819" on="1"/>
        <pt x="382" y="819" on="0"/>
        <pt x="378" y="822" on="1"/>
        <pt x="274" y="878" on="1"/>
        <pt x="170" y="822" on="1"/>
        <pt x="164" y="819" on="0"/>
        <pt x="159" y="819" on="1"/>
        <pt x="147" y="819" on="0"/>
        <pt x="131" y="843" on="0"/>
      </contour>
    </TTGlyph>
    <TTGlyph name="Gcommaaccent" xMin="52" yMin="-194" xMax="521" yMax="731">
      <contour>
        <pt x="52" y="223" on="1"/>
        <pt x="52" y="502" on="1"/>
        <pt x="52" y="620" on="0"/>
        <pt x="179" y="731" on="0"/>
        <pt x="282" y="731" on="1"/>
        <pt x="388" y="731" on="0"/>
        <pt x="521" y="627" on="0"/>
        <pt x="521" y="539" on="1"/>
        <pt x="521" y="503" on="0"/>
        <pt x="490" y="477" on="0"/>
        <pt x="456" y="477" on="1"/>
        <pt x="392" y="477" on="0"/>
        <pt x="391" y="518" on="1"/>
        <pt x="388" y="562" on="0"/>
        <pt x="344" y="617" on="0"/>
        <pt x="287" y="617" on="1"/>
        <pt x="182" y="617" on="0"/>
        <pt x="182" y="502" on="1"/>
        <pt x="182" y="223" on="1"/>
        <pt x="182" y="108" on="0"/>
        <pt x="286" y="108" on="1"/>
        <pt x="336" y="108" on="0"/>
        <pt x="391" y="166" on="0"/>
        <pt x="391" y="223" on="1"/>
        <pt x="391" y="282" on="1"/>
        <pt x="310" y="282" on="1"/>
        <pt x="291" y="282" on="0"/>
        <pt x="270" y="312" on="0"/>
        <pt x="270" y="333" on="1"/>
        <pt x="270" y="353" on="0"/>
        <pt x="292" y="384" on="0"/>
        <pt x="310" y="384" on="1"/>
        <pt x="480" y="384" on="1"/>
        <pt x="499" y="384" on="0"/>
        <pt x="521" y="359" on="0"/>
        <pt x="521" y="342" on="1"/>
        <pt x="521" y="223" on="1"/>
        <pt x="521" y="104" on="0"/>
        <pt x="393" y="-6" on="0"/>
        <pt x="179" y="-6" on="0"/>
        <pt x="52" y="104" on="0"/>
      </contour>
      <contour>
        <pt x="184" y="-145" on="1"/>
        <pt x="184" y="-124" on="0"/>
        <pt x="201" y="-115" on="1"/>
        <pt x="333" y="-51" on="1"/>
        <pt x="340" y="-48" on="0"/>
        <pt x="346" y="-48" on="1"/>
        <pt x="362" y="-48" on="0"/>
        <pt x="386" y="-79" on="0"/>
        <pt x="386" y="-97" on="1"/>
        <pt x="386" y="-120" on="0"/>
        <pt x="368" y="-128" on="1"/>
        <pt x="238" y="-190" on="1"/>
        <pt x="228" y="-194" on="0"/>
        <pt x="224" y="-194" on="1"/>
        <pt x="208" y="-194" on="0"/>
        <pt x="184" y="-162" on="0"/>
      </contour>
    </TTGlyph>
    <TTGlyph name="Gdotaccent" xMin="52" yMin="-6" xMax="521" yMax="925">
      <contour>
        <pt x="52" y="223" on="1"/>
        <pt x="52" y="502" on="1"/>
        <pt x="52" y="620" on="0"/>
        <pt x="179" y="731" on="0"/>
        <pt x="282" y="731" on="1"/>
        <pt x="388" y="731" on="0"/>
        <pt x="521" y="627" on="0"/>
        <pt x="521" y="539" on="1"/>
        <pt x="521" y="503" on="0"/>
        <pt x="490" y="477" on="0"/>
        <pt x="456" y="477" on="1"/>
        <pt x="392" y="477" on="0"/>
        <pt x="391" y="518" on="1"/>
        <pt x="388" y="562" on="0"/>
        <pt x="344" y="617" on="0"/>
        <pt x="287" y="617" on="1"/>
        <pt x="182" y="617" on="0"/>
        <pt x="182" y="502" on="1"/>
        <pt x="182" y="223" on="1"/>
        <pt x="182" y="108" on="0"/>
        <pt x="286" y="108" on="1"/>
        <pt x="336" y="108" on="0"/>
        <pt x="391" y="166" on="0"/>
        <pt x="391" y="223" on="1"/>
        <pt x="391" y="282" on="1"/>
        <pt x="310" y="282" on="1"/>
        <pt x="291" y="282" on="0"/>
        <pt x="270" y="312" on="0"/>
        <pt x="270" y="333" on="1"/>
        <pt x="270" y="353" on="0"/>
        <pt x="292" y="384" on="0"/>
        <pt x="310" y="384" on="1"/>
        <pt x="480" y="384" on="1"/>
        <pt x="499" y="384" on="0"/>
        <pt x="521" y="359" on="0"/>
        <pt x="521" y="342" on="1"/>
        <pt x="521" y="223" on="1"/>
        <pt x="521" y="104" on="0"/>
        <pt x="393" y="-6" on="0"/>
        <pt x="179" y="-6" on="0"/>
        <pt x="52" y="104" on="0"/>
      </contour>
      <contour>
        <pt x="232" y="852" on="0"/>
        <pt x="232" y="894" on="0"/>
        <pt x="262" y="925" on="0"/>
        <pt x="304" y="925" on="0"/>
        <pt x="333" y="894" on="0"/>
        <pt x="333" y="852" on="0"/>
        <pt x="304" y="820" on="0"/>
        <pt x="262" y="820" on="0"/>
      </contour>
    </TTGlyph>
    <TTGlyph name="H" xMin="60" yMin="0" xMax="545" yMax="731">
      <contour>
        <pt x="60" y="41" on="1"/>
        <pt x="60" y="691" on="1"/>
        <pt x="60" y="711" on="0"/>
        <pt x="98" y="731" on="0"/>
        <pt x="152" y="731" on="0"/>
        <pt x="190" y="711" on="0"/>
        <pt x="190" y="691" on="1"/>
        <pt x="190" y="430" on="1"/>
        <pt x="415" y="430" on="1"/>
        <pt x="415" y="691" on="1"/>
        <pt x="415" y="711" on="0"/>
        <pt x="453" y="731" on="0"/>
        <pt x="507" y="731" on="0"/>
        <pt x="545" y="711" on="0"/>
        <pt x="545" y="691" on="1"/>
        <pt x="545" y="41" on="1"/>
        <pt x="545" y="22" on="0"/>
        <pt x="506" y="0" on="0"/>
        <pt x="480" y="0" on="1"/>
        <pt x="453" y="0" on="0"/>
        <pt x="415" y="22" on="0"/>
        <pt x="415" y="41" on="1"/>
        <pt x="415" y="328" on="1"/>
        <pt x="190" y="328" on="1"/>
        <pt x="190" y="41" on="1"/>
        <pt x="190" y="22" on="0"/>
        <pt x="151" y="0" on="0"/>
        <pt x="125" y="0" on="1"/>
        <pt x="98" y="0" on="0"/>
        <pt x="60" y="22" on="0"/>
      </contour>
    </TTGlyph>
    <TTGlyph name="Hbar" xMin="17" yMin="0" xMax="592" yMax="731">
      <contour>
        <pt x="17" y="559" on="0"/>
        <pt x="17" y="593" on="0"/>
        <pt x="35" y="619" on="0"/>
        <pt x="50" y="619" on="1"/>
        <pt x="63" y="619" on="1"/>
        <pt x="63" y="691" on="1"/>
        <pt x="63" y="711" on="0"/>
        <pt x="101" y="731" on="0"/>
        <pt x="155" y="731" on="0"/>
        <pt x="193" y="711" on="0"/>
        <pt x="193" y="691" on="1"/>
        <pt x="193" y="619" on="1"/>
        <pt x="418" y="619" on="1"/>
        <pt x="418" y="691" on="1"/>
        <pt x="418" y="711" on="0"/>
        <pt x="456" y="731" on="0"/>
        <pt x="510" y="731" on="0"/>
        <pt x="548" y="711" on="0"/>
        <pt x="548" y="691" on="1"/>
        <pt x="548" y="619" on="1"/>
        <pt x="559" y="619" on="1"/>
        <pt x="574" y="619" on="0"/>
        <pt x="592" y="593" on="0"/>
        <pt x="592" y="559" on="0"/>
        <pt x="574" y="534" on="0"/>
        <pt x="559" y="534" on="1"/>
        <pt x="548" y="534" on="1"/>
        <pt x="548" y="41" on="1"/>
        <pt x="548" y="22" on="0"/>
        <pt x="509" y="0" on="0"/>
        <pt x="483" y="0" on="1"/>
        <pt x="456" y="0" on="0"/>
        <pt x="418" y="22" on="0"/>
        <pt x="418" y="41" on="1"/>
        <pt x="418" y="328" on="1"/>
        <pt x="193" y="328" on="1"/>
        <pt x="193" y="41" on="1"/>
        <pt x="193" y="22" on="0"/>
        <pt x="154" y="0" on="0"/>
        <pt x="128" y="0" on="1"/>
        <pt x="101" y="0" on="0"/>
        <pt x="63" y="22" on="0"/>
        <pt x="63" y="41" on="1"/>
        <pt x="63" y="534" on="1"/>
        <pt x="50" y="534" on="1"/>
        <pt x="35" y="534" on="0"/>
      </contour>
      <contour>
        <pt x="193" y="430" on="1"/>
        <pt x="418" y="430" on="1"/>
        <pt x="418" y="534" on="1"/>
        <pt x="193" y="534" on="1"/>
      </contour>
    </TTGlyph>
    <TTGlyph name="Hcircumflex" xMin="60" yMin="0" xMax="545" yMax="957">
      <contour>
        <pt x="60" y="41" on="1"/>
        <pt x="60" y="691" on="1"/>
        <pt x="60" y="711" on="0"/>
        <pt x="98" y="731" on="0"/>
        <pt x="152" y="731" on="0"/>
        <pt x="190" y="711" on="0"/>
        <pt x="190" y="691" on="1"/>
        <pt x="190" y="430" on="1"/>
        <pt x="415" y="430" on="1"/>
        <pt x="415" y="691" on="1"/>
        <pt x="415" y="711" on="0"/>
        <pt x="453" y="731" on="0"/>
        <pt x="507" y="731" on="0"/>
        <pt x="545" y="711" on="0"/>
        <pt x="545" y="691" on="1"/>
        <pt x="545" y="41" on="1"/>
        <pt x="545" y="22" on="0"/>
        <pt x="506" y="0" on="0"/>
        <pt x="480" y="0" on="1"/>
        <pt x="453" y="0" on="0"/>
        <pt x="415" y="22" on="0"/>
        <pt x="415" y="41" on="1"/>
        <pt x="415" y="328" on="1"/>
        <pt x="190" y="328" on="1"/>
        <pt x="190" y="41" on="1"/>
        <pt x="190" y="22" on="0"/>
        <pt x="151" y="0" on="0"/>
        <pt x="125" y="0" on="1"/>
        <pt x="98" y="0" on="0"/>
        <pt x="60" y="22" on="0"/>
      </contour>
      <contour>
        <pt x="160" y="859" on="1"/>
        <pt x="160" y="885" on="0"/>
        <pt x="182" y="896" on="1"/>
        <pt x="286" y="952" on="1"/>
        <pt x="294" y="957" on="0"/>
        <pt x="303" y="957" on="1"/>
        <pt x="310" y="957" on="0"/>
        <pt x="320" y="952" on="1"/>
        <pt x="424" y="897" on="1"/>
        <pt x="445" y="884" on="0"/>
        <pt x="445" y="858" on="1"/>
        <pt x="445" y="843" on="0"/>
        <pt x="429" y="819" on="0"/>
        <pt x="417" y="819" on="1"/>
        <pt x="412" y="819" on="0"/>
        <pt x="407" y="822" on="1"/>
        <pt x="303" y="878" on="1"/>
        <pt x="199" y="822" on="1"/>
        <pt x="193" y="819" on="0"/>
        <pt x="188" y="819" on="1"/>
        <pt x="176" y="819" on="0"/>
        <pt x="160" y="843" on="0"/>
      </contour>
    </TTGlyph>
    <TTGlyph name="I" xMin="60" yMin="0" xMax="190" yMax="731">
      <contour>
        <pt x="60" y="41" on="1"/>
        <pt x="60" y="691" on="1"/>
        <pt x="60" y="711" on="0"/>
        <pt x="98" y="731" on="0"/>
        <pt x="152" y="731" on="0"/>
        <pt x="190" y="711" on="0"/>
        <pt x="190" y="691" on="1"/>
        <pt x="190" y="41" on="1"/>
        <pt x="190" y="22" on="0"/>
        <pt x="151" y="0" on="0"/>
        <pt x="125" y="0" on="1"/>
        <pt x="98" y="0" on="0"/>
        <pt x="60" y="22" on="0"/>
      </contour>
    </TTGlyph>
    <TTGlyph name="IJ" xMin="60" yMin="-6" xMax="724" yMax="731">
      <contour>
        <pt x="60" y="41" on="1"/>
        <pt x="60" y="691" on="1"/>
        <pt x="60" y="711" on="0"/>
        <pt x="98" y="731" on="0"/>
        <pt x="152" y="731" on="0"/>
        <pt x="190" y="711" on="0"/>
        <pt x="190" y="691" on="1"/>
        <pt x="190" y="41" on="1"/>
        <pt x="190" y="22" on="0"/>
        <pt x="151" y="0" on="0"/>
        <pt x="125" y="0" on="1"/>
        <pt x="98" y="0" on="0"/>
        <pt x="60" y="22" on="0"/>
      </contour>
      <contour>
        <pt x="255" y="193" on="1"/>
        <pt x="255" y="229" on="0"/>
        <pt x="285" y="256" on="0"/>
        <pt x="320" y="256" on="1"/>
        <pt x="381" y="256" on="0"/>
        <pt x="385" y="215" on="1"/>
        <pt x="389" y="108" on="0"/>
        <pt x="488" y="108" on="1"/>
        <pt x="594" y="108" on="0"/>
        <pt x="594" y="223" on="1"/>
        <pt x="594" y="617" on="1"/>
        <pt x="492" y="617" on="1"/>
        <pt x="473" y="617" on="0"/>
        <pt x="451" y="651" on="0"/>
        <pt x="451" y="675" on="1"/>
        <pt x="451" y="698" on="0"/>
        <pt x="472" y="731" on="0"/>
        <pt x="492" y="731" on="1"/>
        <pt x="667" y="731" on="1"/>
        <pt x="690" y="731" on="0"/>
        <pt x="724" y="709" on="0"/>
        <pt x="724" y="690" on="1"/>
        <pt x="724" y="223" on="1"/>
        <pt x="724" y="105" on="0"/>
        <pt x="597" y="-6" on="0"/>
        <pt x="494" y="-6" on="1"/>
        <pt x="388" y="-6" on="0"/>
        <pt x="255" y="101" on="0"/>
      </contour>
    </TTGlyph>
    <TTGlyph name="Iacute" xMin="31" yMin="0" xMax="233" yMax="957">
      <contour>
        <pt x="31" y="860" on="1"/>
        <pt x="31" y="882" on="0"/>
        <pt x="48" y="891" on="1"/>
        <pt x="180" y="955" on="1"/>
        <pt x="190" y="957" on="0"/>
        <pt x="193" y="957" on="1"/>
        <pt x="209" y="957" on="0"/>
        <pt x="233" y="926" on="0"/>
        <pt x="233" y="908" on="1"/>
        <pt x="233" y="886" on="0"/>
        <pt x="215" y="878" on="1"/>
        <pt x="85" y="815" on="1"/>
        <pt x="75" y="811" on="0"/>
        <pt x="71" y="811" on="1"/>
        <pt x="55" y="811" on="0"/>
        <pt x="31" y="843" on="0"/>
      </contour>
      <contour>
        <pt x="60" y="41" on="1"/>
        <pt x="60" y="691" on="1"/>
        <pt x="60" y="711" on="0"/>
        <pt x="98" y="731" on="0"/>
        <pt x="152" y="731" on="0"/>
        <pt x="190" y="711" on="0"/>
        <pt x="190" y="691" on="1"/>
        <pt x="190" y="41" on="1"/>
        <pt x="190" y="22" on="0"/>
        <pt x="151" y="0" on="0"/>
        <pt x="125" y="0" on="1"/>
        <pt x="98" y="0" on="0"/>
        <pt x="60" y="22" on="0"/>
      </contour>
    </TTGlyph>
    <TTGlyph name="Ibreve" xMin="-8" yMin="0" xMax="258" yMax="964">
      <contour>
        <pt x="-8" y="964" on="1"/>
        <pt x="62" y="964" on="1"/>
        <pt x="62" y="932" on="0"/>
        <pt x="100" y="889" on="0"/>
        <pt x="125" y="889" on="1"/>
        <pt x="149" y="889" on="0"/>
        <pt x="188" y="932" on="0"/>
        <pt x="188" y="964" on="1"/>
        <pt x="258" y="964" on="1"/>
        <pt x="258" y="911" on="0"/>
        <pt x="177" y="831" on="0"/>
        <pt x="73" y="831" on="0"/>
        <pt x="-8" y="911" on="0"/>
      </contour>
      <contour>
        <pt x="60" y="41" on="1"/>
        <pt x="60" y="691" on="1"/>
        <pt x="60" y="711" on="0"/>
        <pt x="98" y="731" on="0"/>
        <pt x="152" y="731" on="0"/>
        <pt x="190" y="711" on="0"/>
        <pt x="190" y="691" on="1"/>
        <pt x="190" y="41" on="1"/>
        <pt x="190" y="22" on="0"/>
        <pt x="151" y="0" on="0"/>
        <pt x="125" y="0" on="1"/>
        <pt x="98" y="0" on="0"/>
        <pt x="60" y="22" on="0"/>
      </contour>
    </TTGlyph>
    <TTGlyph name="Icircumflex" xMin="-16" yMin="0" xMax="269" yMax="957">
      <contour>
        <pt x="-16" y="859" on="1"/>
        <pt x="-16" y="885" on="0"/>
        <pt x="6" y="896" on="1"/>
        <pt x="110" y="952" on="1"/>
        <pt x="118" y="957" on="0"/>
        <pt x="127" y="957" on="1"/>
        <pt x="134" y="957" on="0"/>
        <pt x="144" y="952" on="1"/>
        <pt x="248" y="897" on="1"/>
        <pt x="269" y="884" on="0"/>
        <pt x="269" y="858" on="1"/>
        <pt x="269" y="843" on="0"/>
        <pt x="253" y="819" on="0"/>
        <pt x="241" y="819" on="1"/>
        <pt x="236" y="819" on="0"/>
        <pt x="231" y="822" on="1"/>
        <pt x="127" y="878" on="1"/>
        <pt x="23" y="822" on="1"/>
        <pt x="17" y="819" on="0"/>
        <pt x="12" y="819" on="1"/>
        <pt x="0" y="819" on="0"/>
        <pt x="-16" y="843" on="0"/>
      </contour>
      <contour>
        <pt x="60" y="41" on="1"/>
        <pt x="60" y="691" on="1"/>
        <pt x="60" y="711" on="0"/>
        <pt x="98" y="731" on="0"/>
        <pt x="152" y="731" on="0"/>
        <pt x="190" y="711" on="0"/>
        <pt x="190" y="691" on="1"/>
        <pt x="190" y="41" on="1"/>
        <pt x="190" y="22" on="0"/>
        <pt x="151" y="0" on="0"/>
        <pt x="125" y="0" on="1"/>
        <pt x="98" y="0" on="0"/>
        <pt x="60" y="22" on="0"/>
      </contour>
    </TTGlyph>
    <TTGlyph name="Idieresis" xMin="1" yMin="0" xMax="252" yMax="925">
      <contour>
        <pt x="1" y="852" on="0"/>
        <pt x="1" y="894" on="0"/>
        <pt x="31" y="925" on="0"/>
        <pt x="73" y="925" on="0"/>
        <pt x="102" y="894" on="0"/>
        <pt x="102" y="852" on="0"/>
        <pt x="73" y="820" on="0"/>
        <pt x="31" y="820" on="0"/>
      </contour>
      <contour>
        <pt x="60" y="41" on="1"/>
        <pt x="60" y="691" on="1"/>
        <pt x="60" y="711" on="0"/>
        <pt x="98" y="731" on="0"/>
        <pt x="152" y="731" on="0"/>
        <pt x="190" y="711" on="0"/>
        <pt x="190" y="691" on="1"/>
        <pt x="190" y="41" on="1"/>
        <pt x="190" y="22" on="0"/>
        <pt x="151" y="0" on="0"/>
        <pt x="125" y="0" on="1"/>
        <pt x="98" y="0" on="0"/>
        <pt x="60" y="22" on="0"/>
      </contour>
      <contour>
        <pt x="150" y="852" on="0"/>
        <pt x="150" y="894" on="0"/>
        <pt x="180" y="925" on="0"/>
        <pt x="202" y="925" on="1"/>
        <pt x="222" y="925" on="0"/>
        <pt x="252" y="894" on="0"/>
        <pt x="252" y="852" on="0"/>
        <pt x="222" y="820" on="0"/>
        <pt x="202" y="820" on="1"/>
        <pt x="181" y="820" on="0"/>
      </contour>
    </TTGlyph>
    <TTGlyph name="Idotaccent" xMin="60" yMin="0" xMax="190" yMax="925">
      <contour>
        <pt x="60" y="41" on="1"/>
        <pt x="60" y="691" on="1"/>
        <pt x="60" y="711" on="0"/>
        <pt x="98" y="731" on="0"/>
        <pt x="152" y="731" on="0"/>
        <pt x="190" y="711" on="0"/>
        <pt x="190" y="691" on="1"/>
        <pt x="190" y="41" on="1"/>
        <pt x="190" y="22" on="0"/>
        <pt x="151" y="0" on="0"/>
        <pt x="125" y="0" on="1"/>
        <pt x="98" y="0" on="0"/>
        <pt x="60" y="22" on="0"/>
      </contour>
      <contour>
        <pt x="75" y="852" on="0"/>
        <pt x="75" y="894" on="0"/>
        <pt x="105" y="925" on="0"/>
        <pt x="147" y="925" on="0"/>
        <pt x="176" y="894" on="0"/>
        <pt x="176" y="852" on="0"/>
        <pt x="147" y="820" on="0"/>
        <pt x="105" y="820" on="0"/>
      </contour>
    </TTGlyph>
    <TTGlyph name="Igrave" xMin="17" yMin="0" xMax="219" yMax="957">
      <contour>
        <pt x="17" y="908" on="1"/>
        <pt x="17" y="926" on="0"/>
        <pt x="41" y="957" on="0"/>
        <pt x="57" y="957" on="1"/>
        <pt x="60" y="957" on="0"/>
        <pt x="70" y="955" on="1"/>
        <pt x="202" y="891" on="1"/>
        <pt x="219" y="882" on="0"/>
        <pt x="219" y="860" on="1"/>
        <pt x="219" y="843" on="0"/>
        <pt x="195" y="811" on="0"/>
        <pt x="179" y="811" on="1"/>
        <pt x="175" y="811" on="0"/>
        <pt x="165" y="815" on="1"/>
        <pt x="35" y="878" on="1"/>
        <pt x="17" y="886" on="0"/>
      </contour>
      <contour>
        <pt x="60" y="41" on="1"/>
        <pt x="60" y="691" on="1"/>
        <pt x="60" y="711" on="0"/>
        <pt x="98" y="731" on="0"/>
        <pt x="152" y="731" on="0"/>
        <pt x="190" y="711" on="0"/>
        <pt x="190" y="691" on="1"/>
        <pt x="190" y="41" on="1"/>
        <pt x="190" y="22" on="0"/>
        <pt x="151" y="0" on="0"/>
        <pt x="125" y="0" on="1"/>
        <pt x="98" y="0" on="0"/>
        <pt x="60" y="22" on="0"/>
      </contour>
    </TTGlyph>
    <TTGlyph name="Imacron" xMin="-19" yMin="0" xMax="267" yMax="938">
      <contour>
        <pt x="-19" y="895" on="1"/>
        <pt x="-19" y="913" on="0"/>
        <pt x="3" y="938" on="0"/>
        <pt x="21" y="938" on="1"/>
        <pt x="226" y="938" on="1"/>
        <pt x="242" y="938" on="0"/>
        <pt x="267" y="913" on="0"/>
        <pt x="267" y="877" on="0"/>
        <pt x="242" y="853" on="0"/>
        <pt x="226" y="853" on="1"/>
        <pt x="21" y="853" on="1"/>
        <pt x="3" y="853" on="0"/>
        <pt x="-19" y="876" on="0"/>
      </contour>
      <contour>
        <pt x="60" y="41" on="1"/>
        <pt x="60" y="691" on="1"/>
        <pt x="60" y="711" on="0"/>
        <pt x="98" y="731" on="0"/>
        <pt x="152" y="731" on="0"/>
        <pt x="190" y="711" on="0"/>
        <pt x="190" y="691" on="1"/>
        <pt x="190" y="41" on="1"/>
        <pt x="190" y="22" on="0"/>
        <pt x="151" y="0" on="0"/>
        <pt x="125" y="0" on="1"/>
        <pt x="98" y="0" on="0"/>
        <pt x="60" y="22" on="0"/>
      </contour>
    </TTGlyph>
    <TTGlyph name="Iogonek" xMin="23" yMin="-212" xMax="190" yMax="731">
      <contour>
        <pt x="23" y="-122" on="1"/>
        <pt x="23" y="-49" on="0"/>
        <pt x="88" y="6" on="1"/>
        <pt x="60" y="16" on="0"/>
        <pt x="60" y="41" on="1"/>
        <pt x="60" y="691" on="1"/>
        <pt x="60" y="711" on="0"/>
        <pt x="98" y="731" on="0"/>
        <pt x="152" y="731" on="0"/>
        <pt x="190" y="711" on="0"/>
        <pt x="190" y="691" on="1"/>
        <pt x="190" y="41" on="1"/>
        <pt x="190" y="19" on="0"/>
        <pt x="161" y="6" on="1"/>
        <pt x="128" y="-14" on="0"/>
        <pt x="86" y="-80" on="0"/>
        <pt x="86" y="-110" on="1"/>
        <pt x="86" y="-157" on="0"/>
        <pt x="146" y="-157" on="1"/>
        <pt x="169" y="-157" on="0"/>
        <pt x="169" y="-186" on="1"/>
        <pt x="169" y="-212" on="0"/>
        <pt x="140" y="-212" on="1"/>
        <pt x="84" y="-212" on="0"/>
        <pt x="23" y="-163" on="0"/>
      </contour>
    </TTGlyph>
    <TTGlyph name="Itilde" xMin="-46" yMin="0" xMax="296" yMax="946">
      <contour>
        <pt x="-46" y="878" on="1"/>
        <pt x="-46" y="906" on="0"/>
        <pt x="-10" y="939" on="0"/>
        <pt x="23" y="946" on="0"/>
        <pt x="40" y="946" on="1"/>
        <pt x="70" y="946" on="0"/>
        <pt x="156" y="917" on="0"/>
        <pt x="182" y="917" on="1"/>
        <pt x="206" y="917" on="0"/>
        <pt x="255" y="941" on="0"/>
        <pt x="263" y="941" on="1"/>
        <pt x="280" y="941" on="0"/>
        <pt x="296" y="911" on="0"/>
        <pt x="296" y="899" on="1"/>
        <pt x="296" y="877" on="0"/>
        <pt x="277" y="848" on="0"/>
        <pt x="246" y="835" on="0"/>
        <pt x="222" y="831" on="0"/>
        <pt x="211" y="831" on="1"/>
        <pt x="176" y="831" on="0"/>
        <pt x="92" y="860" on="0"/>
        <pt x="69" y="860" on="1"/>
        <pt x="45" y="860" on="0"/>
        <pt x="-5" y="836" on="0"/>
        <pt x="-13" y="836" on="1"/>
        <pt x="-30" y="836" on="0"/>
        <pt x="-46" y="866" on="0"/>
      </contour>
      <contour>
        <pt x="60" y="41" on="1"/>
        <pt x="60" y="691" on="1"/>
        <pt x="60" y="711" on="0"/>
        <pt x="98" y="731" on="0"/>
        <pt x="152" y="731" on="0"/>
        <pt x="190" y="711" on="0"/>
        <pt x="190" y="691" on="1"/>
        <pt x="190" y="41" on="1"/>
        <pt x="190" y="22" on="0"/>
        <pt x="151" y="0" on="0"/>
        <pt x="125" y="0" on="1"/>
        <pt x="98" y="0" on="0"/>
        <pt x="60" y="22" on="0"/>
      </contour>
    </TTGlyph>
    <TTGlyph name="J" xMin="13" yMin="-6" xMax="482" yMax="731">
      <contour>
        <pt x="13" y="193" on="1"/>
        <pt x="13" y="229" on="0"/>
        <pt x="43" y="256" on="0"/>
        <pt x="78" y="256" on="1"/>
        <pt x="139" y="256" on="0"/>
        <pt x="143" y="215" on="1"/>
        <pt x="147" y="108" on="0"/>
        <pt x="246" y="108" on="1"/>
        <pt x="352" y="108" on="0"/>
        <pt x="352" y="223" on="1"/>
        <pt x="352" y="617" on="1"/>
        <pt x="250" y="617" on="1"/>
        <pt x="231" y="617" on="0"/>
        <pt x="209" y="651" on="0"/>
        <pt x="209" y="675" on="1"/>
        <pt x="209" y="698" on="0"/>
        <pt x="230" y="731" on="0"/>
        <pt x="250" y="731" on="1"/>
        <pt x="425" y="731" on="1"/>
        <pt x="448" y="731" on="0"/>
        <pt x="482" y="709" on="0"/>
        <pt x="482" y="690" on="1"/>
        <pt x="482" y="223" on="1"/>
        <pt x="482" y="105" on="0"/>
        <pt x="355" y="-6" on="0"/>
        <pt x="252" y="-6" on="1"/>
        <pt x="146" y="-6" on="0"/>
        <pt x="13" y="101" on="0"/>
      </contour>
    </TTGlyph>
    <TTGlyph name="Jcircumflex" xMin="13" yMin="-6" xMax="482" yMax="957">
      <contour>
        <pt x="13" y="193" on="1"/>
        <pt x="13" y="229" on="0"/>
        <pt x="43" y="256" on="0"/>
        <pt x="78" y="256" on="1"/>
        <pt x="139" y="256" on="0"/>
        <pt x="143" y="215" on="1"/>
        <pt x="147" y="108" on="0"/>
        <pt x="246" y="108" on="1"/>
        <pt x="352" y="108" on="0"/>
        <pt x="352" y="223" on="1"/>
        <pt x="352" y="617" on="1"/>
        <pt x="250" y="617" on="1"/>
        <pt x="231" y="617" on="0"/>
        <pt x="209" y="651" on="0"/>
        <pt x="209" y="675" on="1"/>
        <pt x="209" y="698" on="0"/>
        <pt x="230" y="731" on="0"/>
        <pt x="250" y="731" on="1"/>
        <pt x="425" y="731" on="1"/>
        <pt x="448" y="731" on="0"/>
        <pt x="482" y="709" on="0"/>
        <pt x="482" y="690" on="1"/>
        <pt x="482" y="223" on="1"/>
        <pt x="482" y="105" on="0"/>
        <pt x="355" y="-6" on="0"/>
        <pt x="252" y="-6" on="1"/>
        <pt x="146" y="-6" on="0"/>
        <pt x="13" y="101" on="0"/>
      </contour>
      <contour>
        <pt x="128" y="859" on="1"/>
        <pt x="128" y="885" on="0"/>
        <pt x="150" y="896" on="1"/>
        <pt x="254" y="952" on="1"/>
        <pt x="262" y="957" on="0"/>
        <pt x="271" y="957" on="1"/>
        <pt x="278" y="957" on="0"/>
        <pt x="288" y="952" on="1"/>
        <pt x="392" y="897" on="1"/>
        <pt x="413" y="884" on="0"/>
        <pt x="413" y="858" on="1"/>
        <pt x="413" y="843" on="0"/>
        <pt x="397" y="819" on="0"/>
        <pt x="385" y="819" on="1"/>
        <pt x="380" y="819" on="0"/>
        <pt x="375" y="822" on="1"/>
        <pt x="271" y="878" on="1"/>
        <pt x="167" y="822" on="1"/>
        <pt x="161" y="819" on="0"/>
        <pt x="156" y="819" on="1"/>
        <pt x="144" y="819" on="0"/>
        <pt x="128" y="843" on="0"/>
      </contour>
    </TTGlyph>
    <TTGlyph name="K" xMin="60" yMin="-5" xMax="555" yMax="731">
      <contour>
        <pt x="60" y="41" on="1"/>
        <pt x="60" y="691" on="1"/>
        <pt x="60" y="711" on="0"/>
        <pt x="98" y="731" on="0"/>
        <pt x="152" y="731" on="0"/>
        <pt x="190" y="711" on="0"/>
        <pt x="190" y="691" on="1"/>
        <pt x="190" y="418" on="1"/>
        <pt x="406" y="712" on="1"/>
        <pt x="420" y="731" on="0"/>
        <pt x="442" y="731" on="1"/>
        <pt x="467" y="731" on="0"/>
        <pt x="517" y="688" on="0"/>
        <pt x="517" y="664" on="1"/>
        <pt x="517" y="649" on="0"/>
        <pt x="509" y="639" on="1"/>
        <pt x="330" y="415" on="1"/>
        <pt x="548" y="83" on="1"/>
        <pt x="555" y="73" on="0"/>
        <pt x="555" y="60" on="1"/>
        <pt x="555" y="36" on="0"/>
        <pt x="506" y="-5" on="0"/>
        <pt x="477" y="-5" on="1"/>
        <pt x="447" y="-5" on="0"/>
        <pt x="432" y="20" on="1"/>
        <pt x="244" y="305" on="1"/>
        <pt x="190" y="237" on="1"/>
        <pt x="190" y="41" on="1"/>
        <pt x="190" y="22" on="0"/>
        <pt x="151" y="0" on="0"/>
        <pt x="125" y="0" on="1"/>
        <pt x="98" y="0" on="0"/>
        <pt x="60" y="22" on="0"/>
      </contour>
    </TTGlyph>
    <TTGlyph name="Kcommaaccent" xMin="60" yMin="-194" xMax="555" yMax="731">
      <contour>
        <pt x="60" y="41" on="1"/>
        <pt x="60" y="691" on="1"/>
        <pt x="60" y="711" on="0"/>
        <pt x="98" y="731" on="0"/>
        <pt x="152" y="731" on="0"/>
        <pt x="190" y="711" on="0"/>
        <pt x="190" y="691" on="1"/>
        <pt x="190" y="418" on="1"/>
        <pt x="406" y="712" on="1"/>
        <pt x="420" y="731" on="0"/>
        <pt x="442" y="731" on="1"/>
        <pt x="467" y="731" on="0"/>
        <pt x="517" y="688" on="0"/>
        <pt x="517" y="664" on="1"/>
        <pt x="517" y="649" on="0"/>
        <pt x="509" y="639" on="1"/>
        <pt x="330" y="415" on="1"/>
        <pt x="548" y="83" on="1"/>
        <pt x="555" y="73" on="0"/>
        <pt x="555" y="60" on="1"/>
        <pt x="555" y="36" on="0"/>
        <pt x="506" y="-5" on="0"/>
        <pt x="477" y="-5" on="1"/>
        <pt x="447" y="-5" on="0"/>
        <pt x="432" y="20" on="1"/>
        <pt x="244" y="305" on="1"/>
        <pt x="190" y="237" on="1"/>
        <pt x="190" y="41" on="1"/>
        <pt x="190" y="22" on="0"/>
        <pt x="151" y="0" on="0"/>
        <pt x="125" y="0" on="1"/>
        <pt x="98" y="0" on="0"/>
        <pt x="60" y="22" on="0"/>
      </contour>
      <contour>
        <pt x="179" y="-145" on="1"/>
        <pt x="179" y="-124" on="0"/>
        <pt x="196" y="-115" on="1"/>
        <pt x="328" y="-51" on="1"/>
        <pt x="336" y="-48" on="0"/>
        <pt x="341" y="-48" on="1"/>
        <pt x="357" y="-48" on="0"/>
        <pt x="381" y="-79" on="0"/>
        <pt x="381" y="-97" on="1"/>
        <pt x="381" y="-120" on="0"/>
        <pt x="363" y="-128" on="1"/>
        <pt x="233" y="-190" on="1"/>
        <pt x="223" y="-194" on="0"/>
        <pt x="219" y="-194" on="1"/>
        <pt x="203" y="-194" on="0"/>
        <pt x="179" y="-162" on="0"/>
      </contour>
    </TTGlyph>
    <TTGlyph name="L" xMin="60" yMin="0" xMax="473" yMax="731">
      <contour>
        <pt x="60" y="41" on="1"/>
        <pt x="60" y="691" on="1"/>
        <pt x="60" y="711" on="0"/>
        <pt x="98" y="731" on="0"/>
        <pt x="152" y="731" on="0"/>
        <pt x="190" y="711" on="0"/>
        <pt x="190" y="691" on="1"/>
        <pt x="190" y="114" on="1"/>
        <pt x="434" y="114" on="1"/>
        <pt x="452" y="114" on="0"/>
        <pt x="473" y="80" on="0"/>
        <pt x="473" y="34" on="0"/>
        <pt x="452" y="0" on="0"/>
        <pt x="434" y="0" on="1"/>
        <pt x="117" y="0" on="1"/>
        <pt x="94" y="0" on="0"/>
        <pt x="60" y="22" on="0"/>
      </contour>
    </TTGlyph>
    <TTGlyph name="Lacute" xMin="60" yMin="0" xMax="473" yMax="957">
      <contour>
        <pt x="60" y="41" on="1"/>
        <pt x="60" y="691" on="1"/>
        <pt x="60" y="711" on="0"/>
        <pt x="98" y="731" on="0"/>
        <pt x="152" y="731" on="0"/>
        <pt x="190" y="711" on="0"/>
        <pt x="190" y="691" on="1"/>
        <pt x="190" y="114" on="1"/>
        <pt x="434" y="114" on="1"/>
        <pt x="452" y="114" on="0"/>
        <pt x="473" y="80" on="0"/>
        <pt x="473" y="34" on="0"/>
        <pt x="452" y="0" on="0"/>
        <pt x="434" y="0" on="1"/>
        <pt x="117" y="0" on="1"/>
        <pt x="94" y="0" on="0"/>
        <pt x="60" y="22" on="0"/>
      </contour>
      <contour>
        <pt x="156" y="860" on="1"/>
        <pt x="156" y="882" on="0"/>
        <pt x="173" y="891" on="1"/>
        <pt x="305" y="955" on="1"/>
        <pt x="315" y="957" on="0"/>
        <pt x="318" y="957" on="1"/>
        <pt x="334" y="957" on="0"/>
        <pt x="358" y="926" on="0"/>
        <pt x="358" y="908" on="1"/>
        <pt x="358" y="886" on="0"/>
        <pt x="340" y="878" on="1"/>
        <pt x="210" y="815" on="1"/>
        <pt x="200" y="811" on="0"/>
        <pt x="196" y="811" on="1"/>
        <pt x="180" y="811" on="0"/>
        <pt x="156" y="843" on="0"/>
      </contour>
    </TTGlyph>
    <TTGlyph name="Lcaron" xMin="60" yMin="0" xMax="473" yMax="741">
      <contour>
        <pt x="60" y="41" on="1"/>
        <pt x="60" y="691" on="1"/>
        <pt x="60" y="711" on="0"/>
        <pt x="98" y="731" on="0"/>
        <pt x="152" y="731" on="0"/>
        <pt x="190" y="711" on="0"/>
        <pt x="190" y="691" on="1"/>
        <pt x="190" y="114" on="1"/>
        <pt x="434" y="114" on="1"/>
        <pt x="452" y="114" on="0"/>
        <pt x="473" y="80" on="0"/>
        <pt x="473" y="34" on="0"/>
        <pt x="452" y="0" on="0"/>
        <pt x="434" y="0" on="1"/>
        <pt x="117" y="0" on="1"/>
        <pt x="94" y="0" on="0"/>
        <pt x="60" y="22" on="0"/>
      </contour>
      <contour>
        <pt x="307" y="673" on="1"/>
        <pt x="307" y="701" on="0"/>
        <pt x="346" y="741" on="0"/>
        <pt x="402" y="741" on="0"/>
        <pt x="442" y="701" on="0"/>
        <pt x="442" y="674" on="1"/>
        <pt x="442" y="656" on="0"/>
        <pt x="387" y="527" on="1"/>
        <pt x="379" y="511" on="0"/>
        <pt x="360" y="511" on="1"/>
        <pt x="345" y="511" on="0"/>
        <pt x="317" y="530" on="0"/>
        <pt x="317" y="545" on="1"/>
        <pt x="317" y="552" on="0"/>
        <pt x="321" y="559" on="1"/>
        <pt x="344" y="612" on="1"/>
        <pt x="307" y="632" on="0"/>
      </contour>
    </TTGlyph>
    <TTGlyph name="Lcommaaccent" xMin="60" yMin="-194" xMax="473" yMax="731">
      <contour>
        <pt x="60" y="41" on="1"/>
        <pt x="60" y="691" on="1"/>
        <pt x="60" y="711" on="0"/>
        <pt x="98" y="731" on="0"/>
        <pt x="152" y="731" on="0"/>
        <pt x="190" y="711" on="0"/>
        <pt x="190" y="691" on="1"/>
        <pt x="190" y="114" on="1"/>
        <pt x="434" y="114" on="1"/>
        <pt x="452" y="114" on="0"/>
        <pt x="473" y="80" on="0"/>
        <pt x="473" y="34" on="0"/>
        <pt x="452" y="0" on="0"/>
        <pt x="434" y="0" on="1"/>
        <pt x="117" y="0" on="1"/>
        <pt x="94" y="0" on="0"/>
        <pt x="60" y="22" on="0"/>
      </contour>
      <contour>
        <pt x="157" y="-145" on="1"/>
        <pt x="157" y="-124" on="0"/>
        <pt x="174" y="-115" on="1"/>
        <pt x="306" y="-51" on="1"/>
        <pt x="314" y="-48" on="0"/>
        <pt x="319" y="-48" on="1"/>
        <pt x="335" y="-48" on="0"/>
        <pt x="359" y="-79" on="0"/>
        <pt x="359" y="-97" on="1"/>
        <pt x="359" y="-120" on="0"/>
        <pt x="341" y="-128" on="1"/>
        <pt x="211" y="-190" on="1"/>
        <pt x="201" y="-194" on="0"/>
        <pt x="197" y="-194" on="1"/>
        <pt x="181" y="-194" on="0"/>
        <pt x="157" y="-162" on="0"/>
      </contour>
    </TTGlyph>
    <TTGlyph name="Ldot" xMin="60" yMin="0" xMax="473" yMax="731">
      <contour>
        <pt x="60" y="41" on="1"/>
        <pt x="60" y="691" on="1"/>
        <pt x="60" y="711" on="0"/>
        <pt x="98" y="731" on="0"/>
        <pt x="152" y="731" on="0"/>
        <pt x="190" y="711" on="0"/>
        <pt x="190" y="691" on="1"/>
        <pt x="190" y="114" on="1"/>
        <pt x="434" y="114" on="1"/>
        <pt x="452" y="114" on="0"/>
        <pt x="473" y="80" on="0"/>
        <pt x="473" y="34" on="0"/>
        <pt x="452" y="0" on="0"/>
        <pt x="434" y="0" on="1"/>
        <pt x="117" y="0" on="1"/>
        <pt x="94" y="0" on="0"/>
        <pt x="60" y="22" on="0"/>
      </contour>
      <contour>
        <pt x="296" y="395" on="0"/>
        <pt x="296" y="447" on="0"/>
        <pt x="338" y="484" on="0"/>
        <pt x="398" y="484" on="0"/>
        <pt x="439" y="447" on="0"/>
        <pt x="439" y="395" on="0"/>
        <pt x="398" y="357" on="0"/>
        <pt x="338" y="357" on="0"/>
      </contour>
    </TTGlyph>
    <TTGlyph name="Lslash" xMin="-7" yMin="0" xMax="479" yMax="731">
      <contour>
        <pt x="-7" y="310" on="1"/>
        <pt x="-7" y="333" on="0"/>
        <pt x="9" y="340" on="1"/>
        <pt x="66" y="368" on="1"/>
        <pt x="66" y="691" on="1"/>
        <pt x="66" y="711" on="0"/>
        <pt x="104" y="731" on="0"/>
        <pt x="158" y="731" on="0"/>
        <pt x="196" y="711" on="0"/>
        <pt x="196" y="691" on="1"/>
        <pt x="196" y="431" on="1"/>
        <pt x="256" y="461" on="1"/>
        <pt x="260" y="463" on="0"/>
        <pt x="268" y="463" on="1"/>
        <pt x="285" y="463" on="0"/>
        <pt x="314" y="425" on="0"/>
        <pt x="314" y="406" on="1"/>
        <pt x="314" y="384" on="0"/>
        <pt x="297" y="376" on="1"/>
        <pt x="196" y="326" on="1"/>
        <pt x="196" y="114" on="1"/>
        <pt x="440" y="114" on="1"/>
        <pt x="458" y="114" on="0"/>
        <pt x="479" y="80" on="0"/>
        <pt x="479" y="34" on="0"/>
        <pt x="458" y="0" on="0"/>
        <pt x="440" y="0" on="1"/>
        <pt x="123" y="0" on="1"/>
        <pt x="100" y="0" on="0"/>
        <pt x="66" y="22" on="0"/>
        <pt x="66" y="41" on="1"/>
        <pt x="66" y="263" on="1"/>
        <pt x="50" y="255" on="1"/>
        <pt x="44" y="252" on="0"/>
        <pt x="38" y="252" on="1"/>
        <pt x="20" y="252" on="0"/>
        <pt x="-7" y="289" on="0"/>
      </contour>
    </TTGlyph>
    <TTGlyph name="M" xMin="60" yMin="0" xMax="639" yMax="731">
      <contour>
        <pt x="60" y="41" on="1"/>
        <pt x="60" y="666" on="1"/>
        <pt x="60" y="699" on="0"/>
        <pt x="97" y="731" on="0"/>
        <pt x="125" y="731" on="1"/>
        <pt x="162" y="731" on="0"/>
        <pt x="202" y="705" on="0"/>
        <pt x="226" y="662" on="1"/>
        <pt x="349" y="438" on="1"/>
        <pt x="472" y="662" on="1"/>
        <pt x="496" y="705" on="0"/>
        <pt x="537" y="731" on="0"/>
        <pt x="574" y="731" on="1"/>
        <pt x="602" y="731" on="0"/>
        <pt x="639" y="699" on="0"/>
        <pt x="639" y="666" on="1"/>
        <pt x="639" y="41" on="1"/>
        <pt x="639" y="22" on="0"/>
        <pt x="600" y="0" on="0"/>
        <pt x="574" y="0" on="1"/>
        <pt x="547" y="0" on="0"/>
        <pt x="509" y="22" on="0"/>
        <pt x="509" y="41" on="1"/>
        <pt x="509" y="471" on="1"/>
        <pt x="392" y="263" on="1"/>
        <pt x="378" y="237" on="0"/>
        <pt x="348" y="237" on="1"/>
        <pt x="319" y="237" on="0"/>
        <pt x="305" y="263" on="1"/>
        <pt x="190" y="479" on="1"/>
        <pt x="190" y="41" on="1"/>
        <pt x="190" y="22" on="0"/>
        <pt x="151" y="0" on="0"/>
        <pt x="125" y="0" on="1"/>
        <pt x="98" y="0" on="0"/>
        <pt x="60" y="22" on="0"/>
      </contour>
    </TTGlyph>
    <TTGlyph name="N" xMin="60" yMin="0" xMax="545" yMax="731">
      <contour>
        <pt x="60" y="41" on="1"/>
        <pt x="60" y="690" on="1"/>
        <pt x="60" y="710" on="0"/>
        <pt x="98" y="731" on="0"/>
        <pt x="125" y="731" on="1"/>
        <pt x="161" y="731" on="0"/>
        <pt x="199" y="705" on="0"/>
        <pt x="222" y="662" on="1"/>
        <pt x="415" y="289" on="1"/>
        <pt x="415" y="691" on="1"/>
        <pt x="415" y="711" on="0"/>
        <pt x="453" y="731" on="0"/>
        <pt x="507" y="731" on="0"/>
        <pt x="545" y="711" on="0"/>
        <pt x="545" y="691" on="1"/>
        <pt x="545" y="41" on="1"/>
        <pt x="545" y="22" on="0"/>
        <pt x="506" y="0" on="0"/>
        <pt x="480" y="0" on="1"/>
        <pt x="427" y="0" on="0"/>
        <pt x="405" y="41" on="1"/>
        <pt x="190" y="443" on="1"/>
        <pt x="190" y="41" on="1"/>
        <pt x="190" y="22" on="0"/>
        <pt x="151" y="0" on="0"/>
        <pt x="125" y="0" on="1"/>
        <pt x="98" y="0" on="0"/>
        <pt x="60" y="22" on="0"/>
      </contour>
    </TTGlyph>
    <TTGlyph name="Nacute" xMin="60" yMin="0" xMax="545" yMax="957">
      <contour>
        <pt x="60" y="41" on="1"/>
        <pt x="60" y="690" on="1"/>
        <pt x="60" y="710" on="0"/>
        <pt x="98" y="731" on="0"/>
        <pt x="125" y="731" on="1"/>
        <pt x="161" y="731" on="0"/>
        <pt x="199" y="705" on="0"/>
        <pt x="222" y="662" on="1"/>
        <pt x="415" y="289" on="1"/>
        <pt x="415" y="691" on="1"/>
        <pt x="415" y="711" on="0"/>
        <pt x="453" y="731" on="0"/>
        <pt x="507" y="731" on="0"/>
        <pt x="545" y="711" on="0"/>
        <pt x="545" y="691" on="1"/>
        <pt x="545" y="41" on="1"/>
        <pt x="545" y="22" on="0"/>
        <pt x="506" y="0" on="0"/>
        <pt x="480" y="0" on="1"/>
        <pt x="427" y="0" on="0"/>
        <pt x="405" y="41" on="1"/>
        <pt x="190" y="443" on="1"/>
        <pt x="190" y="41" on="1"/>
        <pt x="190" y="22" on="0"/>
        <pt x="151" y="0" on="0"/>
        <pt x="125" y="0" on="1"/>
        <pt x="98" y="0" on="0"/>
        <pt x="60" y="22" on="0"/>
      </contour>
      <contour>
        <pt x="190" y="860" on="1"/>
        <pt x="190" y="882" on="0"/>
        <pt x="207" y="891" on="1"/>
        <pt x="339" y="955" on="1"/>
        <pt x="349" y="957" on="0"/>
        <pt x="352" y="957" on="1"/>
        <pt x="368" y="957" on="0"/>
        <pt x="392" y="926" on="0"/>
        <pt x="392" y="908" on="1"/>
        <pt x="392" y="886" on="0"/>
        <pt x="374" y="878" on="1"/>
        <pt x="244" y="815" on="1"/>
        <pt x="234" y="811" on="0"/>
        <pt x="230" y="811" on="1"/>
        <pt x="214" y="811" on="0"/>
        <pt x="190" y="843" on="0"/>
      </contour>
    </TTGlyph>
    <TTGlyph name="Ncaron" xMin="60" yMin="0" xMax="545" yMax="975">
      <contour>
        <pt x="60" y="41" on="1"/>
        <pt x="60" y="690" on="1"/>
        <pt x="60" y="710" on="0"/>
        <pt x="98" y="731" on="0"/>
        <pt x="125" y="731" on="1"/>
        <pt x="161" y="731" on="0"/>
        <pt x="199" y="705" on="0"/>
        <pt x="222" y="662" on="1"/>
        <pt x="415" y="289" on="1"/>
        <pt x="415" y="691" on="1"/>
        <pt x="415" y="711" on="0"/>
        <pt x="453" y="731" on="0"/>
        <pt x="507" y="731" on="0"/>
        <pt x="545" y="711" on="0"/>
        <pt x="545" y="691" on="1"/>
        <pt x="545" y="41" on="1"/>
        <pt x="545" y="22" on="0"/>
        <pt x="506" y="0" on="0"/>
        <pt x="480" y="0" on="1"/>
        <pt x="427" y="0" on="0"/>
        <pt x="405" y="41" on="1"/>
        <pt x="190" y="443" on="1"/>
        <pt x="190" y="41" on="1"/>
        <pt x="190" y="22" on="0"/>
        <pt x="151" y="0" on="0"/>
        <pt x="125" y="0" on="1"/>
        <pt x="98" y="0" on="0"/>
        <pt x="60" y="22" on="0"/>
      </contour>
      <contour>
        <pt x="160" y="936" on="1"/>
        <pt x="160" y="951" on="0"/>
        <pt x="176" y="975" on="0"/>
        <pt x="188" y="975" on="1"/>
        <pt x="195" y="975" on="0"/>
        <pt x="200" y="971" on="1"/>
        <pt x="303" y="905" on="1"/>
        <pt x="405" y="971" on="1"/>
        <pt x="412" y="975" on="0"/>
        <pt x="417" y="975" on="1"/>
        <pt x="429" y="975" on="0"/>
        <pt x="445" y="951" on="0"/>
        <pt x="445" y="936" on="1"/>
        <pt x="445" y="911" on="0"/>
        <pt x="424" y="898" on="1"/>
        <pt x="321" y="832" on="1"/>
        <pt x="310" y="826" on="0"/>
        <pt x="303" y="826" on="1"/>
        <pt x="294" y="826" on="0"/>
        <pt x="285" y="832" on="1"/>
        <pt x="182" y="898" on="1"/>
        <pt x="160" y="911" on="0"/>
      </contour>
    </TTGlyph>
    <TTGlyph name="Ncommaaccent" xMin="60" yMin="-194" xMax="545" yMax="731">
      <contour>
        <pt x="60" y="41" on="1"/>
        <pt x="60" y="690" on="1"/>
        <pt x="60" y="710" on="0"/>
        <pt x="98" y="731" on="0"/>
        <pt x="125" y="731" on="1"/>
        <pt x="161" y="731" on="0"/>
        <pt x="199" y="705" on="0"/>
        <pt x="222" y="662" on="1"/>
        <pt x="415" y="289" on="1"/>
        <pt x="415" y="691" on="1"/>
        <pt x="415" y="711" on="0"/>
        <pt x="453" y="731" on="0"/>
        <pt x="507" y="731" on="0"/>
        <pt x="545" y="711" on="0"/>
        <pt x="545" y="691" on="1"/>
        <pt x="545" y="41" on="1"/>
        <pt x="545" y="22" on="0"/>
        <pt x="506" y="0" on="0"/>
        <pt x="480" y="0" on="1"/>
        <pt x="427" y="0" on="0"/>
        <pt x="405" y="41" on="1"/>
        <pt x="190" y="443" on="1"/>
        <pt x="190" y="41" on="1"/>
        <pt x="190" y="22" on="0"/>
        <pt x="151" y="0" on="0"/>
        <pt x="125" y="0" on="1"/>
        <pt x="98" y="0" on="0"/>
        <pt x="60" y="22" on="0"/>
      </contour>
      <contour>
        <pt x="201" y="-145" on="1"/>
        <pt x="201" y="-124" on="0"/>
        <pt x="218" y="-115" on="1"/>
        <pt x="350" y="-51" on="1"/>
        <pt x="358" y="-48" on="0"/>
        <pt x="363" y="-48" on="1"/>
        <pt x="379" y="-48" on="0"/>
        <pt x="403" y="-79" on="0"/>
        <pt x="403" y="-97" on="1"/>
        <pt x="403" y="-120" on="0"/>
        <pt x="385" y="-128" on="1"/>
        <pt x="255" y="-190" on="1"/>
        <pt x="245" y="-194" on="0"/>
        <pt x="241" y="-194" on="1"/>
        <pt x="225" y="-194" on="0"/>
        <pt x="201" y="-162" on="0"/>
      </contour>
    </TTGlyph>
    <TTGlyph name="Ntilde" xMin="60" yMin="0" xMax="545" yMax="946">
      <contour>
        <pt x="60" y="41" on="1"/>
        <pt x="60" y="690" on="1"/>
        <pt x="60" y="710" on="0"/>
        <pt x="98" y="731" on="0"/>
        <pt x="125" y="731" on="1"/>
        <pt x="161" y="731" on="0"/>
        <pt x="199" y="705" on="0"/>
        <pt x="222" y="662" on="1"/>
        <pt x="415" y="289" on="1"/>
        <pt x="415" y="691" on="1"/>
        <pt x="415" y="711" on="0"/>
        <pt x="453" y="731" on="0"/>
        <pt x="507" y="731" on="0"/>
        <pt x="545" y="711" on="0"/>
        <pt x="545" y="691" on="1"/>
        <pt x="545" y="41" on="1"/>
        <pt x="545" y="22" on="0"/>
        <pt x="506" y="0" on="0"/>
        <pt x="480" y="0" on="1"/>
        <pt x="427" y="0" on="0"/>
        <pt x="405" y="41" on="1"/>
        <pt x="190" y="443" on="1"/>
        <pt x="190" y="41" on="1"/>
        <pt x="190" y="22" on="0"/>
        <pt x="151" y="0" on="0"/>
        <pt x="125" y="0" on="1"/>
        <pt x="98" y="0" on="0"/>
        <pt x="60" y="22" on="0"/>
      </contour>
      <contour>
        <pt x="124" y="878" on="1"/>
        <pt x="124" y="906" on="0"/>
        <pt x="160" y="939" on="0"/>
        <pt x="193" y="946" on="0"/>
        <pt x="210" y="946" on="1"/>
        <pt x="240" y="946" on="0"/>
        <pt x="326" y="917" on="0"/>
        <pt x="352" y="917" on="1"/>
        <pt x="376" y="917" on="0"/>
        <pt x="425" y="941" on="0"/>
        <pt x="433" y="941" on="1"/>
        <pt x="450" y="941" on="0"/>
        <pt x="466" y="911" on="0"/>
        <pt x="466" y="899" on="1"/>
        <pt x="466" y="877" on="0"/>
        <pt x="447" y="848" on="0"/>
        <pt x="416" y="835" on="0"/>
        <pt x="392" y="831" on="0"/>
        <pt x="381" y="831" on="1"/>
        <pt x="346" y="831" on="0"/>
        <pt x="262" y="860" on="0"/>
        <pt x="239" y="860" on="1"/>
        <pt x="215" y="860" on="0"/>
        <pt x="165" y="836" on="0"/>
        <pt x="157" y="836" on="1"/>
        <pt x="140" y="836" on="0"/>
        <pt x="124" y="866" on="0"/>
      </contour>
    </TTGlyph>
    <TTGlyph name="O" xMin="52" yMin="-6" xMax="521" yMax="731">
      <contour>
        <pt x="52" y="223" on="1"/>
        <pt x="52" y="502" on="1"/>
        <pt x="52" y="621" on="0"/>
        <pt x="179" y="731" on="0"/>
        <pt x="393" y="731" on="0"/>
        <pt x="521" y="621" on="0"/>
        <pt x="521" y="502" on="1"/>
        <pt x="521" y="223" on="1"/>
        <pt x="521" y="104" on="0"/>
        <pt x="393" y="-6" on="0"/>
        <pt x="179" y="-6" on="0"/>
        <pt x="52" y="104" on="0"/>
      </contour>
      <contour>
        <pt x="182" y="223" on="1"/>
        <pt x="182" y="108" on="0"/>
        <pt x="286" y="108" on="1"/>
        <pt x="391" y="108" on="0"/>
        <pt x="391" y="223" on="1"/>
        <pt x="391" y="502" on="1"/>
        <pt x="391" y="617" on="0"/>
        <pt x="286" y="617" on="1"/>
        <pt x="182" y="617" on="0"/>
        <pt x="182" y="502" on="1"/>
      </contour>
    </TTGlyph>
    <TTGlyph name="OE" xMin="53" yMin="-6" xMax="813" yMax="731">
      <contour>
        <pt x="53" y="223" on="1"/>
        <pt x="53" y="502" on="1"/>
        <pt x="53" y="621" on="0"/>
        <pt x="165" y="731" on="0"/>
        <pt x="263" y="731" on="1"/>
        <pt x="308" y="731" on="0"/>
        <pt x="389" y="693" on="0"/>
        <pt x="409" y="657" on="1"/>
        <pt x="409" y="690" on="1"/>
        <pt x="409" y="709" on="0"/>
        <pt x="443" y="731" on="0"/>
        <pt x="466" y="731" on="1"/>
        <pt x="773" y="731" on="1"/>
        <pt x="793" y="731" on="0"/>
        <pt x="813" y="698" on="0"/>
        <pt x="813" y="675" on="1"/>
        <pt x="813" y="651" on="0"/>
        <pt x="792" y="617" on="0"/>
        <pt x="773" y="617" on="1"/>
        <pt x="522" y="617" on="1"/>
        <pt x="522" y="417" on="1"/>
        <pt x="642" y="417" on="1"/>
        <pt x="661" y="417" on="0"/>
        <pt x="682" y="387" on="0"/>
        <pt x="682" y="365" on="1"/>
        <pt x="682" y="345" on="0"/>
        <pt x="661" y="315" on="0"/>
        <pt x="642" y="315" on="1"/>
        <pt x="522" y="315" on="1"/>
        <pt x="522" y="114" on="1"/>
        <pt x="773" y="114" on="1"/>
        <pt x="792" y="114" on="0"/>
        <pt x="813" y="80" on="0"/>
        <pt x="813" y="56" on="1"/>
        <pt x="813" y="33" on="0"/>
        <pt x="793" y="0" on="0"/>
        <pt x="773" y="0" on="1"/>
        <pt x="466" y="0" on="1"/>
        <pt x="443" y="0" on="0"/>
        <pt x="409" y="22" on="0"/>
        <pt x="409" y="41" on="1"/>
        <pt x="409" y="68" on="1"/>
        <pt x="389" y="32" on="0"/>
        <pt x="308" y="-6" on="0"/>
        <pt x="263" y="-6" on="1"/>
        <pt x="165" y="-6" on="0"/>
        <pt x="53" y="104" on="0"/>
      </contour>
      <contour>
        <pt x="183" y="223" on="1"/>
        <pt x="183" y="108" on="0"/>
        <pt x="287" y="108" on="1"/>
        <pt x="392" y="108" on="0"/>
        <pt x="392" y="223" on="1"/>
        <pt x="392" y="502" on="1"/>
        <pt x="392" y="617" on="0"/>
        <pt x="287" y="617" on="1"/>
        <pt x="183" y="617" on="0"/>
        <pt x="183" y="502" on="1"/>
      </contour>
    </TTGlyph>
    <TTGlyph name="Oacute" xMin="52" yMin="-6" xMax="521" yMax="957">
      <contour>
        <pt x="52" y="223" on="1"/>
        <pt x="52" y="502" on="1"/>
        <pt x="52" y="621" on="0"/>
        <pt x="179" y="731" on="0"/>
        <pt x="393" y="731" on="0"/>
        <pt x="521" y="621" on="0"/>
        <pt x="521" y="502" on="1"/>
        <pt x="521" y="223" on="1"/>
        <pt x="521" y="104" on="0"/>
        <pt x="393" y="-6" on="0"/>
        <pt x="179" y="-6" on="0"/>
        <pt x="52" y="104" on="0"/>
      </contour>
      <contour>
        <pt x="182" y="223" on="1"/>
        <pt x="182" y="108" on="0"/>
        <pt x="286" y="108" on="1"/>
        <pt x="391" y="108" on="0"/>
        <pt x="391" y="223" on="1"/>
        <pt x="391" y="502" on="1"/>
        <pt x="391" y="617" on="0"/>
        <pt x="286" y="617" on="1"/>
        <pt x="182" y="617" on="0"/>
        <pt x="182" y="502" on="1"/>
      </contour>
      <contour>
        <pt x="220" y="860" on="1"/>
        <pt x="220" y="882" on="0"/>
        <pt x="237" y="891" on="1"/>
        <pt x="369" y="955" on="1"/>
        <pt x="379" y="957" on="0"/>
        <pt x="382" y="957" on="1"/>
        <pt x="398" y="957" on="0"/>
        <pt x="422" y="926" on="0"/>
        <pt x="422" y="908" on="1"/>
        <pt x="422" y="886" on="0"/>
        <pt x="404" y="878" on="1"/>
        <pt x="274" y="815" on="1"/>
        <pt x="264" y="811" on="0"/>
        <pt x="260" y="811" on="1"/>
        <pt x="244" y="811" on="0"/>
        <pt x="220" y="843" on="0"/>
      </contour>
    </TTGlyph>
    <TTGlyph name="Obreve" xMin="52" yMin="-6" xMax="521" yMax="964">
      <contour>
        <pt x="52" y="223" on="1"/>
        <pt x="52" y="502" on="1"/>
        <pt x="52" y="621" on="0"/>
        <pt x="179" y="731" on="0"/>
        <pt x="393" y="731" on="0"/>
        <pt x="521" y="621" on="0"/>
        <pt x="521" y="502" on="1"/>
        <pt x="521" y="223" on="1"/>
        <pt x="521" y="104" on="0"/>
        <pt x="393" y="-6" on="0"/>
        <pt x="179" y="-6" on="0"/>
        <pt x="52" y="104" on="0"/>
      </contour>
      <contour>
        <pt x="152" y="964" on="1"/>
        <pt x="222" y="964" on="1"/>
        <pt x="222" y="932" on="0"/>
        <pt x="260" y="889" on="0"/>
        <pt x="285" y="889" on="1"/>
        <pt x="309" y="889" on="0"/>
        <pt x="348" y="932" on="0"/>
        <pt x="348" y="964" on="1"/>
        <pt x="418" y="964" on="1"/>
        <pt x="418" y="911" on="0"/>
        <pt x="337" y="831" on="0"/>
        <pt x="233" y="831" on="0"/>
        <pt x="152" y="911" on="0"/>
      </contour>
      <contour>
        <pt x="182" y="223" on="1"/>
        <pt x="182" y="108" on="0"/>
        <pt x="286" y="108" on="1"/>
        <pt x="391" y="108" on="0"/>
        <pt x="391" y="223" on="1"/>
        <pt x="391" y="502" on="1"/>
        <pt x="391" y="617" on="0"/>
        <pt x="286" y="617" on="1"/>
        <pt x="182" y="617" on="0"/>
        <pt x="182" y="502" on="1"/>
      </contour>
    </TTGlyph>
    <TTGlyph name="Ocircumflex" xMin="52" yMin="-6" xMax="521" yMax="957">
      <contour>
        <pt x="52" y="223" on="1"/>
        <pt x="52" y="502" on="1"/>
        <pt x="52" y="621" on="0"/>
        <pt x="179" y="731" on="0"/>
        <pt x="393" y="731" on="0"/>
        <pt x="521" y="621" on="0"/>
        <pt x="521" y="502" on="1"/>
        <pt x="521" y="223" on="1"/>
        <pt x="521" y="104" on="0"/>
        <pt x="393" y="-6" on="0"/>
        <pt x="179" y="-6" on="0"/>
        <pt x="52" y="104" on="0"/>
      </contour>
      <contour>
        <pt x="143" y="859" on="1"/>
        <pt x="143" y="885" on="0"/>
        <pt x="165" y="896" on="1"/>
        <pt x="269" y="952" on="1"/>
        <pt x="277" y="957" on="0"/>
        <pt x="286" y="957" on="1"/>
        <pt x="293" y="957" on="0"/>
        <pt x="303" y="952" on="1"/>
        <pt x="407" y="897" on="1"/>
        <pt x="428" y="884" on="0"/>
        <pt x="428" y="858" on="1"/>
        <pt x="428" y="843" on="0"/>
        <pt x="412" y="819" on="0"/>
        <pt x="400" y="819" on="1"/>
        <pt x="394" y="819" on="0"/>
        <pt x="390" y="822" on="1"/>
        <pt x="286" y="878" on="1"/>
        <pt x="182" y="822" on="1"/>
        <pt x="176" y="819" on="0"/>
        <pt x="171" y="819" on="1"/>
        <pt x="159" y="819" on="0"/>
        <pt x="143" y="843" on="0"/>
      </contour>
      <contour>
        <pt x="182" y="223" on="1"/>
        <pt x="182" y="108" on="0"/>
        <pt x="286" y="108" on="1"/>
        <pt x="391" y="108" on="0"/>
        <pt x="391" y="223" on="1"/>
        <pt x="391" y="502" on="1"/>
        <pt x="391" y="617" on="0"/>
        <pt x="286" y="617" on="1"/>
        <pt x="182" y="617" on="0"/>
        <pt x="182" y="502" on="1"/>
      </contour>
    </TTGlyph>
    <TTGlyph name="Odieresis" xMin="52" yMin="-6" xMax="521" yMax="925">
      <contour>
        <pt x="52" y="223" on="1"/>
        <pt x="52" y="502" on="1"/>
        <pt x="52" y="621" on="0"/>
        <pt x="179" y="731" on="0"/>
        <pt x="393" y="731" on="0"/>
        <pt x="521" y="621" on="0"/>
        <pt x="521" y="502" on="1"/>
        <pt x="521" y="223" on="1"/>
        <pt x="521" y="104" on="0"/>
        <pt x="393" y="-6" on="0"/>
        <pt x="179" y="-6" on="0"/>
        <pt x="52" y="104" on="0"/>
      </contour>
      <contour>
        <pt x="162" y="852" on="0"/>
        <pt x="162" y="894" on="0"/>
        <pt x="192" y="925" on="0"/>
        <pt x="234" y="925" on="0"/>
        <pt x="263" y="894" on="0"/>
        <pt x="263" y="852" on="0"/>
        <pt x="234" y="820" on="0"/>
        <pt x="192" y="820" on="0"/>
      </contour>
      <contour>
        <pt x="182" y="223" on="1"/>
        <pt x="182" y="108" on="0"/>
        <pt x="286" y="108" on="1"/>
        <pt x="391" y="108" on="0"/>
        <pt x="391" y="223" on="1"/>
        <pt x="391" y="502" on="1"/>
        <pt x="391" y="617" on="0"/>
        <pt x="286" y="617" on="1"/>
        <pt x="182" y="617" on="0"/>
        <pt x="182" y="502" on="1"/>
      </contour>
      <contour>
        <pt x="311" y="852" on="0"/>
        <pt x="311" y="894" on="0"/>
        <pt x="341" y="925" on="0"/>
        <pt x="363" y="925" on="1"/>
        <pt x="383" y="925" on="0"/>
        <pt x="413" y="894" on="0"/>
        <pt x="413" y="852" on="0"/>
        <pt x="383" y="820" on="0"/>
        <pt x="363" y="820" on="1"/>
        <pt x="342" y="820" on="0"/>
      </contour>
    </TTGlyph>
    <TTGlyph name="Ograve" xMin="52" yMin="-6" xMax="521" yMax="957">
      <contour>
        <pt x="52" y="223" on="1"/>
        <pt x="52" y="502" on="1"/>
        <pt x="52" y="621" on="0"/>
        <pt x="179" y="731" on="0"/>
        <pt x="393" y="731" on="0"/>
        <pt x="521" y="621" on="0"/>
        <pt x="521" y="502" on="1"/>
        <pt x="521" y="223" on="1"/>
        <pt x="521" y="104" on="0"/>
        <pt x="393" y="-6" on="0"/>
        <pt x="179" y="-6" on="0"/>
        <pt x="52" y="104" on="0"/>
      </contour>
      <contour>
        <pt x="173" y="908" on="1"/>
        <pt x="173" y="926" on="0"/>
        <pt x="197" y="957" on="0"/>
        <pt x="213" y="957" on="1"/>
        <pt x="216" y="957" on="0"/>
        <pt x="226" y="955" on="1"/>
        <pt x="358" y="891" on="1"/>
        <pt x="375" y="882" on="0"/>
        <pt x="375" y="860" on="1"/>
        <pt x="375" y="843" on="0"/>
        <pt x="351" y="811" on="0"/>
        <pt x="335" y="811" on="1"/>
        <pt x="331" y="811" on="0"/>
        <pt x="321" y="815" on="1"/>
        <pt x="191" y="878" on="1"/>
        <pt x="173" y="886" on="0"/>
      </contour>
      <contour>
        <pt x="182" y="223" on="1"/>
        <pt x="182" y="108" on="0"/>
        <pt x="286" y="108" on="1"/>
        <pt x="391" y="108" on="0"/>
        <pt x="391" y="223" on="1"/>
        <pt x="391" y="502" on="1"/>
        <pt x="391" y="617" on="0"/>
        <pt x="286" y="617" on="1"/>
        <pt x="182" y="617" on="0"/>
        <pt x="182" y="502" on="1"/>
      </contour>
    </TTGlyph>
    <TTGlyph name="Ohungarumlaut" xMin="52" yMin="-6" xMax="521" yMax="959">
      <contour>
        <pt x="52" y="223" on="1"/>
        <pt x="52" y="502" on="1"/>
        <pt x="52" y="621" on="0"/>
        <pt x="179" y="731" on="0"/>
        <pt x="393" y="731" on="0"/>
        <pt x="521" y="621" on="0"/>
        <pt x="521" y="502" on="1"/>
        <pt x="521" y="223" on="1"/>
        <pt x="521" y="104" on="0"/>
        <pt x="393" y="-6" on="0"/>
        <pt x="179" y="-6" on="0"/>
        <pt x="52" y="104" on="0"/>
      </contour>
      <contour>
        <pt x="163" y="847" on="1"/>
        <pt x="163" y="856" on="0"/>
        <pt x="170" y="863" on="1"/>
        <pt x="254" y="951" on="1"/>
        <pt x="261" y="959" on="0"/>
        <pt x="273" y="959" on="1"/>
        <pt x="287" y="959" on="0"/>
        <pt x="311" y="934" on="0"/>
        <pt x="311" y="921" on="1"/>
        <pt x="311" y="911" on="0"/>
        <pt x="304" y="904" on="1"/>
        <pt x="222" y="818" on="1"/>
        <pt x="214" y="809" on="0"/>
        <pt x="203" y="809" on="1"/>
        <pt x="188" y="809" on="0"/>
        <pt x="163" y="833" on="0"/>
      </contour>
      <contour>
        <pt x="182" y="223" on="1"/>
        <pt x="182" y="108" on="0"/>
        <pt x="286" y="108" on="1"/>
        <pt x="391" y="108" on="0"/>
        <pt x="391" y="223" on="1"/>
        <pt x="391" y="502" on="1"/>
        <pt x="391" y="617" on="0"/>
        <pt x="286" y="617" on="1"/>
        <pt x="182" y="617" on="0"/>
        <pt x="182" y="502" on="1"/>
      </contour>
      <contour>
        <pt x="320" y="847" on="1"/>
        <pt x="320" y="856" on="0"/>
        <pt x="327" y="863" on="1"/>
        <pt x="411" y="951" on="1"/>
        <pt x="419" y="959" on="0"/>
        <pt x="430" y="959" on="1"/>
        <pt x="444" y="959" on="0"/>
        <pt x="468" y="934" on="0"/>
        <pt x="468" y="921" on="1"/>
        <pt x="468" y="911" on="0"/>
        <pt x="461" y="904" on="1"/>
        <pt x="379" y="818" on="1"/>
        <pt x="371" y="809" on="0"/>
        <pt x="360" y="809" on="1"/>
        <pt x="345" y="809" on="0"/>
        <pt x="320" y="833" on="0"/>
      </contour>
    </TTGlyph>
    <TTGlyph name="Omacron" xMin="52" yMin="-6" xMax="521" yMax="938">
      <contour>
        <pt x="52" y="223" on="1"/>
        <pt x="52" y="502" on="1"/>
        <pt x="52" y="621" on="0"/>
        <pt x="179" y="731" on="0"/>
        <pt x="393" y="731" on="0"/>
        <pt x="521" y="621" on="0"/>
        <pt x="521" y="502" on="1"/>
        <pt x="521" y="223" on="1"/>
        <pt x="521" y="104" on="0"/>
        <pt x="393" y="-6" on="0"/>
        <pt x="179" y="-6" on="0"/>
        <pt x="52" y="104" on="0"/>
      </contour>
      <contour>
        <pt x="143" y="895" on="1"/>
        <pt x="143" y="913" on="0"/>
        <pt x="165" y="938" on="0"/>
        <pt x="183" y="938" on="1"/>
        <pt x="388" y="938" on="1"/>
        <pt x="404" y="938" on="0"/>
        <pt x="429" y="913" on="0"/>
        <pt x="429" y="877" on="0"/>
        <pt x="404" y="853" on="0"/>
        <pt x="388" y="853" on="1"/>
        <pt x="183" y="853" on="1"/>
        <pt x="165" y="853" on="0"/>
        <pt x="143" y="876" on="0"/>
      </contour>
      <contour>
        <pt x="182" y="223" on="1"/>
        <pt x="182" y="108" on="0"/>
        <pt x="286" y="108" on="1"/>
        <pt x="391" y="108" on="0"/>
        <pt x="391" y="223" on="1"/>
        <pt x="391" y="502" on="1"/>
        <pt x="391" y="617" on="0"/>
        <pt x="286" y="617" on="1"/>
        <pt x="182" y="617" on="0"/>
        <pt x="182" y="502" on="1"/>
      </contour>
    </TTGlyph>
    <TTGlyph name="Oslash" xMin="52" yMin="-40" xMax="521" yMax="771">
      <contour>
        <pt x="52" y="223" on="1"/>
        <pt x="52" y="502" on="1"/>
        <pt x="52" y="621" on="0"/>
        <pt x="179" y="731" on="0"/>
        <pt x="286" y="731" on="1"/>
        <pt x="356" y="731" on="0"/>
        <pt x="406" y="708" on="1"/>
        <pt x="427" y="750" on="1"/>
        <pt x="438" y="771" on="0"/>
        <pt x="463" y="771" on="1"/>
        <pt x="482" y="771" on="0"/>
        <pt x="513" y="745" on="0"/>
        <pt x="513" y="726" on="1"/>
        <pt x="513" y="716" on="0"/>
        <pt x="509" y="708" on="1"/>
        <pt x="480" y="650" on="1"/>
        <pt x="521" y="593" on="0"/>
        <pt x="521" y="502" on="1"/>
        <pt x="521" y="223" on="1"/>
        <pt x="521" y="104" on="0"/>
        <pt x="393" y="-6" on="0"/>
        <pt x="286" y="-6" on="1"/>
        <pt x="214" y="-6" on="0"/>
        <pt x="167" y="16" on="1"/>
        <pt x="150" y="-18" on="1"/>
        <pt x="139" y="-40" on="0"/>
        <pt x="111" y="-40" on="1"/>
        <pt x="90" y="-40" on="0"/>
        <pt x="63" y="-13" on="0"/>
        <pt x="63" y="4" on="1"/>
        <pt x="63" y="13" on="0"/>
        <pt x="68" y="21" on="1"/>
        <pt x="94" y="73" on="1"/>
        <pt x="52" y="129" on="0"/>
      </contour>
      <contour>
        <pt x="182" y="252" on="1"/>
        <pt x="352" y="598" on="1"/>
        <pt x="327" y="617" on="0"/>
        <pt x="286" y="617" on="1"/>
        <pt x="182" y="617" on="0"/>
        <pt x="182" y="502" on="1"/>
      </contour>
      <contour>
        <pt x="221" y="125" on="1"/>
        <pt x="245" y="108" on="0"/>
        <pt x="286" y="108" on="1"/>
        <pt x="391" y="108" on="0"/>
        <pt x="391" y="223" on="1"/>
        <pt x="391" y="469" on="1"/>
      </contour>
    </TTGlyph>
    <TTGlyph name="Oslashacute" xMin="52" yMin="-40" xMax="521" yMax="957">
      <contour>
        <pt x="52" y="223" on="1"/>
        <pt x="52" y="502" on="1"/>
        <pt x="52" y="621" on="0"/>
        <pt x="179" y="731" on="0"/>
        <pt x="286" y="731" on="1"/>
        <pt x="356" y="731" on="0"/>
        <pt x="406" y="708" on="1"/>
        <pt x="427" y="750" on="1"/>
        <pt x="438" y="771" on="0"/>
        <pt x="463" y="771" on="1"/>
        <pt x="482" y="771" on="0"/>
        <pt x="513" y="745" on="0"/>
        <pt x="513" y="726" on="1"/>
        <pt x="513" y="716" on="0"/>
        <pt x="509" y="708" on="1"/>
        <pt x="480" y="650" on="1"/>
        <pt x="521" y="593" on="0"/>
        <pt x="521" y="502" on="1"/>
        <pt x="521" y="223" on="1"/>
        <pt x="521" y="104" on="0"/>
        <pt x="393" y="-6" on="0"/>
        <pt x="286" y="-6" on="1"/>
        <pt x="214" y="-6" on="0"/>
        <pt x="167" y="16" on="1"/>
        <pt x="150" y="-18" on="1"/>
        <pt x="139" y="-40" on="0"/>
        <pt x="111" y="-40" on="1"/>
        <pt x="90" y="-40" on="0"/>
        <pt x="63" y="-13" on="0"/>
        <pt x="63" y="4" on="1"/>
        <pt x="63" y="13" on="0"/>
        <pt x="68" y="21" on="1"/>
        <pt x="94" y="73" on="1"/>
        <pt x="52" y="129" on="0"/>
      </contour>
      <contour>
        <pt x="182" y="252" on="1"/>
        <pt x="352" y="598" on="1"/>
        <pt x="327" y="617" on="0"/>
        <pt x="286" y="617" on="1"/>
        <pt x="182" y="617" on="0"/>
        <pt x="182" y="502" on="1"/>
      </contour>
      <contour>
        <pt x="204" y="860" on="1"/>
        <pt x="204" y="882" on="0"/>
        <pt x="221" y="891" on="1"/>
        <pt x="353" y="955" on="1"/>
        <pt x="363" y="957" on="0"/>
        <pt x="366" y="957" on="1"/>
        <pt x="382" y="957" on="0"/>
        <pt x="406" y="926" on="0"/>
        <pt x="406" y="908" on="1"/>
        <pt x="406" y="886" on="0"/>
        <pt x="388" y="878" on="1"/>
        <pt x="258" y="815" on="1"/>
        <pt x="248" y="811" on="0"/>
        <pt x="244" y="811" on="1"/>
        <pt x="228" y="811" on="0"/>
        <pt x="204" y="843" on="0"/>
      </contour>
      <contour>
        <pt x="221" y="125" on="1"/>
        <pt x="245" y="108" on="0"/>
        <pt x="286" y="108" on="1"/>
        <pt x="391" y="108" on="0"/>
        <pt x="391" y="223" on="1"/>
        <pt x="391" y="469" on="1"/>
      </contour>
    </TTGlyph>
    <TTGlyph name="Otilde" xMin="52" yMin="-6" xMax="521" yMax="946">
      <contour>
        <pt x="52" y="223" on="1"/>
        <pt x="52" y="502" on="1"/>
        <pt x="52" y="621" on="0"/>
        <pt x="179" y="731" on="0"/>
        <pt x="393" y="731" on="0"/>
        <pt x="521" y="621" on="0"/>
        <pt x="521" y="502" on="1"/>
        <pt x="521" y="223" on="1"/>
        <pt x="521" y="104" on="0"/>
        <pt x="393" y="-6" on="0"/>
        <pt x="179" y="-6" on="0"/>
        <pt x="52" y="104" on="0"/>
      </contour>
      <contour>
        <pt x="115" y="878" on="1"/>
        <pt x="115" y="906" on="0"/>
        <pt x="151" y="939" on="0"/>
        <pt x="184" y="946" on="0"/>
        <pt x="201" y="946" on="1"/>
        <pt x="230" y="946" on="0"/>
        <pt x="316" y="917" on="0"/>
        <pt x="343" y="917" on="1"/>
        <pt x="367" y="917" on="0"/>
        <pt x="416" y="941" on="0"/>
        <pt x="424" y="941" on="1"/>
        <pt x="441" y="941" on="0"/>
        <pt x="457" y="911" on="0"/>
        <pt x="457" y="899" on="1"/>
        <pt x="457" y="877" on="0"/>
        <pt x="438" y="848" on="0"/>
        <pt x="407" y="835" on="0"/>
        <pt x="383" y="831" on="0"/>
        <pt x="372" y="831" on="1"/>
        <pt x="337" y="831" on="0"/>
        <pt x="253" y="860" on="0"/>
        <pt x="230" y="860" on="1"/>
        <pt x="206" y="860" on="0"/>
        <pt x="156" y="836" on="0"/>
        <pt x="148" y="836" on="1"/>
        <pt x="131" y="836" on="0"/>
        <pt x="115" y="866" on="0"/>
      </contour>
      <contour>
        <pt x="182" y="223" on="1"/>
        <pt x="182" y="108" on="0"/>
        <pt x="286" y="108" on="1"/>
        <pt x="391" y="108" on="0"/>
        <pt x="391" y="223" on="1"/>
        <pt x="391" y="502" on="1"/>
        <pt x="391" y="617" on="0"/>
        <pt x="286" y="617" on="1"/>
        <pt x="182" y="617" on="0"/>
        <pt x="182" y="502" on="1"/>
      </contour>
    </TTGlyph>
    <TTGlyph name="P" xMin="60" yMin="0" xMax="537" yMax="731">
      <contour>
        <pt x="60" y="41" on="1"/>
        <pt x="60" y="691" on="1"/>
        <pt x="60" y="707" on="0"/>
        <pt x="87" y="731" on="0"/>
        <pt x="109" y="731" on="1"/>
        <pt x="310" y="731" on="1"/>
        <pt x="413" y="731" on="0"/>
        <pt x="537" y="622" on="0"/>
        <pt x="537" y="506" on="1"/>
        <pt x="537" y="500" on="1"/>
        <pt x="537" y="383" on="0"/>
        <pt x="408" y="273" on="0"/>
        <pt x="302" y="273" on="1"/>
        <pt x="190" y="273" on="1"/>
        <pt x="190" y="41" on="1"/>
        <pt x="190" y="22" on="0"/>
        <pt x="151" y="0" on="0"/>
        <pt x="125" y="0" on="1"/>
        <pt x="98" y="0" on="0"/>
        <pt x="60" y="22" on="0"/>
      </contour>
      <contour>
        <pt x="190" y="375" on="1"/>
        <pt x="302" y="375" on="1"/>
        <pt x="352" y="375" on="0"/>
        <pt x="407" y="433" on="0"/>
        <pt x="407" y="490" on="1"/>
        <pt x="407" y="502" on="1"/>
        <pt x="407" y="559" on="0"/>
        <pt x="352" y="617" on="0"/>
        <pt x="302" y="617" on="1"/>
        <pt x="190" y="617" on="1"/>
      </contour>
    </TTGlyph>
    <TTGlyph name="Q" xMin="52" yMin="-109" xMax="521" yMax="731">
      <contour>
        <pt x="52" y="223" on="1"/>
        <pt x="52" y="502" on="1"/>
        <pt x="52" y="621" on="0"/>
        <pt x="179" y="731" on="0"/>
        <pt x="393" y="731" on="0"/>
        <pt x="521" y="621" on="0"/>
        <pt x="521" y="502" on="1"/>
        <pt x="521" y="223" on="1"/>
        <pt x="521" y="117" on="0"/>
        <pt x="417" y="7" on="0"/>
        <pt x="327" y="-3" on="1"/>
        <pt x="327" y="-68" on="1"/>
        <pt x="327" y="-87" on="0"/>
        <pt x="303" y="-109" on="0"/>
        <pt x="269" y="-109" on="0"/>
        <pt x="244" y="-87" on="0"/>
        <pt x="244" y="-68" on="1"/>
        <pt x="244" y="-3" on="1"/>
        <pt x="52" y="18" on="0"/>
      </contour>
      <contour>
        <pt x="182" y="223" on="1"/>
        <pt x="182" y="136" on="0"/>
        <pt x="244" y="116" on="1"/>
        <pt x="244" y="169" on="1"/>
        <pt x="244" y="189" on="0"/>
        <pt x="269" y="209" on="0"/>
        <pt x="303" y="209" on="0"/>
        <pt x="327" y="189" on="0"/>
        <pt x="327" y="169" on="1"/>
        <pt x="327" y="116" on="1"/>
        <pt x="391" y="137" on="0"/>
        <pt x="391" y="223" on="1"/>
        <pt x="391" y="502" on="1"/>
        <pt x="391" y="559" on="0"/>
        <pt x="336" y="617" on="0"/>
        <pt x="286" y="617" on="1"/>
        <pt x="182" y="617" on="0"/>
        <pt x="182" y="502" on="1"/>
      </contour>
    </TTGlyph>
    <TTGlyph name="R" xMin="60" yMin="-5" xMax="542" yMax="731">
      <contour>
        <pt x="60" y="41" on="1"/>
        <pt x="60" y="691" on="1"/>
        <pt x="60" y="707" on="0"/>
        <pt x="84" y="731" on="0"/>
        <pt x="102" y="731" on="1"/>
        <pt x="300" y="731" on="1"/>
        <pt x="537" y="731" on="0"/>
        <pt x="537" y="522" on="1"/>
        <pt x="537" y="440" on="0"/>
        <pt x="466" y="340" on="0"/>
        <pt x="406" y="322" on="1"/>
        <pt x="537" y="79" on="1"/>
        <pt x="542" y="73" on="0"/>
        <pt x="542" y="63" on="1"/>
        <pt x="542" y="38" on="0"/>
        <pt x="490" y="-5" on="0"/>
        <pt x="432" y="-5" on="0"/>
        <pt x="416" y="26" on="1"/>
        <pt x="274" y="302" on="1"/>
        <pt x="190" y="302" on="1"/>
        <pt x="190" y="41" on="1"/>
        <pt x="190" y="22" on="0"/>
        <pt x="152" y="0" on="0"/>
        <pt x="125" y="0" on="1"/>
        <pt x="99" y="0" on="0"/>
        <pt x="60" y="22" on="0"/>
      </contour>
      <contour>
        <pt x="190" y="404" on="1"/>
        <pt x="300" y="404" on="1"/>
        <pt x="407" y="404" on="0"/>
        <pt x="407" y="510" on="1"/>
        <pt x="407" y="617" on="0"/>
        <pt x="300" y="617" on="1"/>
        <pt x="190" y="617" on="1"/>
      </contour>
    </TTGlyph>
    <TTGlyph name="Racute" xMin="60" yMin="-5" xMax="542" yMax="957">
      <contour>
        <pt x="60" y="41" on="1"/>
        <pt x="60" y="691" on="1"/>
        <pt x="60" y="707" on="0"/>
        <pt x="84" y="731" on="0"/>
        <pt x="102" y="731" on="1"/>
        <pt x="300" y="731" on="1"/>
        <pt x="537" y="731" on="0"/>
        <pt x="537" y="522" on="1"/>
        <pt x="537" y="440" on="0"/>
        <pt x="466" y="340" on="0"/>
        <pt x="406" y="322" on="1"/>
        <pt x="537" y="79" on="1"/>
        <pt x="542" y="73" on="0"/>
        <pt x="542" y="63" on="1"/>
        <pt x="542" y="38" on="0"/>
        <pt x="490" y="-5" on="0"/>
        <pt x="432" y="-5" on="0"/>
        <pt x="416" y="26" on="1"/>
        <pt x="274" y="302" on="1"/>
        <pt x="190" y="302" on="1"/>
        <pt x="190" y="41" on="1"/>
        <pt x="190" y="22" on="0"/>
        <pt x="152" y="0" on="0"/>
        <pt x="125" y="0" on="1"/>
        <pt x="99" y="0" on="0"/>
        <pt x="60" y="22" on="0"/>
      </contour>
      <contour>
        <pt x="190" y="404" on="1"/>
        <pt x="300" y="404" on="1"/>
        <pt x="407" y="404" on="0"/>
        <pt x="407" y="510" on="1"/>
        <pt x="407" y="617" on="0"/>
        <pt x="300" y="617" on="1"/>
        <pt x="190" y="617" on="1"/>
      </contour>
      <contour>
        <pt x="217" y="860" on="1"/>
        <pt x="217" y="882" on="0"/>
        <pt x="234" y="891" on="1"/>
        <pt x="366" y="955" on="1"/>
        <pt x="376" y="957" on="0"/>
        <pt x="379" y="957" on="1"/>
        <pt x="395" y="957" on="0"/>
        <pt x="419" y="926" on="0"/>
        <pt x="419" y="908" on="1"/>
        <pt x="419" y="886" on="0"/>
        <pt x="401" y="878" on="1"/>
        <pt x="271" y="815" on="1"/>
        <pt x="261" y="811" on="0"/>
        <pt x="257" y="811" on="1"/>
        <pt x="241" y="811" on="0"/>
        <pt x="217" y="843" on="0"/>
      </contour>
    </TTGlyph>
    <TTGlyph name="Rcaron" xMin="60" yMin="-5" xMax="542" yMax="975">
      <contour>
        <pt x="60" y="41" on="1"/>
        <pt x="60" y="691" on="1"/>
        <pt x="60" y="707" on="0"/>
        <pt x="84" y="731" on="0"/>
        <pt x="102" y="731" on="1"/>
        <pt x="300" y="731" on="1"/>
        <pt x="537" y="731" on="0"/>
        <pt x="537" y="522" on="1"/>
        <pt x="537" y="440" on="0"/>
        <pt x="466" y="340" on="0"/>
        <pt x="406" y="322" on="1"/>
        <pt x="537" y="79" on="1"/>
        <pt x="542" y="73" on="0"/>
        <pt x="542" y="63" on="1"/>
        <pt x="542" y="38" on="0"/>
        <pt x="490" y="-5" on="0"/>
        <pt x="432" y="-5" on="0"/>
        <pt x="416" y="26" on="1"/>
        <pt x="274" y="302" on="1"/>
        <pt x="190" y="302" on="1"/>
        <pt x="190" y="41" on="1"/>
        <pt x="190" y="22" on="0"/>
        <pt x="152" y="0" on="0"/>
        <pt x="125" y="0" on="1"/>
        <pt x="99" y="0" on="0"/>
        <pt x="60" y="22" on="0"/>
      </contour>
      <contour>
        <pt x="132" y="936" on="1"/>
        <pt x="132" y="951" on="0"/>
        <pt x="148" y="975" on="0"/>
        <pt x="160" y="975" on="1"/>
        <pt x="167" y="975" on="0"/>
        <pt x="172" y="971" on="1"/>
        <pt x="275" y="905" on="1"/>
        <pt x="377" y="971" on="1"/>
        <pt x="384" y="975" on="0"/>
        <pt x="389" y="975" on="1"/>
        <pt x="401" y="975" on="0"/>
        <pt x="417" y="951" on="0"/>
        <pt x="417" y="936" on="1"/>
        <pt x="417" y="911" on="0"/>
        <pt x="396" y="898" on="1"/>
        <pt x="293" y="832" on="1"/>
        <pt x="282" y="826" on="0"/>
        <pt x="275" y="826" on="1"/>
        <pt x="266" y="826" on="0"/>
        <pt x="257" y="832" on="1"/>
        <pt x="154" y="898" on="1"/>
        <pt x="132" y="911" on="0"/>
      </contour>
      <contour>
        <pt x="190" y="404" on="1"/>
        <pt x="300" y="404" on="1"/>
        <pt x="407" y="404" on="0"/>
        <pt x="407" y="510" on="1"/>
        <pt x="407" y="617" on="0"/>
        <pt x="300" y="617" on="1"/>
        <pt x="190" y="617" on="1"/>
      </contour>
    </TTGlyph>
    <TTGlyph name="Rcommaaccent" xMin="60" yMin="-194" xMax="542" yMax="731">
      <contour>
        <pt x="60" y="41" on="1"/>
        <pt x="60" y="691" on="1"/>
        <pt x="60" y="707" on="0"/>
        <pt x="84" y="731" on="0"/>
        <pt x="102" y="731" on="1"/>
        <pt x="300" y="731" on="1"/>
        <pt x="537" y="731" on="0"/>
        <pt x="537" y="522" on="1"/>
        <pt x="537" y="440" on="0"/>
        <pt x="466" y="340" on="0"/>
        <pt x="406" y="322" on="1"/>
        <pt x="537" y="79" on="1"/>
        <pt x="542" y="73" on="0"/>
        <pt x="542" y="63" on="1"/>
        <pt x="542" y="38" on="0"/>
        <pt x="490" y="-5" on="0"/>
        <pt x="432" y="-5" on="0"/>
        <pt x="416" y="26" on="1"/>
        <pt x="274" y="302" on="1"/>
        <pt x="190" y="302" on="1"/>
        <pt x="190" y="41" on="1"/>
        <pt x="190" y="22" on="0"/>
        <pt x="152" y="0" on="0"/>
        <pt x="125" y="0" on="1"/>
        <pt x="99" y="0" on="0"/>
        <pt x="60" y="22" on="0"/>
      </contour>
      <contour>
        <pt x="181" y="-145" on="1"/>
        <pt x="181" y="-124" on="0"/>
        <pt x="198" y="-115" on="1"/>
        <pt x="330" y="-51" on="1"/>
        <pt x="338" y="-48" on="0"/>
        <pt x="343" y="-48" on="1"/>
        <pt x="359" y="-48" on="0"/>
        <pt x="383" y="-79" on="0"/>
        <pt x="383" y="-97" on="1"/>
        <pt x="383" y="-120" on="0"/>
        <pt x="365" y="-128" on="1"/>
        <pt x="235" y="-190" on="1"/>
        <pt x="225" y="-194" on="0"/>
        <pt x="221" y="-194" on="1"/>
        <pt x="205" y="-194" on="0"/>
        <pt x="181" y="-162" on="0"/>
      </contour>
      <contour>
        <pt x="190" y="404" on="1"/>
        <pt x="300" y="404" on="1"/>
        <pt x="407" y="404" on="0"/>
        <pt x="407" y="510" on="1"/>
        <pt x="407" y="617" on="0"/>
        <pt x="300" y="617" on="1"/>
        <pt x="190" y="617" on="1"/>
      </contour>
    </TTGlyph>
    <TTGlyph name="S" xMin="24" yMin="-9" xMax="493" yMax="736">
      <contour>
        <pt x="24" y="115" on="1"/>
        <pt x="24" y="138" on="0"/>
        <pt x="59" y="185" on="0"/>
        <pt x="81" y="185" on="1"/>
        <pt x="94" y="185" on="0"/>
        <pt x="127" y="161" on="0"/>
        <pt x="158" y="132" on="0"/>
        <pt x="216" y="108" on="0"/>
        <pt x="251" y="108" on="1"/>
        <pt x="299" y="108" on="0"/>
        <pt x="363" y="152" on="0"/>
        <pt x="363" y="195" on="1"/>
        <pt x="363" y="225" on="0"/>
        <pt x="328" y="272" on="0"/>
        <pt x="271" y="303" on="0"/>
        <pt x="203" y="332" on="0"/>
        <pt x="134" y="368" on="0"/>
        <pt x="77" y="413" on="0"/>
        <pt x="42" y="488" on="0"/>
        <pt x="42" y="536" on="1"/>
        <pt x="42" y="589" on="0"/>
        <pt x="85" y="670" on="0"/>
        <pt x="157" y="715" on="0"/>
        <pt x="239" y="736" on="0"/>
        <pt x="285" y="736" on="1"/>
        <pt x="311" y="736" on="0"/>
        <pt x="369" y="729" on="0"/>
        <pt x="434" y="713" on="0"/>
        <pt x="475" y="679" on="0"/>
        <pt x="475" y="656" on="1"/>
        <pt x="475" y="634" on="0"/>
        <pt x="447" y="587" on="0"/>
        <pt x="423" y="587" on="1"/>
        <pt x="414" y="587" on="0"/>
        <pt x="334" y="625" on="0"/>
        <pt x="285" y="625" on="1"/>
        <pt x="231" y="625" on="0"/>
        <pt x="172" y="584" on="0"/>
        <pt x="172" y="548" on="1"/>
        <pt x="172" y="519" on="0"/>
        <pt x="220" y="476" on="0"/>
        <pt x="291" y="449" on="0"/>
        <pt x="374" y="408" on="0"/>
        <pt x="445" y="360" on="0"/>
        <pt x="493" y="269" on="0"/>
        <pt x="493" y="208" on="1"/>
        <pt x="493" y="104" on="0"/>
        <pt x="362" y="-9" on="0"/>
        <pt x="255" y="-9" on="1"/>
        <pt x="160" y="-9" on="0"/>
        <pt x="24" y="69" on="0"/>
      </contour>
    </TTGlyph>
    <TTGlyph name="Sacute" xMin="24" yMin="-9" xMax="493" yMax="957">
      <contour>
        <pt x="24" y="115" on="1"/>
        <pt x="24" y="138" on="0"/>
        <pt x="59" y="185" on="0"/>
        <pt x="81" y="185" on="1"/>
        <pt x="94" y="185" on="0"/>
        <pt x="127" y="161" on="0"/>
        <pt x="158" y="132" on="0"/>
        <pt x="216" y="108" on="0"/>
        <pt x="251" y="108" on="1"/>
        <pt x="299" y="108" on="0"/>
        <pt x="363" y="152" on="0"/>
        <pt x="363" y="195" on="1"/>
        <pt x="363" y="225" on="0"/>
        <pt x="328" y="272" on="0"/>
        <pt x="271" y="303" on="0"/>
        <pt x="203" y="332" on="0"/>
        <pt x="134" y="368" on="0"/>
        <pt x="77" y="413" on="0"/>
        <pt x="42" y="488" on="0"/>
        <pt x="42" y="536" on="1"/>
        <pt x="42" y="589" on="0"/>
        <pt x="85" y="670" on="0"/>
        <pt x="157" y="715" on="0"/>
        <pt x="239" y="736" on="0"/>
        <pt x="285" y="736" on="1"/>
        <pt x="311" y="736" on="0"/>
        <pt x="369" y="729" on="0"/>
        <pt x="434" y="713" on="0"/>
        <pt x="475" y="679" on="0"/>
        <pt x="475" y="656" on="1"/>
        <pt x="475" y="634" on="0"/>
        <pt x="447" y="587" on="0"/>
        <pt x="423" y="587" on="1"/>
        <pt x="414" y="587" on="0"/>
        <pt x="334" y="625" on="0"/>
        <pt x="285" y="625" on="1"/>
        <pt x="231" y="625" on="0"/>
        <pt x="172" y="584" on="0"/>
        <pt x="172" y="548" on="1"/>
        <pt x="172" y="519" on="0"/>
        <pt x="220" y="476" on="0"/>
        <pt x="291" y="449" on="0"/>
        <pt x="374" y="408" on="0"/>
        <pt x="445" y="360" on="0"/>
        <pt x="493" y="269" on="0"/>
        <pt x="493" y="208" on="1"/>
        <pt x="493" y="104" on="0"/>
        <pt x="362" y="-9" on="0"/>
        <pt x="255" y="-9" on="1"/>
        <pt x="160" y="-9" on="0"/>
        <pt x="24" y="69" on="0"/>
      </contour>
      <contour>
        <pt x="176" y="860" on="1"/>
        <pt x="176" y="882" on="0"/>
        <pt x="193" y="891" on="1"/>
        <pt x="325" y="955" on="1"/>
        <pt x="335" y="957" on="0"/>
        <pt x="338" y="957" on="1"/>
        <pt x="354" y="957" on="0"/>
        <pt x="378" y="926" on="0"/>
        <pt x="378" y="908" on="1"/>
        <pt x="378" y="886" on="0"/>
        <pt x="360" y="878" on="1"/>
        <pt x="230" y="815" on="1"/>
        <pt x="220" y="811" on="0"/>
        <pt x="216" y="811" on="1"/>
        <pt x="200" y="811" on="0"/>
        <pt x="176" y="843" on="0"/>
      </contour>
    </TTGlyph>
    <TTGlyph name="Scaron" xMin="24" yMin="-9" xMax="493" yMax="975">
      <contour>
        <pt x="24" y="115" on="1"/>
        <pt x="24" y="138" on="0"/>
        <pt x="59" y="185" on="0"/>
        <pt x="81" y="185" on="1"/>
        <pt x="94" y="185" on="0"/>
        <pt x="127" y="161" on="0"/>
        <pt x="158" y="132" on="0"/>
        <pt x="216" y="108" on="0"/>
        <pt x="251" y="108" on="1"/>
        <pt x="299" y="108" on="0"/>
        <pt x="363" y="152" on="0"/>
        <pt x="363" y="195" on="1"/>
        <pt x="363" y="225" on="0"/>
        <pt x="328" y="272" on="0"/>
        <pt x="271" y="303" on="0"/>
        <pt x="203" y="332" on="0"/>
        <pt x="134" y="368" on="0"/>
        <pt x="77" y="413" on="0"/>
        <pt x="42" y="488" on="0"/>
        <pt x="42" y="536" on="1"/>
        <pt x="42" y="589" on="0"/>
        <pt x="85" y="670" on="0"/>
        <pt x="157" y="715" on="0"/>
        <pt x="239" y="736" on="0"/>
        <pt x="285" y="736" on="1"/>
        <pt x="311" y="736" on="0"/>
        <pt x="369" y="729" on="0"/>
        <pt x="434" y="713" on="0"/>
        <pt x="475" y="679" on="0"/>
        <pt x="475" y="656" on="1"/>
        <pt x="475" y="634" on="0"/>
        <pt x="447" y="587" on="0"/>
        <pt x="423" y="587" on="1"/>
        <pt x="414" y="587" on="0"/>
        <pt x="334" y="625" on="0"/>
        <pt x="285" y="625" on="1"/>
        <pt x="231" y="625" on="0"/>
        <pt x="172" y="584" on="0"/>
        <pt x="172" y="548" on="1"/>
        <pt x="172" y="519" on="0"/>
        <pt x="220" y="476" on="0"/>
        <pt x="291" y="449" on="0"/>
        <pt x="374" y="408" on="0"/>
        <pt x="445" y="360" on="0"/>
        <pt x="493" y="269" on="0"/>
        <pt x="493" y="208" on="1"/>
        <pt x="493" y="104" on="0"/>
        <pt x="362" y="-9" on="0"/>
        <pt x="255" y="-9" on="1"/>
        <pt x="160" y="-9" on="0"/>
        <pt x="24" y="69" on="0"/>
      </contour>
      <contour>
        <pt x="116" y="936" on="1"/>
        <pt x="116" y="951" on="0"/>
        <pt x="132" y="975" on="0"/>
        <pt x="144" y="975" on="1"/>
        <pt x="151" y="975" on="0"/>
        <pt x="156" y="971" on="1"/>
        <pt x="259" y="905" on="1"/>
        <pt x="361" y="971" on="1"/>
        <pt x="368" y="975" on="0"/>
        <pt x="373" y="975" on="1"/>
        <pt x="385" y="975" on="0"/>
        <pt x="401" y="951" on="0"/>
        <pt x="401" y="936" on="1"/>
        <pt x="401" y="911" on="0"/>
        <pt x="380" y="898" on="1"/>
        <pt x="277" y="832" on="1"/>
        <pt x="266" y="826" on="0"/>
        <pt x="259" y="826" on="1"/>
        <pt x="250" y="826" on="0"/>
        <pt x="241" y="832" on="1"/>
        <pt x="138" y="898" on="1"/>
        <pt x="116" y="911" on="0"/>
      </contour>
    </TTGlyph>
    <TTGlyph name="Scedilla" xMin="24" yMin="-216" xMax="493" yMax="736">
      <contour>
        <pt x="24" y="115" on="1"/>
        <pt x="24" y="138" on="0"/>
        <pt x="59" y="185" on="0"/>
        <pt x="81" y="185" on="1"/>
        <pt x="94" y="185" on="0"/>
        <pt x="127" y="161" on="0"/>
        <pt x="158" y="132" on="0"/>
        <pt x="216" y="108" on="0"/>
        <pt x="251" y="108" on="1"/>
        <pt x="299" y="108" on="0"/>
        <pt x="363" y="152" on="0"/>
        <pt x="363" y="195" on="1"/>
        <pt x="363" y="225" on="0"/>
        <pt x="328" y="272" on="0"/>
        <pt x="271" y="303" on="0"/>
        <pt x="203" y="332" on="0"/>
        <pt x="134" y="368" on="0"/>
        <pt x="77" y="413" on="0"/>
        <pt x="42" y="488" on="0"/>
        <pt x="42" y="536" on="1"/>
        <pt x="42" y="589" on="0"/>
        <pt x="85" y="670" on="0"/>
        <pt x="157" y="715" on="0"/>
        <pt x="239" y="736" on="0"/>
        <pt x="285" y="736" on="1"/>
        <pt x="311" y="736" on="0"/>
        <pt x="369" y="729" on="0"/>
        <pt x="434" y="713" on="0"/>
        <pt x="475" y="679" on="0"/>
        <pt x="475" y="656" on="1"/>
        <pt x="475" y="634" on="0"/>
        <pt x="447" y="587" on="0"/>
        <pt x="423" y="587" on="1"/>
        <pt x="414" y="587" on="0"/>
        <pt x="334" y="625" on="0"/>
        <pt x="285" y="625" on="1"/>
        <pt x="231" y="625" on="0"/>
        <pt x="172" y="584" on="0"/>
        <pt x="172" y="548" on="1"/>
        <pt x="172" y="519" on="0"/>
        <pt x="220" y="476" on="0"/>
        <pt x="291" y="449" on="0"/>
        <pt x="374" y="408" on="0"/>
        <pt x="445" y="360" on="0"/>
        <pt x="493" y="269" on="0"/>
        <pt x="493" y="208" on="1"/>
        <pt x="493" y="116" on="0"/>
        <pt x="391" y="7" on="0"/>
        <pt x="304" y="-5" on="1"/>
        <pt x="290" y="-51" on="1"/>
        <pt x="339" y="-53" on="0"/>
        <pt x="389" y="-96" on="0"/>
        <pt x="389" y="-128" on="1"/>
        <pt x="389" y="-161" on="0"/>
        <pt x="338" y="-216" on="0"/>
        <pt x="284" y="-216" on="1"/>
        <pt x="254" y="-216" on="0"/>
        <pt x="199" y="-201" on="0"/>
        <pt x="199" y="-187" on="1"/>
        <pt x="199" y="-178" on="0"/>
        <pt x="212" y="-150" on="0"/>
        <pt x="222" y="-150" on="1"/>
        <pt x="225" y="-150" on="0"/>
        <pt x="261" y="-164" on="0"/>
        <pt x="280" y="-164" on="1"/>
        <pt x="327" y="-164" on="0"/>
        <pt x="327" y="-98" on="0"/>
        <pt x="279" y="-94" on="1"/>
        <pt x="224" y="-89" on="1"/>
        <pt x="247" y="-9" on="1"/>
        <pt x="155" y="-7" on="0"/>
        <pt x="24" y="70" on="0"/>
      </contour>
    </TTGlyph>
    <TTGlyph name="Scircumflex" xMin="24" yMin="-9" xMax="493" yMax="957">
      <contour>
        <pt x="24" y="115" on="1"/>
        <pt x="24" y="138" on="0"/>
        <pt x="59" y="185" on="0"/>
        <pt x="81" y="185" on="1"/>
        <pt x="94" y="185" on="0"/>
        <pt x="127" y="161" on="0"/>
        <pt x="158" y="132" on="0"/>
        <pt x="216" y="108" on="0"/>
        <pt x="251" y="108" on="1"/>
        <pt x="299" y="108" on="0"/>
        <pt x="363" y="152" on="0"/>
        <pt x="363" y="195" on="1"/>
        <pt x="363" y="225" on="0"/>
        <pt x="328" y="272" on="0"/>
        <pt x="271" y="303" on="0"/>
        <pt x="203" y="332" on="0"/>
        <pt x="134" y="368" on="0"/>
        <pt x="77" y="413" on="0"/>
        <pt x="42" y="488" on="0"/>
        <pt x="42" y="536" on="1"/>
        <pt x="42" y="589" on="0"/>
        <pt x="85" y="670" on="0"/>
        <pt x="157" y="715" on="0"/>
        <pt x="239" y="736" on="0"/>
        <pt x="285" y="736" on="1"/>
        <pt x="311" y="736" on="0"/>
        <pt x="369" y="729" on="0"/>
        <pt x="434" y="713" on="0"/>
        <pt x="475" y="679" on="0"/>
        <pt x="475" y="656" on="1"/>
        <pt x="475" y="634" on="0"/>
        <pt x="447" y="587" on="0"/>
        <pt x="423" y="587" on="1"/>
        <pt x="414" y="587" on="0"/>
        <pt x="334" y="625" on="0"/>
        <pt x="285" y="625" on="1"/>
        <pt x="231" y="625" on="0"/>
        <pt x="172" y="584" on="0"/>
        <pt x="172" y="548" on="1"/>
        <pt x="172" y="519" on="0"/>
        <pt x="220" y="476" on="0"/>
        <pt x="291" y="449" on="0"/>
        <pt x="374" y="408" on="0"/>
        <pt x="445" y="360" on="0"/>
        <pt x="493" y="269" on="0"/>
        <pt x="493" y="208" on="1"/>
        <pt x="493" y="104" on="0"/>
        <pt x="362" y="-9" on="0"/>
        <pt x="255" y="-9" on="1"/>
        <pt x="160" y="-9" on="0"/>
        <pt x="24" y="69" on="0"/>
      </contour>
      <contour>
        <pt x="116" y="859" on="1"/>
        <pt x="116" y="885" on="0"/>
        <pt x="138" y="896" on="1"/>
        <pt x="242" y="952" on="1"/>
        <pt x="250" y="957" on="0"/>
        <pt x="259" y="957" on="1"/>
        <pt x="266" y="957" on="0"/>
        <pt x="276" y="952" on="1"/>
        <pt x="380" y="897" on="1"/>
        <pt x="401" y="884" on="0"/>
        <pt x="401" y="858" on="1"/>
        <pt x="401" y="843" on="0"/>
        <pt x="385" y="819" on="0"/>
        <pt x="373" y="819" on="1"/>
        <pt x="368" y="819" on="0"/>
        <pt x="363" y="822" on="1"/>
        <pt x="259" y="878" on="1"/>
        <pt x="155" y="822" on="1"/>
        <pt x="149" y="819" on="0"/>
        <pt x="144" y="819" on="1"/>
        <pt x="132" y="819" on="0"/>
        <pt x="116" y="843" on="0"/>
      </contour>
    </TTGlyph>
    <TTGlyph name="Scommaaccent" xMin="24" yMin="-194" xMax="493" yMax="736">
      <contour>
        <pt x="24" y="115" on="1"/>
        <pt x="24" y="138" on="0"/>
        <pt x="59" y="185" on="0"/>
        <pt x="81" y="185" on="1"/>
        <pt x="94" y="185" on="0"/>
        <pt x="127" y="161" on="0"/>
        <pt x="158" y="132" on="0"/>
        <pt x="216" y="108" on="0"/>
        <pt x="251" y="108" on="1"/>
        <pt x="299" y="108" on="0"/>
        <pt x="363" y="152" on="0"/>
        <pt x="363" y="195" on="1"/>
        <pt x="363" y="225" on="0"/>
        <pt x="328" y="272" on="0"/>
        <pt x="271" y="303" on="0"/>
        <pt x="203" y="332" on="0"/>
        <pt x="134" y="368" on="0"/>
        <pt x="77" y="413" on="0"/>
        <pt x="42" y="488" on="0"/>
        <pt x="42" y="536" on="1"/>
        <pt x="42" y="589" on="0"/>
        <pt x="85" y="670" on="0"/>
        <pt x="157" y="715" on="0"/>
        <pt x="239" y="736" on="0"/>
        <pt x="285" y="736" on="1"/>
        <pt x="311" y="736" on="0"/>
        <pt x="369" y="729" on="0"/>
        <pt x="434" y="713" on="0"/>
        <pt x="475" y="679" on="0"/>
        <pt x="475" y="656" on="1"/>
        <pt x="475" y="634" on="0"/>
        <pt x="447" y="587" on="0"/>
        <pt x="423" y="587" on="1"/>
        <pt x="414" y="587" on="0"/>
        <pt x="334" y="625" on="0"/>
        <pt x="285" y="625" on="1"/>
        <pt x="231" y="625" on="0"/>
        <pt x="172" y="584" on="0"/>
        <pt x="172" y="548" on="1"/>
        <pt x="172" y="519" on="0"/>
        <pt x="220" y="476" on="0"/>
        <pt x="291" y="449" on="0"/>
        <pt x="374" y="408" on="0"/>
        <pt x="445" y="360" on="0"/>
        <pt x="493" y="269" on="0"/>
        <pt x="493" y="208" on="1"/>
        <pt x="493" y="104" on="0"/>
        <pt x="362" y="-9" on="0"/>
        <pt x="255" y="-9" on="1"/>
        <pt x="160" y="-9" on="0"/>
        <pt x="24" y="69" on="0"/>
      </contour>
      <contour>
        <pt x="169" y="-145" on="1"/>
        <pt x="169" y="-124" on="0"/>
        <pt x="186" y="-115" on="1"/>
        <pt x="318" y="-51" on="1"/>
        <pt x="326" y="-48" on="0"/>
        <pt x="331" y="-48" on="1"/>
        <pt x="347" y="-48" on="0"/>
        <pt x="371" y="-79" on="0"/>
        <pt x="371" y="-97" on="1"/>
        <pt x="371" y="-120" on="0"/>
        <pt x="353" y="-128" on="1"/>
        <pt x="223" y="-190" on="1"/>
        <pt x="213" y="-194" on="0"/>
        <pt x="209" y="-194" on="1"/>
        <pt x="193" y="-194" on="0"/>
        <pt x="169" y="-162" on="0"/>
      </contour>
    </TTGlyph>
    <TTGlyph name="T" xMin="12" yMin="0" xMax="517" yMax="731">
      <contour>
        <pt x="12" y="673" on="1"/>
        <pt x="12" y="696" on="0"/>
        <pt x="33" y="731" on="0"/>
        <pt x="53" y="731" on="1"/>
        <pt x="476" y="731" on="1"/>
        <pt x="496" y="731" on="0"/>
        <pt x="517" y="696" on="0"/>
        <pt x="517" y="673" on="1"/>
        <pt x="517" y="649" on="0"/>
        <pt x="495" y="614" on="0"/>
        <pt x="476" y="614" on="1"/>
        <pt x="330" y="614" on="1"/>
        <pt x="330" y="41" on="1"/>
        <pt x="330" y="22" on="0"/>
        <pt x="291" y="0" on="0"/>
        <pt x="265" y="0" on="1"/>
        <pt x="238" y="0" on="0"/>
        <pt x="200" y="22" on="0"/>
        <pt x="200" y="41" on="1"/>
        <pt x="200" y="614" on="1"/>
        <pt x="53" y="614" on="1"/>
        <pt x="34" y="614" on="0"/>
        <pt x="12" y="648" on="0"/>
      </contour>
    </TTGlyph>
    <TTGlyph name="Tbar" xMin="12" yMin="0" xMax="517" yMax="731">
      <contour>
        <pt x="12" y="673" on="1"/>
        <pt x="12" y="696" on="0"/>
        <pt x="33" y="731" on="0"/>
        <pt x="53" y="731" on="1"/>
        <pt x="476" y="731" on="1"/>
        <pt x="496" y="731" on="0"/>
        <pt x="517" y="696" on="0"/>
        <pt x="517" y="673" on="1"/>
        <pt x="517" y="649" on="0"/>
        <pt x="495" y="614" on="0"/>
        <pt x="476" y="614" on="1"/>
        <pt x="330" y="614" on="1"/>
        <pt x="330" y="412" on="1"/>
        <pt x="414" y="412" on="1"/>
        <pt x="430" y="412" on="0"/>
        <pt x="448" y="384" on="0"/>
        <pt x="448" y="346" on="0"/>
        <pt x="430" y="318" on="0"/>
        <pt x="414" y="318" on="1"/>
        <pt x="330" y="318" on="1"/>
        <pt x="330" y="41" on="1"/>
        <pt x="330" y="22" on="0"/>
        <pt x="291" y="0" on="0"/>
        <pt x="265" y="0" on="1"/>
        <pt x="238" y="0" on="0"/>
        <pt x="200" y="22" on="0"/>
        <pt x="200" y="41" on="1"/>
        <pt x="200" y="318" on="1"/>
        <pt x="114" y="318" on="1"/>
        <pt x="98" y="318" on="0"/>
        <pt x="81" y="346" on="0"/>
        <pt x="81" y="384" on="0"/>
        <pt x="98" y="412" on="0"/>
        <pt x="114" y="412" on="1"/>
        <pt x="200" y="412" on="1"/>
        <pt x="200" y="614" on="1"/>
        <pt x="53" y="614" on="1"/>
        <pt x="34" y="614" on="0"/>
        <pt x="12" y="648" on="0"/>
      </contour>
    </TTGlyph>
    <TTGlyph name="Tcaron" xMin="12" yMin="0" xMax="517" yMax="975">
      <contour>
        <pt x="12" y="673" on="1"/>
        <pt x="12" y="696" on="0"/>
        <pt x="33" y="731" on="0"/>
        <pt x="53" y="731" on="1"/>
        <pt x="476" y="731" on="1"/>
        <pt x="496" y="731" on="0"/>
        <pt x="517" y="696" on="0"/>
        <pt x="517" y="673" on="1"/>
        <pt x="517" y="649" on="0"/>
        <pt x="495" y="614" on="0"/>
        <pt x="476" y="614" on="1"/>
        <pt x="330" y="614" on="1"/>
        <pt x="330" y="41" on="1"/>
        <pt x="330" y="22" on="0"/>
        <pt x="291" y="0" on="0"/>
        <pt x="265" y="0" on="1"/>
        <pt x="238" y="0" on="0"/>
        <pt x="200" y="22" on="0"/>
        <pt x="200" y="41" on="1"/>
        <pt x="200" y="614" on="1"/>
        <pt x="53" y="614" on="1"/>
        <pt x="34" y="614" on="0"/>
        <pt x="12" y="648" on="0"/>
      </contour>
      <contour>
        <pt x="121" y="936" on="1"/>
        <pt x="121" y="951" on="0"/>
        <pt x="137" y="975" on="0"/>
        <pt x="149" y="975" on="1"/>
        <pt x="156" y="975" on="0"/>
        <pt x="161" y="971" on="1"/>
        <pt x="264" y="905" on="1"/>
        <pt x="366" y="971" on="1"/>
        <pt x="373" y="975" on="0"/>
        <pt x="378" y="975" on="1"/>
        <pt x="390" y="975" on="0"/>
        <pt x="406" y="951" on="0"/>
        <pt x="406" y="936" on="1"/>
        <pt x="406" y="911" on="0"/>
        <pt x="385" y="898" on="1"/>
        <pt x="282" y="832" on="1"/>
        <pt x="272" y="826" on="0"/>
        <pt x="264" y="826" on="1"/>
        <pt x="255" y="826" on="0"/>
        <pt x="246" y="832" on="1"/>
        <pt x="143" y="898" on="1"/>
        <pt x="121" y="911" on="0"/>
      </contour>
    </TTGlyph>
    <TTGlyph name="Tcommaaccent" xMin="12" yMin="-194" xMax="517" yMax="731">
      <contour>
        <pt x="12" y="673" on="1"/>
        <pt x="12" y="696" on="0"/>
        <pt x="33" y="731" on="0"/>
        <pt x="53" y="731" on="1"/>
        <pt x="476" y="731" on="1"/>
        <pt x="496" y="731" on="0"/>
        <pt x="517" y="696" on="0"/>
        <pt x="517" y="673" on="1"/>
        <pt x="517" y="649" on="0"/>
        <pt x="495" y="614" on="0"/>
        <pt x="476" y="614" on="1"/>
        <pt x="330" y="614" on="1"/>
        <pt x="330" y="41" on="1"/>
        <pt x="330" y="22" on="0"/>
        <pt x="291" y="0" on="0"/>
        <pt x="265" y="0" on="1"/>
        <pt x="238" y="0" on="0"/>
        <pt x="200" y="22" on="0"/>
        <pt x="200" y="41" on="1"/>
        <pt x="200" y="614" on="1"/>
        <pt x="53" y="614" on="1"/>
        <pt x="34" y="614" on="0"/>
        <pt x="12" y="648" on="0"/>
      </contour>
      <contour>
        <pt x="161" y="-145" on="1"/>
        <pt x="161" y="-124" on="0"/>
        <pt x="178" y="-115" on="1"/>
        <pt x="310" y="-51" on="1"/>
        <pt x="318" y="-48" on="0"/>
        <pt x="323" y="-48" on="1"/>
        <pt x="339" y="-48" on="0"/>
        <pt x="363" y="-79" on="0"/>
        <pt x="363" y="-97" on="1"/>
        <pt x="363" y="-120" on="0"/>
        <pt x="345" y="-128" on="1"/>
        <pt x="215" y="-190" on="1"/>
        <pt x="205" y="-194" on="0"/>
        <pt x="201" y="-194" on="1"/>
        <pt x="185" y="-194" on="0"/>
        <pt x="161" y="-162" on="0"/>
      </contour>
    </TTGlyph>
    <TTGlyph name="Thorn" xMin="61" yMin="0" xMax="496" yMax="744">
      <contour>
        <pt x="61" y="41" on="1"/>
        <pt x="61" y="704" on="1"/>
        <pt x="61" y="722" on="0"/>
        <pt x="96" y="744" on="0"/>
        <pt x="122" y="744" on="1"/>
        <pt x="152" y="744" on="0"/>
        <pt x="190" y="722" on="0"/>
        <pt x="190" y="704" on="1"/>
        <pt x="190" y="546" on="1"/>
        <pt x="207" y="578" on="0"/>
        <pt x="275" y="622" on="0"/>
        <pt x="319" y="622" on="1"/>
        <pt x="392" y="622" on="0"/>
        <pt x="496" y="509" on="0"/>
        <pt x="496" y="426" on="1"/>
        <pt x="496" y="330" on="1"/>
        <pt x="496" y="250" on="0"/>
        <pt x="392" y="132" on="0"/>
        <pt x="324" y="132" on="1"/>
        <pt x="280" y="132" on="0"/>
        <pt x="204" y="179" on="0"/>
        <pt x="190" y="211" on="1"/>
        <pt x="190" y="41" on="1"/>
        <pt x="190" y="26" on="0"/>
        <pt x="150" y="0" on="0"/>
        <pt x="124" y="0" on="1"/>
        <pt x="97" y="0" on="0"/>
        <pt x="61" y="25" on="0"/>
      </contour>
      <contour>
        <pt x="190" y="319" on="1"/>
        <pt x="190" y="297" on="0"/>
        <pt x="244" y="245" on="0"/>
        <pt x="280" y="245" on="1"/>
        <pt x="314" y="245" on="0"/>
        <pt x="367" y="295" on="0"/>
        <pt x="367" y="330" on="1"/>
        <pt x="367" y="426" on="1"/>
        <pt x="367" y="460" on="0"/>
        <pt x="314" y="509" on="0"/>
        <pt x="278" y="509" on="1"/>
        <pt x="243" y="509" on="0"/>
        <pt x="190" y="463" on="0"/>
        <pt x="190" y="426" on="1"/>
      </contour>
    </TTGlyph>
    <TTGlyph name="U" xMin="57" yMin="-6" xMax="537" yMax="731">
      <contour>
        <pt x="57" y="223" on="1"/>
        <pt x="57" y="691" on="1"/>
        <pt x="57" y="711" on="0"/>
        <pt x="95" y="731" on="0"/>
        <pt x="149" y="731" on="0"/>
        <pt x="187" y="711" on="0"/>
        <pt x="187" y="691" on="1"/>
        <pt x="187" y="223" on="1"/>
        <pt x="187" y="108" on="0"/>
        <pt x="407" y="108" on="0"/>
        <pt x="407" y="223" on="1"/>
        <pt x="407" y="691" on="1"/>
        <pt x="407" y="711" on="0"/>
        <pt x="445" y="731" on="0"/>
        <pt x="499" y="731" on="0"/>
        <pt x="537" y="711" on="0"/>
        <pt x="537" y="691" on="1"/>
        <pt x="537" y="223" on="1"/>
        <pt x="537" y="105" on="0"/>
        <pt x="406" y="-6" on="0"/>
        <pt x="188" y="-6" on="0"/>
        <pt x="57" y="104" on="0"/>
      </contour>
    </TTGlyph>
    <TTGlyph name="Uacute" xMin="57" yMin="-6" xMax="537" yMax="957">
      <contour>
        <pt x="57" y="223" on="1"/>
        <pt x="57" y="691" on="1"/>
        <pt x="57" y="711" on="0"/>
        <pt x="95" y="731" on="0"/>
        <pt x="149" y="731" on="0"/>
        <pt x="187" y="711" on="0"/>
        <pt x="187" y="691" on="1"/>
        <pt x="187" y="223" on="1"/>
        <pt x="187" y="108" on="0"/>
        <pt x="407" y="108" on="0"/>
        <pt x="407" y="223" on="1"/>
        <pt x="407" y="691" on="1"/>
        <pt x="407" y="711" on="0"/>
        <pt x="445" y="731" on="0"/>
        <pt x="499" y="731" on="0"/>
        <pt x="537" y="711" on="0"/>
        <pt x="537" y="691" on="1"/>
        <pt x="537" y="223" on="1"/>
        <pt x="537" y="105" on="0"/>
        <pt x="406" y="-6" on="0"/>
        <pt x="188" y="-6" on="0"/>
        <pt x="57" y="104" on="0"/>
      </contour>
      <contour>
        <pt x="218" y="860" on="1"/>
        <pt x="218" y="882" on="0"/>
        <pt x="235" y="891" on="1"/>
        <pt x="367" y="955" on="1"/>
        <pt x="377" y="957" on="0"/>
        <pt x="380" y="957" on="1"/>
        <pt x="396" y="957" on="0"/>
        <pt x="420" y="926" on="0"/>
        <pt x="420" y="908" on="1"/>
        <pt x="420" y="886" on="0"/>
        <pt x="402" y="878" on="1"/>
        <pt x="272" y="815" on="1"/>
        <pt x="262" y="811" on="0"/>
        <pt x="258" y="811" on="1"/>
        <pt x="242" y="811" on="0"/>
        <pt x="218" y="843" on="0"/>
      </contour>
    </TTGlyph>
    <TTGlyph name="Ubreve" xMin="57" yMin="-6" xMax="537" yMax="964">
      <contour>
        <pt x="57" y="223" on="1"/>
        <pt x="57" y="691" on="1"/>
        <pt x="57" y="711" on="0"/>
        <pt x="95" y="731" on="0"/>
        <pt x="149" y="731" on="0"/>
        <pt x="187" y="711" on="0"/>
        <pt x="187" y="691" on="1"/>
        <pt x="187" y="223" on="1"/>
        <pt x="187" y="108" on="0"/>
        <pt x="407" y="108" on="0"/>
        <pt x="407" y="223" on="1"/>
        <pt x="407" y="691" on="1"/>
        <pt x="407" y="711" on="0"/>
        <pt x="445" y="731" on="0"/>
        <pt x="499" y="731" on="0"/>
        <pt x="537" y="711" on="0"/>
        <pt x="537" y="691" on="1"/>
        <pt x="537" y="223" on="1"/>
        <pt x="537" y="105" on="0"/>
        <pt x="406" y="-6" on="0"/>
        <pt x="188" y="-6" on="0"/>
        <pt x="57" y="104" on="0"/>
      </contour>
      <contour>
        <pt x="161" y="964" on="1"/>
        <pt x="231" y="964" on="1"/>
        <pt x="231" y="932" on="0"/>
        <pt x="269" y="889" on="0"/>
        <pt x="294" y="889" on="1"/>
        <pt x="318" y="889" on="0"/>
        <pt x="357" y="932" on="0"/>
        <pt x="357" y="964" on="1"/>
        <pt x="427" y="964" on="1"/>
        <pt x="427" y="911" on="0"/>
        <pt x="346" y="831" on="0"/>
        <pt x="242" y="831" on="0"/>
        <pt x="161" y="911" on="0"/>
      </contour>
    </TTGlyph>
    <TTGlyph name="Ucircumflex" xMin="57" yMin="-6" xMax="537" yMax="957">
      <contour>
        <pt x="57" y="223" on="1"/>
        <pt x="57" y="691" on="1"/>
        <pt x="57" y="711" on="0"/>
        <pt x="95" y="731" on="0"/>
        <pt x="149" y="731" on="0"/>
        <pt x="187" y="711" on="0"/>
        <pt x="187" y="691" on="1"/>
        <pt x="187" y="223" on="1"/>
        <pt x="187" y="108" on="0"/>
        <pt x="407" y="108" on="0"/>
        <pt x="407" y="223" on="1"/>
        <pt x="407" y="691" on="1"/>
        <pt x="407" y="711" on="0"/>
        <pt x="445" y="731" on="0"/>
        <pt x="499" y="731" on="0"/>
        <pt x="537" y="711" on="0"/>
        <pt x="537" y="691" on="1"/>
        <pt x="537" y="223" on="1"/>
        <pt x="537" y="105" on="0"/>
        <pt x="406" y="-6" on="0"/>
        <pt x="188" y="-6" on="0"/>
        <pt x="57" y="104" on="0"/>
      </contour>
      <contour>
        <pt x="149" y="859" on="1"/>
        <pt x="149" y="885" on="0"/>
        <pt x="171" y="896" on="1"/>
        <pt x="275" y="952" on="1"/>
        <pt x="283" y="957" on="0"/>
        <pt x="292" y="957" on="1"/>
        <pt x="299" y="957" on="0"/>
        <pt x="309" y="952" on="1"/>
        <pt x="413" y="897" on="1"/>
        <pt x="434" y="884" on="0"/>
        <pt x="434" y="858" on="1"/>
        <pt x="434" y="843" on="0"/>
        <pt x="418" y="819" on="0"/>
        <pt x="406" y="819" on="1"/>
        <pt x="400" y="819" on="0"/>
        <pt x="396" y="822" on="1"/>
        <pt x="292" y="878" on="1"/>
        <pt x="188" y="822" on="1"/>
        <pt x="182" y="819" on="0"/>
        <pt x="177" y="819" on="1"/>
        <pt x="165" y="819" on="0"/>
        <pt x="149" y="843" on="0"/>
      </contour>
    </TTGlyph>
    <TTGlyph name="Udieresis" xMin="57" yMin="-6" xMax="537" yMax="925">
      <contour>
        <pt x="57" y="223" on="1"/>
        <pt x="57" y="691" on="1"/>
        <pt x="57" y="711" on="0"/>
        <pt x="95" y="731" on="0"/>
        <pt x="149" y="731" on="0"/>
        <pt x="187" y="711" on="0"/>
        <pt x="187" y="691" on="1"/>
        <pt x="187" y="223" on="1"/>
        <pt x="187" y="108" on="0"/>
        <pt x="407" y="108" on="0"/>
        <pt x="407" y="223" on="1"/>
        <pt x="407" y="691" on="1"/>
        <pt x="407" y="711" on="0"/>
        <pt x="445" y="731" on="0"/>
        <pt x="499" y="731" on="0"/>
        <pt x="537" y="711" on="0"/>
        <pt x="537" y="691" on="1"/>
        <pt x="537" y="223" on="1"/>
        <pt x="537" y="105" on="0"/>
        <pt x="406" y="-6" on="0"/>
        <pt x="188" y="-6" on="0"/>
        <pt x="57" y="104" on="0"/>
      </contour>
      <contour>
        <pt x="171" y="852" on="0"/>
        <pt x="171" y="894" on="0"/>
        <pt x="201" y="925" on="0"/>
        <pt x="243" y="925" on="0"/>
        <pt x="272" y="894" on="0"/>
        <pt x="272" y="852" on="0"/>
        <pt x="243" y="820" on="0"/>
        <pt x="201" y="820" on="0"/>
      </contour>
      <contour>
        <pt x="320" y="852" on="0"/>
        <pt x="320" y="894" on="0"/>
        <pt x="350" y="925" on="0"/>
        <pt x="372" y="925" on="1"/>
        <pt x="392" y="925" on="0"/>
        <pt x="422" y="894" on="0"/>
        <pt x="422" y="852" on="0"/>
        <pt x="392" y="820" on="0"/>
        <pt x="372" y="820" on="1"/>
        <pt x="351" y="820" on="0"/>
      </contour>
    </TTGlyph>
    <TTGlyph name="Ugrave" xMin="57" yMin="-6" xMax="537" yMax="957">
      <contour>
        <pt x="57" y="223" on="1"/>
        <pt x="57" y="691" on="1"/>
        <pt x="57" y="711" on="0"/>
        <pt x="95" y="731" on="0"/>
        <pt x="149" y="731" on="0"/>
        <pt x="187" y="711" on="0"/>
        <pt x="187" y="691" on="1"/>
        <pt x="187" y="223" on="1"/>
        <pt x="187" y="108" on="0"/>
        <pt x="407" y="108" on="0"/>
        <pt x="407" y="223" on="1"/>
        <pt x="407" y="691" on="1"/>
        <pt x="407" y="711" on="0"/>
        <pt x="445" y="731" on="0"/>
        <pt x="499" y="731" on="0"/>
        <pt x="537" y="711" on="0"/>
        <pt x="537" y="691" on="1"/>
        <pt x="537" y="223" on="1"/>
        <pt x="537" y="105" on="0"/>
        <pt x="406" y="-6" on="0"/>
        <pt x="188" y="-6" on="0"/>
        <pt x="57" y="104" on="0"/>
      </contour>
      <contour>
        <pt x="179" y="908" on="1"/>
        <pt x="179" y="926" on="0"/>
        <pt x="203" y="957" on="0"/>
        <pt x="219" y="957" on="1"/>
        <pt x="222" y="957" on="0"/>
        <pt x="232" y="955" on="1"/>
        <pt x="364" y="891" on="1"/>
        <pt x="381" y="882" on="0"/>
        <pt x="381" y="860" on="1"/>
        <pt x="381" y="843" on="0"/>
        <pt x="357" y="811" on="0"/>
        <pt x="341" y="811" on="1"/>
        <pt x="337" y="811" on="0"/>
        <pt x="327" y="815" on="1"/>
        <pt x="197" y="878" on="1"/>
        <pt x="179" y="886" on="0"/>
      </contour>
    </TTGlyph>
    <TTGlyph name="Uhungarumlaut" xMin="57" yMin="-6" xMax="537" yMax="959">
      <contour>
        <pt x="57" y="223" on="1"/>
        <pt x="57" y="691" on="1"/>
        <pt x="57" y="711" on="0"/>
        <pt x="95" y="731" on="0"/>
        <pt x="149" y="731" on="0"/>
        <pt x="187" y="711" on="0"/>
        <pt x="187" y="691" on="1"/>
        <pt x="187" y="223" on="1"/>
        <pt x="187" y="108" on="0"/>
        <pt x="407" y="108" on="0"/>
        <pt x="407" y="223" on="1"/>
        <pt x="407" y="691" on="1"/>
        <pt x="407" y="711" on="0"/>
        <pt x="445" y="731" on="0"/>
        <pt x="499" y="731" on="0"/>
        <pt x="537" y="711" on="0"/>
        <pt x="537" y="691" on="1"/>
        <pt x="537" y="223" on="1"/>
        <pt x="537" y="105" on="0"/>
        <pt x="406" y="-6" on="0"/>
        <pt x="188" y="-6" on="0"/>
        <pt x="57" y="104" on="0"/>
      </contour>
      <contour>
        <pt x="172" y="847" on="1"/>
        <pt x="172" y="856" on="0"/>
        <pt x="179" y="863" on="1"/>
        <pt x="263" y="951" on="1"/>
        <pt x="270" y="959" on="0"/>
        <pt x="282" y="959" on="1"/>
        <pt x="296" y="959" on="0"/>
        <pt x="320" y="934" on="0"/>
        <pt x="320" y="921" on="1"/>
        <pt x="320" y="911" on="0"/>
        <pt x="313" y="904" on="1"/>
        <pt x="231" y="818" on="1"/>
        <pt x="223" y="809" on="0"/>
        <pt x="212" y="809" on="1"/>
        <pt x="197" y="809" on="0"/>
        <pt x="172" y="833" on="0"/>
      </contour>
      <contour>
        <pt x="329" y="847" on="1"/>
        <pt x="329" y="856" on="0"/>
        <pt x="336" y="863" on="1"/>
        <pt x="420" y="951" on="1"/>
        <pt x="428" y="959" on="0"/>
        <pt x="439" y="959" on="1"/>
        <pt x="453" y="959" on="0"/>
        <pt x="477" y="934" on="0"/>
        <pt x="477" y="921" on="1"/>
        <pt x="477" y="911" on="0"/>
        <pt x="470" y="904" on="1"/>
        <pt x="388" y="818" on="1"/>
        <pt x="380" y="809" on="0"/>
        <pt x="369" y="809" on="1"/>
        <pt x="354" y="809" on="0"/>
        <pt x="329" y="833" on="0"/>
      </contour>
    </TTGlyph>
    <TTGlyph name="Umacron" xMin="57" yMin="-6" xMax="537" yMax="938">
      <contour>
        <pt x="57" y="223" on="1"/>
        <pt x="57" y="691" on="1"/>
        <pt x="57" y="711" on="0"/>
        <pt x="95" y="731" on="0"/>
        <pt x="149" y="731" on="0"/>
        <pt x="187" y="711" on="0"/>
        <pt x="187" y="691" on="1"/>
        <pt x="187" y="223" on="1"/>
        <pt x="187" y="108" on="0"/>
        <pt x="407" y="108" on="0"/>
        <pt x="407" y="223" on="1"/>
        <pt x="407" y="691" on="1"/>
        <pt x="407" y="711" on="0"/>
        <pt x="445" y="731" on="0"/>
        <pt x="499" y="731" on="0"/>
        <pt x="537" y="711" on="0"/>
        <pt x="537" y="691" on="1"/>
        <pt x="537" y="223" on="1"/>
        <pt x="537" y="105" on="0"/>
        <pt x="406" y="-6" on="0"/>
        <pt x="188" y="-6" on="0"/>
        <pt x="57" y="104" on="0"/>
      </contour>
      <contour>
        <pt x="152" y="895" on="1"/>
        <pt x="152" y="913" on="0"/>
        <pt x="174" y="938" on="0"/>
        <pt x="192" y="938" on="1"/>
        <pt x="397" y="938" on="1"/>
        <pt x="413" y="938" on="0"/>
        <pt x="438" y="913" on="0"/>
        <pt x="438" y="877" on="0"/>
        <pt x="413" y="853" on="0"/>
        <pt x="397" y="853" on="1"/>
        <pt x="192" y="853" on="1"/>
        <pt x="174" y="853" on="0"/>
        <pt x="152" y="876" on="0"/>
      </contour>
    </TTGlyph>
    <TTGlyph name="Uogonek" xMin="57" yMin="-213" xMax="537" yMax="731">
      <contour>
        <pt x="57" y="223" on="1"/>
        <pt x="57" y="691" on="1"/>
        <pt x="57" y="711" on="0"/>
        <pt x="95" y="731" on="0"/>
        <pt x="149" y="731" on="0"/>
        <pt x="187" y="711" on="0"/>
        <pt x="187" y="691" on="1"/>
        <pt x="187" y="223" on="1"/>
        <pt x="187" y="108" on="0"/>
        <pt x="407" y="108" on="0"/>
        <pt x="407" y="223" on="1"/>
        <pt x="407" y="691" on="1"/>
        <pt x="407" y="711" on="0"/>
        <pt x="445" y="731" on="0"/>
        <pt x="499" y="731" on="0"/>
        <pt x="537" y="711" on="0"/>
        <pt x="537" y="691" on="1"/>
        <pt x="537" y="223" on="1"/>
        <pt x="537" y="51" on="0"/>
        <pt x="394" y="7" on="1"/>
        <pt x="360" y="-14" on="0"/>
        <pt x="316" y="-80" on="0"/>
        <pt x="316" y="-111" on="1"/>
        <pt x="316" y="-158" on="0"/>
        <pt x="376" y="-158" on="1"/>
        <pt x="399" y="-158" on="0"/>
        <pt x="399" y="-187" on="1"/>
        <pt x="399" y="-213" on="0"/>
        <pt x="370" y="-213" on="1"/>
        <pt x="314" y="-213" on="0"/>
        <pt x="253" y="-164" on="0"/>
        <pt x="253" y="-123" on="1"/>
        <pt x="253" y="-61" on="0"/>
        <pt x="306" y="-6" on="1"/>
        <pt x="297" y="-6" on="1"/>
        <pt x="188" y="-6" on="0"/>
        <pt x="57" y="104" on="0"/>
      </contour>
    </TTGlyph>
    <TTGlyph name="Uring" xMin="57" yMin="-6" xMax="537" yMax="1012">
      <contour>
        <pt x="57" y="223" on="1"/>
        <pt x="57" y="691" on="1"/>
        <pt x="57" y="711" on="0"/>
        <pt x="95" y="731" on="0"/>
        <pt x="149" y="731" on="0"/>
        <pt x="187" y="711" on="0"/>
        <pt x="187" y="691" on="1"/>
        <pt x="187" y="223" on="1"/>
        <pt x="187" y="108" on="0"/>
        <pt x="407" y="108" on="0"/>
        <pt x="407" y="223" on="1"/>
        <pt x="407" y="691" on="1"/>
        <pt x="407" y="711" on="0"/>
        <pt x="445" y="731" on="0"/>
        <pt x="499" y="731" on="0"/>
        <pt x="537" y="711" on="0"/>
        <pt x="537" y="691" on="1"/>
        <pt x="537" y="223" on="1"/>
        <pt x="537" y="105" on="0"/>
        <pt x="406" y="-6" on="0"/>
        <pt x="188" y="-6" on="0"/>
        <pt x="57" y="104" on="0"/>
      </contour>
      <contour>
        <pt x="198" y="913" on="1"/>
        <pt x="198" y="952" on="0"/>
        <pt x="255" y="1012" on="0"/>
        <pt x="335" y="1012" on="0"/>
        <pt x="394" y="952" on="0"/>
        <pt x="394" y="913" on="1"/>
        <pt x="394" y="873" on="0"/>
        <pt x="334" y="812" on="0"/>
        <pt x="256" y="812" on="0"/>
        <pt x="198" y="873" on="0"/>
      </contour>
      <contour>
        <pt x="249" y="912" on="1"/>
        <pt x="249" y="894" on="0"/>
        <pt x="277" y="864" on="0"/>
        <pt x="296" y="864" on="1"/>
        <pt x="314" y="864" on="0"/>
        <pt x="340" y="893" on="0"/>
        <pt x="340" y="912" on="1"/>
        <pt x="340" y="930" on="0"/>
        <pt x="314" y="957" on="0"/>
        <pt x="296" y="957" on="1"/>
        <pt x="277" y="957" on="0"/>
        <pt x="249" y="929" on="0"/>
      </contour>
    </TTGlyph>
    <TTGlyph name="Utilde" xMin="57" yMin="-6" xMax="537" yMax="946">
      <contour>
        <pt x="57" y="223" on="1"/>
        <pt x="57" y="691" on="1"/>
        <pt x="57" y="711" on="0"/>
        <pt x="95" y="731" on="0"/>
        <pt x="149" y="731" on="0"/>
        <pt x="187" y="711" on="0"/>
        <pt x="187" y="691" on="1"/>
        <pt x="187" y="223" on="1"/>
        <pt x="187" y="108" on="0"/>
        <pt x="407" y="108" on="0"/>
        <pt x="407" y="223" on="1"/>
        <pt x="407" y="691" on="1"/>
        <pt x="407" y="711" on="0"/>
        <pt x="445" y="731" on="0"/>
        <pt x="499" y="731" on="0"/>
        <pt x="537" y="711" on="0"/>
        <pt x="537" y="691" on="1"/>
        <pt x="537" y="223" on="1"/>
        <pt x="537" y="105" on="0"/>
        <pt x="406" y="-6" on="0"/>
        <pt x="188" y="-6" on="0"/>
        <pt x="57" y="104" on="0"/>
      </contour>
      <contour>
        <pt x="121" y="878" on="1"/>
        <pt x="121" y="906" on="0"/>
        <pt x="157" y="939" on="0"/>
        <pt x="190" y="946" on="0"/>
        <pt x="207" y="946" on="1"/>
        <pt x="236" y="946" on="0"/>
        <pt x="322" y="917" on="0"/>
        <pt x="349" y="917" on="1"/>
        <pt x="373" y="917" on="0"/>
        <pt x="422" y="941" on="0"/>
        <pt x="430" y="941" on="1"/>
        <pt x="447" y="941" on="0"/>
        <pt x="463" y="911" on="0"/>
        <pt x="463" y="899" on="1"/>
        <pt x="463" y="877" on="0"/>
        <pt x="444" y="848" on="0"/>
        <pt x="413" y="835" on="0"/>
        <pt x="389" y="831" on="0"/>
        <pt x="378" y="831" on="1"/>
        <pt x="343" y="831" on="0"/>
        <pt x="259" y="860" on="0"/>
        <pt x="236" y="860" on="1"/>
        <pt x="212" y="860" on="0"/>
        <pt x="162" y="836" on="0"/>
        <pt x="154" y="836" on="1"/>
        <pt x="137" y="836" on="0"/>
        <pt x="121" y="866" on="0"/>
      </contour>
    </TTGlyph>
    <TTGlyph name="V" xMin="9" yMin="-6" xMax="566" yMax="731">
      <contour>
        <pt x="9" y="677" on="1"/>
        <pt x="9" y="700" on="0"/>
        <pt x="62" y="731" on="0"/>
        <pt x="91" y="731" on="1"/>
        <pt x="128" y="731" on="0"/>
        <pt x="135" y="705" on="1"/>
        <pt x="288" y="163" on="1"/>
        <pt x="440" y="705" on="1"/>
        <pt x="447" y="731" on="0"/>
        <pt x="484" y="731" on="1"/>
        <pt x="512" y="731" on="0"/>
        <pt x="566" y="699" on="0"/>
        <pt x="566" y="677" on="1"/>
        <pt x="566" y="675" on="0"/>
        <pt x="564" y="667" on="1"/>
        <pt x="372" y="38" on="1"/>
        <pt x="366" y="17" on="0"/>
        <pt x="318" y="-6" on="0"/>
        <pt x="288" y="-6" on="1"/>
        <pt x="219" y="-6" on="0"/>
        <pt x="204" y="38" on="1"/>
        <pt x="11" y="667" on="1"/>
        <pt x="9" y="675" on="0"/>
      </contour>
    </TTGlyph>
    <TTGlyph name="W" xMin="9" yMin="-6" xMax="874" yMax="731">
      <contour>
        <pt x="9" y="679" on="1"/>
        <pt x="9" y="700" on="0"/>
        <pt x="63" y="731" on="0"/>
        <pt x="92" y="731" on="1"/>
        <pt x="128" y="731" on="0"/>
        <pt x="135" y="705" on="1"/>
        <pt x="293" y="163" on="1"/>
        <pt x="378" y="511" on="1"/>
        <pt x="387" y="547" on="0"/>
        <pt x="442" y="547" on="1"/>
        <pt x="496" y="547" on="0"/>
        <pt x="505" y="511" on="1"/>
        <pt x="590" y="163" on="1"/>
        <pt x="748" y="705" on="1"/>
        <pt x="755" y="731" on="0"/>
        <pt x="791" y="731" on="1"/>
        <pt x="820" y="731" on="0"/>
        <pt x="874" y="700" on="0"/>
        <pt x="874" y="679" on="1"/>
        <pt x="874" y="673" on="0"/>
        <pt x="872" y="667" on="1"/>
        <pt x="674" y="38" on="1"/>
        <pt x="659" y="-6" on="0"/>
        <pt x="589" y="-6" on="1"/>
        <pt x="559" y="-6" on="0"/>
        <pt x="511" y="17" on="0"/>
        <pt x="506" y="38" on="1"/>
        <pt x="442" y="308" on="1"/>
        <pt x="377" y="38" on="1"/>
        <pt x="372" y="17" on="0"/>
        <pt x="324" y="-6" on="0"/>
        <pt x="294" y="-6" on="1"/>
        <pt x="263" y="-6" on="0"/>
        <pt x="215" y="17" on="0"/>
        <pt x="209" y="38" on="1"/>
        <pt x="11" y="667" on="1"/>
        <pt x="9" y="673" on="0"/>
      </contour>
    </TTGlyph>
    <TTGlyph name="Wacute" xMin="9" yMin="-6" xMax="874" yMax="957">
      <contour>
        <pt x="9" y="679" on="1"/>
        <pt x="9" y="700" on="0"/>
        <pt x="63" y="731" on="0"/>
        <pt x="92" y="731" on="1"/>
        <pt x="128" y="731" on="0"/>
        <pt x="135" y="705" on="1"/>
        <pt x="293" y="163" on="1"/>
        <pt x="378" y="511" on="1"/>
        <pt x="387" y="547" on="0"/>
        <pt x="442" y="547" on="1"/>
        <pt x="496" y="547" on="0"/>
        <pt x="505" y="511" on="1"/>
        <pt x="590" y="163" on="1"/>
        <pt x="748" y="705" on="1"/>
        <pt x="755" y="731" on="0"/>
        <pt x="791" y="731" on="1"/>
        <pt x="820" y="731" on="0"/>
        <pt x="874" y="700" on="0"/>
        <pt x="874" y="679" on="1"/>
        <pt x="874" y="673" on="0"/>
        <pt x="872" y="667" on="1"/>
        <pt x="674" y="38" on="1"/>
        <pt x="659" y="-6" on="0"/>
        <pt x="589" y="-6" on="1"/>
        <pt x="559" y="-6" on="0"/>
        <pt x="511" y="17" on="0"/>
        <pt x="506" y="38" on="1"/>
        <pt x="442" y="308" on="1"/>
        <pt x="377" y="38" on="1"/>
        <pt x="372" y="17" on="0"/>
        <pt x="324" y="-6" on="0"/>
        <pt x="294" y="-6" on="1"/>
        <pt x="263" y="-6" on="0"/>
        <pt x="215" y="17" on="0"/>
        <pt x="209" y="38" on="1"/>
        <pt x="11" y="667" on="1"/>
        <pt x="9" y="673" on="0"/>
      </contour>
      <contour>
        <pt x="357" y="860" on="1"/>
        <pt x="357" y="882" on="0"/>
        <pt x="374" y="891" on="1"/>
        <pt x="506" y="955" on="1"/>
        <pt x="516" y="957" on="0"/>
        <pt x="519" y="957" on="1"/>
        <pt x="535" y="957" on="0"/>
        <pt x="559" y="926" on="0"/>
        <pt x="559" y="908" on="1"/>
        <pt x="559" y="886" on="0"/>
        <pt x="541" y="878" on="1"/>
        <pt x="411" y="815" on="1"/>
        <pt x="401" y="811" on="0"/>
        <pt x="397" y="811" on="1"/>
        <pt x="381" y="811" on="0"/>
        <pt x="357" y="843" on="0"/>
      </contour>
    </TTGlyph>
    <TTGlyph name="Wcircumflex" xMin="9" yMin="-6" xMax="874" yMax="957">
      <contour>
        <pt x="9" y="679" on="1"/>
        <pt x="9" y="700" on="0"/>
        <pt x="63" y="731" on="0"/>
        <pt x="92" y="731" on="1"/>
        <pt x="128" y="731" on="0"/>
        <pt x="135" y="705" on="1"/>
        <pt x="293" y="163" on="1"/>
        <pt x="378" y="511" on="1"/>
        <pt x="387" y="547" on="0"/>
        <pt x="442" y="547" on="1"/>
        <pt x="496" y="547" on="0"/>
        <pt x="505" y="511" on="1"/>
        <pt x="590" y="163" on="1"/>
        <pt x="748" y="705" on="1"/>
        <pt x="755" y="731" on="0"/>
        <pt x="791" y="731" on="1"/>
        <pt x="820" y="731" on="0"/>
        <pt x="874" y="700" on="0"/>
        <pt x="874" y="679" on="1"/>
        <pt x="874" y="673" on="0"/>
        <pt x="872" y="667" on="1"/>
        <pt x="674" y="38" on="1"/>
        <pt x="659" y="-6" on="0"/>
        <pt x="589" y="-6" on="1"/>
        <pt x="559" y="-6" on="0"/>
        <pt x="511" y="17" on="0"/>
        <pt x="506" y="38" on="1"/>
        <pt x="442" y="308" on="1"/>
        <pt x="377" y="38" on="1"/>
        <pt x="372" y="17" on="0"/>
        <pt x="324" y="-6" on="0"/>
        <pt x="294" y="-6" on="1"/>
        <pt x="263" y="-6" on="0"/>
        <pt x="215" y="17" on="0"/>
        <pt x="209" y="38" on="1"/>
        <pt x="11" y="667" on="1"/>
        <pt x="9" y="673" on="0"/>
      </contour>
      <contour>
        <pt x="299" y="859" on="1"/>
        <pt x="299" y="885" on="0"/>
        <pt x="321" y="896" on="1"/>
        <pt x="425" y="952" on="1"/>
        <pt x="433" y="957" on="0"/>
        <pt x="442" y="957" on="1"/>
        <pt x="449" y="957" on="0"/>
        <pt x="459" y="952" on="1"/>
        <pt x="563" y="897" on="1"/>
        <pt x="584" y="884" on="0"/>
        <pt x="584" y="858" on="1"/>
        <pt x="584" y="843" on="0"/>
        <pt x="568" y="819" on="0"/>
        <pt x="556" y="819" on="1"/>
        <pt x="550" y="819" on="0"/>
        <pt x="546" y="822" on="1"/>
        <pt x="442" y="878" on="1"/>
        <pt x="338" y="822" on="1"/>
        <pt x="332" y="819" on="0"/>
        <pt x="327" y="819" on="1"/>
        <pt x="315" y="819" on="0"/>
        <pt x="299" y="843" on="0"/>
      </contour>
    </TTGlyph>
</ttFont>
